
<?xml version="1.0" standalone="no"?>
<!DOCTYPE svg PUBLIC "-//W3C//DTD SVG 1.1//EN" "http://www.w3.org/Graphics/SVG/1.1/DTD/svg11.dtd">
<svg xmlns="http://www.w3.org/2000/svg">
<metadata>Copyright (C) 2018 by original authors @ fontello.com</metadata>
<defs>
<font id="fontello" horiz-adv-x="1000" >
<font-face font-family="fontello" font-weight="400" font-stretch="normal" units-per-em="1000" ascent="850" descent="-150" />
<missing-glyph horiz-adv-x="1000" />
<glyph glyph-name="tv" unicode="&#xe800;" d="M1231 850h-1154a78 78 0 0 1-77-78v-730a77 77 0 0 1 77-77h115v-115h924v115h115a77 77 0 0 1 77 77v730a78 78 0 0 1-77 78z m-577-942a39 39 0 1 0 38 38 39 39 0 0 0-38-38z m577 134h-1154v731h1154z" horiz-adv-x="1308" />

<glyph glyph-name="usuario" unicode="&#xe801;" d="M686 441c-48-46-114-74-186-74s-137 28-186 74c-81-44-136-128-137-227v0-247c0-65 53-117 117-117h529v359c0 100-56 188-137 232z m-186-14c117 0 213 95 213 212 0 116-96 211-213 211s-212-95-212-212c0-116 95-211 212-211z" horiz-adv-x="1000" />

<glyph glyph-name="verisign-secured" unicode="&#xe802;" d="M1937 523c-67 63-157 101-256 101-3 0-6 0-9 0l-855 0v15h-32v-16h-32v16h-51c-12 9-25 19-39 27-65 39-142 61-224 61s-158-22-223-61c-64-38-117-91-156-153-39-66-61-142-61-223s22-158 61-223c38-64 91-117 154-156 65-38 142-60 223-61 1 0 1 0 2 0 81 0 157 22 222 61 11 6 23 15 35 24 2-3 6-5 10-5 0 0 0 0 0 0h965c2 0 5 0 7 0 100 0 191 39 258 102l0 0c67 60 109 147 109 244 0 1 0 1 0 1v0c0 1 0 2 0 3 0 96-41 183-107 243z m-1315-547c-53-31-116-50-184-50-133 0-249 72-312 178-33 54-51 116-51 183 0 1 0 2 0 3 0 0 0 0 0 1 0 67 18 130 51 185 30 52 75 96 127 127 54 32 118 51 185 51s131-19 185-51c8-4 16-10 24-16h-17v-53h-34v-32h-23v-34h-25c-44-64-84-137-115-214-67 83-127 137-182 154-3 1-6 2-10 2-10 0-18-6-22-15-6-13 0-30 18-50 63-74 116-160 153-254 11-24 29-36 50-36 0 0 1 0 2 0 2-1 5-1 8-1 18 0 33 11 39 27 33 91 74 169 124 241l-3 35h28v32h28v41h32v37h-32v34h32v-34h34v34h2c7-9 13-18 19-27 31-53 49-117 49-184 0-1 0-1 0-1 0-68-18-131-50-185-32-53-76-97-128-128z m1297 78v0c-63-59-147-95-239-95-2 0-5 0-7 0l-949 0c37 31 68 68 93 109 38 65 61 142 61 223 0 81-22 157-61 222-9 14-19 28-29 42l0 15h29v26h856c2 0 5 0 8 0 92 0 175-35 238-94 61-55 100-135 100-225s-39-169-100-224z m-868 274l-32 89h-31l52-126h24l50 126h-30l-33-89z m104-35c6-2 13-4 20-4 0 0 1 0 1 0 8 0 16 2 22 6 7 2 12 7 16 13l-15 13c-3-2-6-5-10-7-4-1-9-2-13-2-6 0-11 1-15 4-5 4-8 9-8 14l66 0v7c0 1 0 1 0 1 0 7-1 13-3 20-2 5-5 10-9 15-3 5-8 9-14 12-6 3-13 4-21 4 0 0-1 0-1 0-7 0-13-1-19-3-5-3-10-7-14-11-9-9-14-22-14-35 0 0 0 0 0-1 0-7 2-14 5-21 2-5 5-10 9-14 5-5 11-9 17-11z m4 69c3 4 8 6 13 6 0 0 1 0 1 0 0 0 0 0 1 0 5 0 9-2 13-6 3-4 5-9 6-15l-41 0c1 6 3 11 7 15z m178 25h28v-95h-28v95z m-59-61c-1 1-1 2-1 3 0 9 4 17 9 23 4 5 11 8 19 8 1 0 1 0 2 0l0 0v29c-1 0-2 0-4 0-5 0-11-2-14-6-5-4-9-9-12-15l0 19h-27v-97h27z m59 96h28v-24h-28v24z m148-69c-4 3-8 5-13 7l-17 6-13 4-9 4-4 3-2 5c1 3 2 6 5 7 3 3 6 4 10 4 0 0 1 0 2 0 0 0 0 0 0 0 6 0 11-1 16-4l17-9 14 21c-6 5-13 9-21 11-8 3-17 5-26 5 0 0 0 0 0 0-7 0-12-1-18-3-5-1-9-4-13-8-4-3-7-7-10-11l-2-15c0-1 0-1 0-2 0-5 1-9 2-14l8-10 14-7 17-5 13-4 7-4 5-3v-6c0 0 0 0 0 0 0-3-2-6-5-8-3-2-6-3-11-3-1 0-1 0-2 0-7 0-14 2-20 4-6 3-12 7-17 11l-17-19c7-6 16-11 25-15 9-3 19-5 29-5 0 0 0 0 1 0 6 0 12 1 17 2 5 2 10 5 15 8 4 3 7 7 9 12 2 4 3 9 3 15 0 0 0 1 0 1l0 0c0 0 0 0 0 1 0 4-1 9-2 13z m43 69h29v-24h-29v24z m1-35h28v-95h-28v95z m138-13c-4 5-8 8-13 10-5 3-11 5-17 5-1 0-1 0-2 0l-15-3c-5-2-10-5-14-9s-7-8-9-14c-2-5-3-11-3-17 0 0 0-1 0-2 0 0 0 0 0-1 0-6 1-13 3-18 3-5 6-10 9-14 4-3 8-6 13-8 5-2 11-3 17-3 0 0 0 0 0 0 1 0 1 0 2 0 6 0 12 1 17 3 4 4 8 7 12 12l0-5c0-1 0-2 0-3 0-6-3-12-7-17-4-3-11-6-17-6-1 0-2 0-3 0l-17 2-15 7-10-21c6-3 13-6 20-7l23-2 24 2c6 2 12 5 17 10 7 9 12 20 12 33 0 1-1 3-1 5l0 74h-26z m-2-39c-1-2-3-5-5-7-2-2-4-3-7-4l-10-2c0 0-1 0-1 0-6 0-11 2-15 6-4 3-7 9-7 15 0 0 0 1 0 1l2 9c1 3 3 5 5 7l7 5 9 1 10-1 7-5c2-2 4-4 5-7l2-9c0-3-1-6-2-9z m91 10c0 0 0 1 0 1 0 5 1 10 4 13 4 3 8 5 13 5s9-2 12-5c3-3 4-7 4-12 0-1 0-1 0-2l0-53h27v61c1 1 1 2 1 3 0 9-4 17-10 23-5 6-13 10-22 10-1 0-1 0-2 0l-9 0-7-4-6-5-5-5v13h-27v-96h27z m-662-148c-4 3-8 5-12 7l-18 6-13 4-9 3-4 4-2 6c1 3 2 6 5 7 3 2 6 4 10 4 0 0 1 0 2 0 0 0 0 0 0 0 6 0 11-2 16-4l17-9 14 21c-6 5-13 9-21 11-8 3-17 5-26 5 0 0 0 0-1 0-6 0-12-1-17-3-5-2-10-4-13-8-5-3-8-7-10-11l-3-16c0 0 0 0 0-1 0-5 1-10 3-14l8-10 13-7 17-5 14-4 7-4 4-3v-6c0 0 0 0 0 0 0-3-1-6-4-8-3-2-7-4-11-4-1 0-2 0-3 0-7 1-14 2-20 5-6 3-11 6-16 11l-17-19c7-7 15-12 24-15 9-4 19-6 29-6 1 0 1 0 1 0 6 0 12 1 18 3 5 2 10 4 15 7 3 3 6 8 8 12 3 5 4 10 4 15 0 1 0 1 0 2l0 0c0 0 0 0 0 0 0 5-1 10-3 14z m230-37c-3-2-7-3-11-3-4 0-8 1-11 2-3 1-5 3-7 5-2 3-4 6-5 9-1 4-2 7-2 10l0 1 2 9 5 9 7 6 9 2c1 0 1 0 2 0 4 0 8-1 11-3 4-2 7-5 9-8l17 18c-4 5-10 9-15 11-7 3-15 5-22 5-1 0-1 0-1 0 0 0-1 0-2 0-6 0-13-1-19-4-6-2-11-6-15-10-9-10-14-22-15-36 1-7 2-14 5-20 2-5 6-10 10-15 4-4 10-8 16-10 6-3 12-5 20-5 0 0 1 0 1 0 8 0 16 2 22 6 6 3 11 8 16 12l-16 16z m-105 57c-4 5-9 9-14 11-6 3-14 5-21 5 0 0-1 0-1 0-7 0-13-2-19-4-6-2-11-6-15-10-4-5-7-10-10-16-2-6-3-12-3-19 0 0 0-1 0-1 0-8 2-15 4-21 3-6 6-11 10-15 5-4 10-8 16-10 6-2 13-4 20-4 0 0 1 0 1 0 8 0 16 2 22 5 7 3 12 8 16 14l-15 13c-3-3-7-5-10-7-4-2-9-3-13-3-6 0-11 2-15 5-5 3-8 8-8 14l65 0v7c0 0 0 0 0 0 0 7-1 14-2 20-2 6-5 11-8 16z m-57-26c1 6 4 11 8 15 3 3 8 5 13 5 0 0 0 0 1 0 0 0 0 0 0 0 5 0 10-2 13-5 3-4 6-9 6-15z m281-14c0 0 0 0 0 0 0-5-1-10-4-14-4-2-8-4-13-4 0 0 0 0 0 0-5 0-9 1-12 4-3 4-5 9-5 14 0 0 0 0 0 0l0 54h-26v-61c0-1 0-2 0-3 0-9 3-17 8-23 6-6 14-10 23-10 0 0 1 0 1 0l10 0 7 3 6 6 5 5v-13h27v96h-27z m238 40c-4 5-9 9-14 11-6 3-13 5-21 5 0 0-1 0-1 0-7 0-13-2-19-4-5-2-10-6-15-10-4-5-7-10-10-16-2-6-3-12-3-19 0 0 0-1 0-1 0-8 2-15 4-21 3-6 6-11 10-15 5-4 10-8 16-10 6-2 13-4 20-4 0 0 1 0 1 0 8 0 16 2 22 5 7 3 12 8 16 14l-15 13c-3-3-6-5-10-7-4-2-9-3-13-3-6 0-11 2-15 5-5 3-8 8-8 14l66 0v7c0 0 0 0 0 0 0 7-1 14-3 20-2 6-5 11-8 16z m-57-26c1 6 4 11 8 15 3 3 8 5 13 5 0 0 0 0 1 0 0 0 0 0 0 0 5 0 10-2 13-5 4-4 7-10 8-17z m171 28c-3 4-7 7-11 9-5 3-11 5-18 5 0 0 0 0 0 0-1 0-1 0-2 0-5 0-11-1-16-4-5-1-9-4-13-8-4-5-7-10-10-15-2-6-3-13-3-20 0-1 0-2 0-2l0 0c0-1 0-2 0-2 0-7 1-13 3-19 3-6 6-11 10-16 4-4 8-7 13-9 5-2 11-3 16-3 1 0 1 0 2 0 0 0 0 0 0 0 7 0 13 1 18 4 4 3 8 6 11 11l0-14h27v130h-27z m0-36l-2-11c-1-3-2-5-4-8l-7-5c-3-1-7-2-10-2l-7 0-7 6c-3 2-5 4-6 7l-2 11c0 4 1 8 2 11l6 8 7 5 9 2c3 0 7-1 10-2l7-5 4-8 2-11z m-255 29v19h-27v-96h27v35c0 1 0 2 0 3 0 9 3 17 8 23 5 5 12 8 19 8 1 0 2 0 3 0l0 0v29c-2 0-3 0-4 0-6 0-11-2-15-6-5-4-8-9-11-15z m344 379h11v36h13v9h-38v-9h14v-36z m46 29l12-20h1l12 20v-29h11v45h-11l-12-20-12 20h-12v-45h11v29z m-1213 87h34v-33h-34v33z m100-33h34v-34h-34v34z m33 34h38v-34h-38v34z m-33 0h33v35h32v36h-65v-36h-33v-69h33v34z m-66-34h33v-34h-33v34z m169 69h36v36h-35v35h35v36h-36v-36h-35v-35h35v-36z" horiz-adv-x="2063" />

<glyph glyph-name="videos" unicode="&#xe803;" d="M904 782h-902v-771c0-51 42-93 94-93h902v770c0 53-42 94-94 94z m-218-62h94v-93h-94v93z m-155 0h94v-93h-94v93z m-312 0h94v-93h-94v93z m-155 0h93v-93h-93v93z m93-741h-93v93h93v-93z m156 0h-94v93h94v-93z m155 0h-94v93h94v-93z m0 185c0-17-14-31-31-31h-342c-17 0-31 14-31 31v370c0 17 14 31 31 31h342c17 0 31-14 31-31v-370z m0 464h-94v93h94v-93z m156-649h-94v93h94v-93z m156 0h-94v93h94v-93z m155 0h-94v93h94v-93z m0 185c0-17-14-31-31-31h-342c-17 0-31 14-31 31v370c0 17 14 31 31 31h342c17 0 31-14 31-31v-370z m0 464h-94v93h94v-93z" horiz-adv-x="1000" />

<glyph glyph-name="vista-mosaico" unicode="&#xe804;" d="M63 850h312a63 63 0 0 0 63-62v-313a63 63 0 0 0-63-62h-312a63 63 0 0 0-63 62v313a63 63 0 0 0 63 62z m0-500h312a63 63 0 0 0 63-62v-313a63 63 0 0 0-63-63h-312a63 63 0 0 0-63 63v313a63 63 0 0 0 63 62z m500 500h312a63 63 0 0 0 63-62v-313a63 63 0 0 0-63-62h-312a63 63 0 0 0-63 62v313a63 63 0 0 0 63 62z m0-500h312a63 63 0 0 0 63-62v-313a63 63 0 0 0-63-63h-312a63 63 0 0 0-63 63v313a63 63 0 0 0 63 62z" horiz-adv-x="1000" />

<glyph glyph-name="vowifi_ico" unicode="&#xe805;" d="M205 407l-22-21a51 51 0 0 1-16-36 157 157 0 0 1 12-68 423 423 0 0 1 76-126 469 469 0 0 1 156-122 213 213 0 0 1 85-25 56 56 0 0 1 49 19c6 7 14 15 21 21l12 12a28 28 0 0 1 0 41c-16 16-32 32-48 48l-10 9a26 26 0 0 1-40 0l-2-2c-12-11-23-22-34-33a14 14 0 0 0-18-3 88 88 0 0 1-9 4 151 151 0 0 0-15 8 374 374 0 0 0-91 84 226 226 0 0 0-33 53 15 15 0 0 0 3 18l30 29 5 6a28 28 0 0 1 0 41l-36 37-20 20a29 29 0 0 1-21 10 30 30 0 0 1-20-10z m319-14a49 49 0 1 1 0-69 49 49 0 0 1 0 69z m305-65a339 339 0 0 1-369 369 24 24 0 0 1-22-28 24 24 0 0 1 26-22 291 291 0 0 0 316-314 25 25 0 0 1 7-20 24 24 0 0 1 41 15z m-166 202a243 243 0 0 1-195 70 24 24 0 0 1-15-41 24 24 0 0 1 20-8 194 194 0 0 0 210-210 24 24 0 0 1 7-19 24 24 0 0 1 15-7 24 24 0 0 1 26 22 243 243 0 0 1-70 193z m-70-69a145 145 0 0 1-116 42 24 24 0 0 1-22-26 24 24 0 0 1 7-15 26 26 0 0 1 19-7 97 97 0 0 0 105-105 24 24 0 0 1 7-19 23 23 0 0 1 15-7 24 24 0 0 1 28 22 146 146 0 0 1-43 115z m0 0" horiz-adv-x="1000" />

<glyph glyph-name="warning" unicode="&#xe806;" d="M992-28l-436 816c-11 20-33 32-54 32v0c-24 0-44-12-55-32l-438-818c-11-20-9-43 2-62s31-31 53-31h874c21 0 42 10 53 31s12 44 1 64z m-490 33c-35 0-63 28-63 62s28 63 63 63c34 0 62-28 62-63s-28-62-62-62z m62 250c0-35-28-63-62-63s-63 28-63 63v251c0 35 28 63 63 63s62-28 62-63v-251z" horiz-adv-x="1000" />

<glyph glyph-name="watch" unicode="&#xe807;" d="M313 100h-167a42 42 0 0 0-42 42v83h250v-83a42 42 0 0 0-41-42z m-167 750h167a42 42 0 0 0 41-42v-83h-250v83a42 42 0 0 0 42 42z m344-292h-32v105a42 42 0 0 1-41 41h-375a42 42 0 0 1-42-41v-375a42 42 0 0 1 42-42h375a42 42 0 0 1 41 42v208h32a10 10 0 0 1 10 10v42a10 10 0 0 1-10 10z m-73-270h-375v375h375v-375z m-90 118l-77 78v137a21 21 0 0 1-42 0v-146c0 0 0 0 0 0 0 0 0-1 0-1 0 0 0 0 0-1 0 0 0 0 0 0 1 0 1 0 1-1 0 0 0 0 0 0 0 0 0 0 0-1 0 0 0 0 0 0 0 0 0 0 0-1 0 0 0 0 0 0 0 0 0 0 0-1 0 0 0 0 0 0 0 0 0 0 0-1 1 0 1 0 1 0 0 0 0 0 0 0 0-1 0-1 0-1s0 0 0 0c0-1 0-1 0-1 0 0 1 0 1 0 0 0 0-1 0-1 0 0 0 0 0 0 0 0 0-1 0-1 0 0 0 0 1 0 0 0 0 0 0-1 0 0 0 0 0 0 0 0 0 0 0 0 1 0 1-1 1-1 0 0 0 0 0 0 0 0 0 0 0-1 1 0 1 0 1 0 0 0 0 0 0-1 0 0 0 0 0 0l84-83a21 21 0 0 1 29 29z" horiz-adv-x="667" />

<glyph glyph-name="wellbeing" unicode="&#xe808;" d="M100 450c-14 199 99 300 221 300 73 0 138-37 178-95h2c40 58 105 95 178 95 122 0 235-101 221-300-21-299-251-500-400-500s-379 201-400 500z m-100-600h1000v1000h-1000v-1000z" horiz-adv-x="1000" />

<glyph glyph-name="wellbeingpopout" unicode="&#xe809;" d="M100 450c-14 199 99 300 221 300 73 0 138-37 178-95h2c40 58 105 95 178 95 122 0 235-101 221-300-21-299-251-500-400-500s-379 201-400 500z" horiz-adv-x="1000" />

<glyph glyph-name="wifi" unicode="&#xe80a;" d="M502 834c-266 0-484-218-484-484s218-484 484-484 484 218 484 484-218 484-484 484z m0-798c-48 0-85 38-85 86s37 85 85 85 85-38 85-85-37-86-85-86z m106 205c-31 27-68 41-106 41s-78-14-106-41l-47 48c40 37 95 61 156 61s116-24 157-61l-54-48z m99 95c-55 52-127 82-205 82s-150-30-205-82l-47 48c30 31 68 55 109 72 44 20 92 27 143 27s96-10 143-27c41-17 79-41 109-72l-47-48z m95 99c-78 75-184 120-300 120s-222-48-300-123l-48 48c44 44 96 78 154 102 61 27 126 41 194 41s133-14 194-41c58-24 110-58 154-102l-48-45z" horiz-adv-x="1000" />

<glyph glyph-name="work" unicode="&#xe80b;" d="M900-50h-800v699h269c16 58 68 101 131 101s116-43 131-101h269v-699z m100 900h-1000v-1000h1000v1000z" horiz-adv-x="1000" />

<glyph glyph-name="workpopout" unicode="&#xe80c;" d="M900-50h-800v699h269c16 58 68 101 131 101s116-43 131-101h269v-699z" horiz-adv-x="1000" />

<glyph glyph-name="world" unicode="&#xe80d;" d="M505 850h-3c-1 0-1 0-2 0-276 0-500-224-500-500 0-276 223-499 498-500h4c0 0 1 0 1 0 277 0 500 224 500 500 0 276-222 499-498 500h0z m-54-62v-27c-1-7-3-13-8-18l0 0-47-47c-5-4-11-7-18-7l0 0h-92c-5 0-10-5-10-10v-42c0-5 5-10 10-10h92c0 0 0 0 0 0 6 0 10-4 10-9l0-1v-41c0-6-4-10-10-10h-40c-7-1-13-3-18-7l0 0-37-37c-4-5-6-11-7-18l0 0v-41c0-7-3-13-7-17l0 0-37-37c-4-4-10-7-17-7l0 0h-41c-7 0-13 3-18 7l0 0-37 37c-4 4-11 7-17 7l0 0h-29c44 178 193 312 375 335l3 0z m-298-708v24c0 7-3 13-7 17l0 0-37 37c-4 5-7 11-7 18l0 0v92c0 7 3 13 7 18l0 0 47 46c5 5 11 7 17 8l0 0h31c7-1 13-3 18-8l0 0 98-98c5-4 11-7 18-7l0 0h40c0 0 0 0 0 0 6 0 10-5 10-10l0 0v-97c0-7-3-13-7-18l0 0-43-43c-4-4-7-10-7-17l0 0v-37c0-7-3-13-7-18l0 0-28-28c-57 31-105 71-143 120l-1 1z m554-120l-23 23c-4 5-7 11-7 18l0 0v155c-1 6-4 13-8 17l0 0-47 47c-4 4-11 7-17 8l0 0h-103c-6 0-10 4-10 10v91c0 7 3 13 7 18l0 0 47 47c5 4 11 7 18 7l0 0h103c6 1 13 3 17 8l0 0 48 47c4 4 11 7 17 7l0 0h31c6 0 10 5 11 11v30c-1 6-5 10-11 10h-32c-7 0-13-3-18-7l0 0-47-47c-4-4-10-7-17-7l0 0h-102c-5 0-10 4-10 10v41c0 7 3 13 7 18l0 0 47 47c5 4 11 7 18 7l0 0h92c0 0 0 0 0 0 5 0 10 4 10 10l0 0v31c0 6-5 10-10 10h-42c-5 0-10 5-10 10v41c0 6 5 11 10 11h109c95-79 155-196 159-328l0 0-34 33c-4 4-10 7-17 7l0 0h-32c-6 0-10-4-10-10v-41c0-7 3-13 7-18l0 0 37-36c4-5 7-11 7-18l0 0v-41c0-7-3-13-7-18l0 0-37-37c-4-4-7-10-7-17l0 0v-85c-39-50-87-90-141-120l-3-1z" horiz-adv-x="1000" />

<glyph glyph-name="4g" unicode="&#xe80e;" d="M773 350c0-213-173-386-387-386s-386 173-386 386 173 386 386 386 387-173 387-386z m-514 64v-99h-75l74 99h1z m0-147v-66h56v67h37v48h-37v171h-52l-125-166v-54h121z m323-33l6-33h42l0 158h-123v-48h64c-1-20-8-36-20-47s-28-16-49-16c-15 0-27 3-37 9-10 5-18 13-24 22s-11 20-14 31c-3 12-4 24-4 36 0 13 1 25 4 37 3 12 7 23 14 32s14 17 24 23c10 5 22 8 37 8 15 0 29-4 39-12 11-8 19-21 23-37h61c-2 17-6 31-14 44s-16 24-28 33c-11 8-24 15-38 19s-28 7-43 7c-23 0-43-4-61-12-17-8-32-18-45-32s-21-31-28-49c-6-19-10-39-10-61 0-21 4-41 10-59 7-19 16-35 28-49 13-13 28-24 45-32s38-11 60-11c15 0 29 3 43 9 14 5 26 16 38 30z" horiz-adv-x="781" />

<glyph glyph-name="accessibility_vision" unicode="&#xe80f;" d="M926 850c-8 0-16 0-24 0s-16 0-24 0c-375 0-755-265-878-500 123-235 499-500 874-500 8 0 16 0 24 0s16 0 24 0c376 0 755 265 878 500-123 235-499 500-874 500z m-521-736c-110 68-205 153-264 236 60 83 155 168 266 236a1089 1089 0 0 0 112 59 480 480 0 0 1 1-592 1073 1073 0 0 0-115 61z m492-124a360 360 0 1 0 360 360 360 360 0 0 0-360-360z m496 125a1090 1090 0 0 0-120-64 480 480 0 0 1-2 600 1072 1072 0 0 0 124-65c110-67 205-152 264-236-59-83-155-168-266-235z m-391 254a97 97 0 0 0-31 188 220 220 0 1 1 125-113 97 97 0 0 0-94-75z" horiz-adv-x="1800" />

<glyph glyph-name="amena-chat" unicode="&#xe810;" d="M500 850c-255 0-461-173-461-387 0-129 39-235 145-302v-311l382 244c293 19 395 169 395 369 0 214-206 387-461 387z m50-661l-289-184v236c-80 50-109 131-109 228 0 162 156 294 350 294 192 0 350-132 350-294-2-152-80-266-302-280z" horiz-adv-x="1000" />

<glyph glyph-name="amena-comunidad" unicode="&#xe811;" d="M554 611c-5-1-11-2-17-3s-13-1-18-2c-7-1-13-3-18-5-5-1-10-4-14-7-4-3-7-7-10-11-2-5-4-11-4-17 0 0 0-1 0-1 0-1 0-1 0-2 0-5 2-11 4-16 3-4 6-8 10-10 5-3 10-5 16-6 5-1 11-2 17-2 0 0 1 0 1 0 0 0 1 0 2 0 12 0 23 3 32 9 8 4 14 10 18 17 4 7 6 14 7 21 1 6 2 12 2 18l0 28c-3-3-7-5-12-7-4-1-10-3-15-4z m287-8c0 136-134 247-300 247s-299-111-299-247c0-12 0-24 2-36-141-33-244-142-244-272 0-162 108-264 283-268l287-177-4 236c109 51 109 164 109 209 0 33-6 64-18 92 112 28 184 109 184 216z m-325-453l-27-7 2-146-188 124h-9c-139 0-217 61-217 182 0 94 78 169 186 193 23-48 65-84 116-98l-30-171 210 146c7 0 15 0 22 0 12-22 19-49 19-78 0 0 0 0 0 0 0-87-23-125-84-145z m74 336c-1 4-2 8-3 12-1 5-2 10-2 14-12-11-26-20-42-25-16-6-33-8-51-8-1 0-1 0-1 0-13 0-26 1-37 5-11 3-21 8-30 15-8 7-14 16-19 25-5 11-7 23-7 35 0 1 0 2 0 3 0 1 0 3 0 4 0 13 2 24 7 35 5 9 12 17 21 23 9 6 19 11 30 14 9 3 21 5 33 7q19 3 35 5c11 1 21 2 31 5 7 1 13 4 19 9 5 4 7 9 7 15 0 1 0 2 0 3 0 0 0 1 0 1 0 7-1 13-4 18-2 5-6 9-10 12-5 2-10 4-16 5-6 1-13 1-19 1-1 1-2 1-4 1-12 0-23-4-32-10-9-8-15-19-15-32l-75 0c0 16 5 31 13 44 8 12 18 21 30 28 12 8 26 13 40 16 15 3 31 5 47 5 0 0 1 0 1 0 15 0 30-1 44-3 13-2 26-6 37-12 11-5 21-14 28-24 8-10 12-23 12-37 0-1 0-2 0-3l0-145c0 0 0 0 0 0 0-13 1-25 2-37 1-8 3-17 8-25l-78 1z" horiz-adv-x="844" />

<glyph glyph-name="android" unicode="&#xe812;" d="M504 739l10 15 10 15 21 32c3 4 2 9-2 12-4 3-9 2-12-2l-23-35-10-15-10-15c-31 13-66 19-103 19s-72-6-103-19l-10 15-10 15-23 35c-3 4-8 5-12 2s-5-8-2-12l21-32 10-15 10-14c-74-35-124-100-124-174h486c0 74-50 139-124 173z m-223-104c-14 0-26 12-26 26s12 26 26 26c14 0 26-11 26-26 0-14-12-26-26-26z m208 0c-14 0-26 12-26 26s12 26 26 26c14 0 26-11 26-26 0-14-12-26-26-26z m-343-104h-4v-381c0-30 25-55 55-55h40c-2-5-2-9-2-14v-110c0-29 23-52 52-52s52 23 52 52v110c0 5-1 9-2 14h96c-1-5-2-9-2-14v-110c0-29 24-52 52-52 29 0 52 23 52 52v110c0 5 0 9-2 14h40c30 0 55 25 55 55v381h-482z m-90 0c-29 0-52-23-52-52v-222c0-29 23-52 52-52 28 0 52 23 52 52v222c0 29-24 52-52 52z m658 0c-28 0-52-23-52-52v-222c0-29 24-52 52-52s52 23 52 52v222c0 29-23 52-52 52z" horiz-adv-x="781" />

<glyph glyph-name="area-clientes-amena" unicode="&#xe813;" d="M572 643c0-111-90-202-202-202s-202 91-202 202c0 112 91 202 202 202s202-90 202-202z m-49-605c-21 0-39 18-39 39v61c0 21 18 38 39 38h25c3 7 5 14 8 20l-17 18c-8 7-12 17-12 27s4 20 12 28l43 43c2 2 5 4 8 5-46 58-117 97-197 103-6 0-12 1-18 1-1 0-2 0-3 0 0 0 0 0-1 0s0 0-1 0c-1 0-1 0-2 0-7 0-13-1-19-1-141-11-252-124-252-262v-146h452l7 7c-3 6-5 13-8 19h-25z m439 107h-48l-3 11c-4 13-9 24-15 35l-6 11 35 34c1 1 2 3 2 5 0 3-1 4-2 5l-43 43c-2 3-9 2-11 0l-34-34-10 6c-11 6-23 11-35 14l-11 4v48c0 4-4 7-8 7h-61c-4 0-7-3-7-7v-48l-11-4c-13-3-24-8-35-14l-10-6-35 34c-2 3-8 3-10 0l-43-43c-2-2-2-4-2-5s0-3 2-5l34-34-6-11c-6-11-11-22-14-35l-3-11h-49c-4 0-7-3-7-7v-61c0-4 3-8 7-8h49l3-11c3-12 8-24 14-35l6-10-34-34c-2-2-2-4-2-6 0-2 0-3 2-5l43-43c2-2 8-2 10 0l35 35 10-6c11-6 22-11 35-15l11-3v-48c0-4 3-8 7-8h61c4 0 8 4 8 8v48l11 3c12 4 24 9 35 15l10 6 34-35c3-2 8-2 11 0l43 43c3 3 3 8 0 11l-35 34 6 10c6 11 11 23 15 35l3 11h48c4 0 8 4 8 8v61c0 4-4 7-8 7z m-219-137c-55 0-100 44-100 99 0 55 45 100 100 100 55 0 99-45 99-100 0-55-44-99-99-99z" horiz-adv-x="1000" />

<glyph glyph-name="arrow-down" unicode="&#xe814;" d="M842-150l842 1000h-1684l842-1000z" horiz-adv-x="1688" />

<glyph glyph-name="arrows-up-down" unicode="&#xe815;" d="M266 850l-266-316h532l-266 316z m0-1000l266 316h-532l266-316z" horiz-adv-x="531" />

<glyph glyph-name="arrow-up" unicode="&#xe816;" d="M842 850l-842-1000h1684l-842 1000z" horiz-adv-x="1688" />

<glyph glyph-name="asesor-tarifas" unicode="&#xe817;" d="M276 506l31 75c1 3 2 5 3 8 32 77 63 153 95 230 2 6 6 11 10 15 10 9 21 9 34 4 46-19 93-38 139-58 2-1 4-2 6-2 0 4 0 8 0 11 0 37-27 65-65 65-141 0-282 0-423 0-2 0-4 0-7 0 0-3 0-6 0-8 0-55 0-109 0-164 0-128 0-256 0-383 0-30 19-56 48-61 15-3 31-2 47-3 0 2-1 3-1 4-10 25-8 49 2 74 27 63 54 129 81 193z m364 79c-7-7-7-18 0-24 7-7 18-7 24 0 7 7 7 17 0 24s-17 7-24 0z m232 12c-5 24-19 39-41 49-125 52-250 103-374 155-7 3-14 6-22 9-1-2-2-4-3-6-70-169-140-337-210-506-15-36 0-70 35-85 117-49 234-97 351-146 15-6 30-13 46-19 1 2 2 4 3 6 48 116 96 232 144 349 24 58 47 116 71 174 0 6 0 12 0 19 1 0 0 1 0 1z m-94-129c-10-2-19-3-29-2-30 3-60 7-90 11-39 4-77 2-115-8-34-9-62-27-87-52-11-11-20-24-24-39-13-45 18-82 56-89 5-1 10-1 15-2 2 7 4 13 6 19 8 19 20 34 35 47 2 1 3 3 5 4s3 1 4-1c1-2 2-5 2-7 5-17 8-35 5-53-1-5-2-9-3-14 0-1 0-2 1-3 15-21 21-44 20-69 0-2-1-3-3-2-13 3-25 9-36 18-9 7-17 14-24 22-1 1-2 1-3 1-19-1-38 0-56 5-28 7-52 21-71 43-22 25-33 54-36 86-3 38 6 74 24 108 11 20 24 38 41 54 12 12 16 27 9 42-5 10-13 16-23 18-2 0-4 1-5 2-3 3-2 8 2 10 3 1 6 2 8 3 39 11 78 9 117-4 2-1 3 0 5 1 30 14 61 22 94 20 29-2 55-10 78-28 20-15 33-34 43-57 0 0 0 0 0-1-1 0-2 1-2 1-11 4-23 8-34 12-1 0-2 0-3 1-4 1-6-1-7-4s1-5 5-6c8-2 15-4 23-7 20-7 39-17 55-31 5-4 10-9 14-15 5-16-5-31-16-34z" horiz-adv-x="1000" />

<glyph glyph-name="asesor-tarifas2" unicode="&#xe818;" d="M504 661c13 0 25 12 25 25s-11 24-25 24c-14 0-24-10-24-24s9-25 24-25z m398 154h-898v-651c0-51 42-93 93-93h124v-186l186 186h589v651c-1 50-41 93-94 93z m-108-574c-16-10-35-16-54-18-15-3-30-3-46-2-1 0-4-1-5-2-17-21-37-38-60-51-35-21-74-30-114-28-47 2-88 20-123 50-42 35-68 80-85 133-9 31-14 63-12 95 0 25-12 43-33 50-15 5-28 4-42-4-2-2-5-3-7-3-6 0-10 7-8 13 1 3 3 7 6 12 29 50 68 87 121 112 2 2 3 4 4 6 16 45 39 83 74 114 30 27 66 46 107 52 35 4 67-2 100-14 0 0 0 0 1-2-1 0-2-1-3-1-15-7-31-15-46-22-1 0-2-1-3-2-5-2-6-7-4-11s6-3 11-1c9 6 20 11 30 15 28 13 56 21 86 25 9 1 20 1 29-1 21-7 27-32 18-47-7-12-17-22-28-31-34-27-68-53-102-81-43-35-79-75-107-123-24-43-36-90-35-138 0-23 5-45 16-65 32-58 100-64 145-32 6 5 12 9 16 13-4 9-9 16-12 25-12 27-14 54-12 83 0 2 0 6 1 8 0 4 2 4 5 2 3-1 7-3 9-4 22-13 43-28 58-49 4-6 7-12 11-17 1-2 2-3 3-3 35-6 65-23 90-49 3-3 3-6 0-7z" horiz-adv-x="1000" />

<glyph glyph-name="avatar-gris" unicode="&#xe819;" d="M500 850c-276 0-500-224-500-499a497 497 0 0 1 117-321c4 33 9 66 19 98 16 50 51 99 100 121 25 12 52 17 79 23 24 6 48 12 73 18a290 290 0 0 1 2 43c0 12-9 24-17 35-22 34-45 66-57 105-24 80 4 172 72 222 73 53 190 45 253-20 60-62 72-153 37-231-13-31-34-56-51-84-9-14-12-20-11-37q1-16 3-33c24-6 48-12 72-18 27-6 55-12 81-24 48-22 82-71 98-120 9-29 14-60 18-90a498 498 0 0 1 111 313c0 275-223 499-499 499z m323-744c-12 40-39 82-79 98-23 10-48 13-72 19-28 7-56 14-84 21-12 3-18 14-19 25-4 36-11 72 6 105 15 28 36 51 50 79 34 63 27 142-27 192-57 51-161 41-207-20-45-59-37-131 1-191 14-23 32-44 43-68 13-30 6-66 2-97-1-11-7-22-19-25-28-8-56-14-84-21-24-6-49-10-71-19-41-16-68-58-80-99-10-37-15-76-19-114 0-3-1-6-1-10a500 500 0 0 1 680 6c-1 2-1 3-1 4-4 38-9 77-19 115z" horiz-adv-x="999" />

<glyph glyph-name="back-breadcrum" unicode="&#xe81a;" d="M1065 417h-843l304 318c12 12 19 29 19 48s-7 35-19 47c-12 12-28 20-46 20s-34-8-46-20l-415-432c-12-13-19-30-19-48s7-35 19-48l415-432c12-13 28-20 46-20s35 7 46 20c12 12 19 29 19 47s-7 36-19 48l-304 318h842v134z" horiz-adv-x="1063" />

<glyph glyph-name="bonus-megas" unicode="&#xe81b;" d="M351-32h-292v794h470v-141h12c16 0 31-1 47-2v172c0 0 0 0 0 0 0 33-26 59-59 59h-470c0 0 0 0 0 0-33 0-59-26-59-59 0 0 0 0 0 0v-882c0 0 0 0 0 0 0-33 26-59 59-59 0 0 0 0 0 0h470c7 0 13 1 19 3l-7 0c-82 0-153 46-189 113z m-101 853h88c8 0 14-7 14-15s-6-15-14-15h-88c-8 0-15 7-15 15s7 15 15 15z m44-942c-16 0-29 13-29 30s13 29 29 29c16 0 29-13 29-29s-13-30-29-30z m247 357c-93-1-168-76-168-168 0-93 75-168 168-168s168 75 168 168c0 0 0 0 0 0 0 92-75 168-168 168 0 0 0 0 0 0z m116-193h-91v-91h-50v91h-91v49h92v92h49v-92h91z m-314 278l62-62c36 32 84 52 137 52s100-20 136-53l63 63c-52 49-122 78-199 78s-146-29-198-78z m379 217c-53 23-115 36-181 36-125 0-238-49-322-129l63-62c67 64 159 103 260 103s192-39 260-104l62 63c-40 38-87 69-139 91z" horiz-adv-x="875" />

<glyph glyph-name="broadband-landline" unicode="&#xe81c;" d="M540 850c-1 0-1 0-1 0-39 0-75-17-100-45l0 0-440-443h203v-410c0 0 0 0 0 0 0-56 46-101 102-102h471c56 1 101 46 101 102 0 0 0 0 0 0v0 410h202l-436 441c-25 29-62 47-102 47 0 0 0 0-1 0h1z m-208-932s0 0 0 0c0 34-28 61-61 61-1 0-1 0-1 0h0v64c67-2 121-57 122-125v0z m126 0s0 3 0 4c-1 103-84 186-187 186 0 0-1 0-1 0l0 0v60c137-1 247-112 247-249 0 0 0-1 0-1v0z m123 0c-5 171-141 308-310 314l-1 0v61c205-1 371-168 371-373 0 0 0-1 0-2v0z m1524 207c-139 112-131 104-241-6-44-45-157 48-252 144s-189 209-145 253c111 111 118 102 6 241s-107 115-248-29c-73-78-3-334 257-595s522-328 595-257c149 150 160 141 28 249z" horiz-adv-x="2188" />

<glyph glyph-name="buscar" unicode="&#xe81d;" d="M991-50l-282 283a391 391 0 1 1-91-92l282-282a31 31 0 0 1 44 0l47 47a31 31 0 0 1 0 44z m-600 244a266 266 0 1 0 265 265 266 266 0 0 0-265-265z" horiz-adv-x="1000" />

<glyph glyph-name="business" unicode="&#xe81e;" d="M500 420c111 0 202 91 202 202s-91 201-202 201c-111 0-202-90-202-201s91-202 202-202z m170 21c-43-43-104-68-170-68s-125 25-170 68c-75-39-127-119-127-210v-247c0 0 0 0 0 0v-1c0-60 49-106 108-106h484v356c2 89-50 169-125 208z m-170-458l-59 76 36 274c7 0 15-2 21-2 8 0 16 0 24 2l36-274-58-76z" horiz-adv-x="1000" />

<glyph glyph-name="buy" unicode="&#xe81f;" d="M941 479h-257v132c0 102-82 184-183 184s-184-82-184-184v-132h-259c-32 0-58-25-58-57 0-11 3-21 8-30l222-487h534l226 487c5 9 10 19 10 30 0 32-27 57-59 57z m-538 132c0 26 10 51 29 69s43 29 69 29c25 0 50-10 69-29s28-43 28-69l0-132h-194l-1 132z m-288-246h201l22-144h-155l-68 144z m172-374l-69 144h133l23-144h-87z m259 0h-92l-23 144h138l-23-144z m35 230h-156l-23 144h196l-17-144z m132-230h-87l23 144h133l-69-144z m104 230h-157l18 144h202l-63-144z" horiz-adv-x="1000" />

<glyph glyph-name="calendar" unicode="&#xe820;" d="M903 753h-129v49c0 27-21 48-48 48 0 0 0 0 0 0h0c-27 0-48-22-48-48v0-49h-355v49c0 26-22 48-49 48s-48-22-48-48v0-49h-226v-807c0-53 43-96 97-96h903v806c0 0 0 0 0 0 0 54-43 97-96 97h0z m32-838h-822c-27 0-48 21-48 48v0 500h822c27 0 48-22 48-48v0z m-741 725c0 26 12 50 32 65l0 0v-65c0-27 22-48 48-48s49 21 49 48v0 65c19-15 32-39 32-65 0-44-36-80-81-80s-80 36-80 80c0 0 0 0 0 0v0z m451 0c0 26 13 50 32 65l0 0v-65c0-27 22-48 49-48s48 21 48 48v0 64c20-15 32-38 32-64 0-44-36-80-81-80s-80 36-80 80v0z" horiz-adv-x="1000" />

<glyph glyph-name="call" unicode="&#xe821;" d="M777 212c-93 75-88 70-162-5-30-29-105 33-170 98s-127 140-97 169c74 75 79 69 4 163s-72 77-167-20c-50-53-2-224 173-400s351-220 400-172c100 100 108 94 19 167z" horiz-adv-x="1000" />

<glyph glyph-name="call-center" unicode="&#xe822;" d="M882 526h-24c-55 190-194 324-358 324s-303-134-358-324h-24c-65 0-118-52-118-117v-118c0-65 53-117 118-117h24c55-190 194-324 358-324s303 134 358 324h24c65 0 118 52 118 117v118c0 65-53 117-118 117z m-86-352c-7-24-15-44-24-62l-189 3c-13 34-45 59-84 59-48 0-88-40-88-89s40-88 88-88c39 0 71 24 83 58l158 1q-8-12-17-24c-28-37-62-68-102-90-36-21-77-33-122-33s-85 12-121 32c-40 23-74 54-101 90-31 41-56 88-72 139-18 56-28 117-28 180s10 124 28 181q6 18 15 38c6 15 20 25 37 25 2 0 4 0 6-1 45-6 127-31 237-118 134-106 275-77 319-52 3-22 5-47 5-72 0-1 0-1 0-1 0-1 0-1 0-2 0-62-10-122-29-178z" horiz-adv-x="1000" />

<glyph glyph-name="camera" unicode="&#xe823;" d="M1144 694h-221l-131 127c-8 8-19 12-30 12h-233c-11 0-22-4-30-12l-131-127h-221c-39 0-70-32-70-72v-684c0-39 31-71 70-71h997c39 0 70 32 70 71v684c0 40-31 72-70 72z m-498-674c-140 0-254 117-254 260 0 144 114 260 254 260s253-116 253-260c0-143-114-260-253-260z m160 260c0-91-72-164-160-164s-161 73-161 164c0 91 72 165 161 165s160-74 160-165z" horiz-adv-x="1281" />

<glyph glyph-name="camera-simple" unicode="&#xe824;" d="M1231 735h-885v57c0 32-26 58-58 58h-115c-32 0-58-26-58-58v-57h-115v-808c0 0 0 0 0 0 0-42 34-77 77-77 0 0 0 0 0 0h1231v808c0 0 0 0 0 0 0 42-35 77-77 77 0 0 0 0-1 0z m-885-192c0-22-17-39-38-39h-154c-21 0-39 17-39 39v38c0 21 18 38 39 38h154c21 0 38-17 38-38z m365-539c-159 0-288 129-288 288s129 289 288 289c160 0 289-129 289-289s-129-288-289-288z" horiz-adv-x="1313" />

<glyph glyph-name="care" unicode="&#xe825;" d="M371-25c-198 90-286 323-197 522l-67 30c90 198 324 286 522 197 208-94 284-330 198-521l66-30c-90-199-323-287-522-198z m629 875h-1000v-1000h1000v1000z" horiz-adv-x="1000" />

<glyph glyph-name="carepopout" unicode="&#xe826;" d="M371-25c-198 90-286 323-197 522l-67 30c90 198 324 286 522 197 208-94 284-330 198-521l66-30c-90-199-323-287-522-198z" horiz-adv-x="1000" />

<glyph glyph-name="certificado-app" unicode="&#xe827;" d="M883-134h-766c-56 0-101 45-101 101v766c0 56 45 101 101 101h766c56 0 101-45 101-101v-766c0-56-45-101-101-101z m-766 937c-39 0-70-31-70-70v-766c0-39 31-70 70-70h766c39 0 70 31 70 70v766c0 39-31 70-70 70h-766z m131-283h43v-40h1c21 31 50 47 89 47 17 0 33-4 47-11s24-19 30-36c9 15 22 26 36 34 15 8 31 13 50 13 14 0 26-2 37-5s21-8 28-14c8-6 14-14 19-25 5-10 6-22 6-36v-202h-45v182c0 7 0 17-1 23-2 8-5 14-8 19-5 6-10 9-16 12s-16 5-26 5c-22 0-41-6-54-19s-18-29-18-51v-172h-46v183c0 9-1 17-3 25s-4 14-8 18c-4 7-9 10-15 13s-16 5-25 5c-14 0-25-4-35-8s-17-13-23-19-9-16-13-23c-3-8-4-15-4-21v-172h-46v275z m504 50h-46v57h46v-57z m-46-50h46v-275h-46v275z m-551-367c0 11 1 22 4 31s8 19 14 27c7 8 15 14 24 19s20 6 33 6c12 0 23-2 33-6s17-11 23-19c6-8 11-16 14-27s5-20 5-31c0-11-2-22-5-31s-8-19-14-27c-6-7-14-14-23-18s-21-7-33-7c-13 0-24 2-33 7s-17 11-24 18c-6 8-10 16-14 27-3 9-4 20-4 31z m14 0c0-9 1-17 3-25s6-15 11-22c5-6 11-12 19-15 7-5 17-7 26-7 11 0 19 2 27 7s14 9 18 15c5 7 8 14 11 22 2 8 4 17 4 25s-2 17-4 25c-1 8-6 16-11 22s-10 13-18 16c-8 4-17 6-27 6-11 0-19-2-26-6s-14-10-19-16c-5-6-8-14-11-22-2-8-3-17-3-25z m154 35h13v-27c3 9 9 17 17 22s16 8 27 6v-14c-7 0-13 0-17-3-5-2-10-5-15-8-3-3-6-8-9-12-1-5-3-11-3-18v-61h-14v115z m69-35c0 6 2 13 5 17s6 10 9 13c5 3 10 5 14 6s11 2 19 2c5 0 9 0 16-2s9-3 14-5c4-3 8-6 9-11 3-4 3-10 3-18v-61c0-6 3-8 8-8 2 0 3 0 5 2v-13c-2 0-3 0-5 0s-3 0-5 0-6 0-7 2-4 1-5 4-3 2-3 5c0 3 0 5 0 8v0c-3-3-5-6-8-10s-5-4-9-7c-4-2-7-4-11-5s-10-2-14-2c-5 0-11 0-16 2s-9 3-13 6c-3 3-6 6-7 11s-3 9-3 16c0 8 1 14 4 18s8 8 14 11c7 4 13 5 21 5s14 2 21 3c4 0 5 0 8 2 2 0 5 1 7 1 1 2 3 3 3 5 1 2 1 5 1 8 0 5 0 8-1 11s-3 4-7 8c-3 1-6 3-9 3s-8 1-11 1c-9 0-16-1-22-6-8-6-11-12-11-22h-14z m74-17v0c-2-2-3-3-7-3s-4-2-6-2c-6-1-12-1-19-3s-12-1-17-3c-4-2-9-5-12-8s-5-8-5-12c0-3 0-7 2-10s3-4 6-7c3-2 5-4 8-5s6-2 9-2c5 0 11 2 16 3s9 5 12 8c3 3 6 6 10 11s3 10 3 16v17z m42 52h14v-21c3 6 8 13 14 17s14 7 22 7c8 0 14-2 20-3 5-2 10-5 13-10 3-3 6-8 6-14 1-5 1-11 1-19v-73h-14v72c0 4 0 9-1 14s-3 8-5 11-5 6-9 8-8 3-14 3c-7 0-11-2-16-3s-8-5-11-8c-3-3-5-8-8-13-1-4-3-9-3-15v-68h-14v115z m215-105c0-8-1-16-3-24-1-6-4-12-9-17s-9-8-16-11c-6-3-14-3-23-3-6 0-11 0-17 2-5 1-11 3-14 6-5 3-8 6-11 11s-5 9-5 16h14c0-5 2-8 5-11 1-4 4-5 8-7s6-3 9-3c3-1 8-1 11-1 12 0 22 3 28 11s9 18 9 32v16c-3-8-7-12-14-17s-14-6-22-6c-9 0-17 1-23 4s-12 8-16 13-7 11-9 19c-2 7-3 14-3 23 0 8 1 16 3 22s6 12 9 19c5 4 10 9 16 12s14 5 22 5c5 0 8 0 12-2 4-1 8-3 11-4s7-5 8-8c3-3 5-7 6-10v0 21h14v-108z m-50 5c7 0 11 1 16 3 5 3 8 6 11 11s5 9 6 14c2 4 2 11 2 17s0 11-2 17-3 11-6 16c-3 4-6 7-11 11s-11 4-17 4-11-3-16-6-9-6-12-11-5-9-6-16-2-10-2-17c0-6 0-11 2-17 1-5 3-11 6-14 3-5 6-8 12-11 5 0 10-1 17-1z m85 39c0-5 0-11 1-16s4-9 7-14c3-5 6-8 12-11 5-3 11-5 17-5 11 0 19 3 24 8 6 5 9 13 12 22h14c-3-13-7-23-15-30-8-8-19-11-33-11-9 0-17 2-24 5s-12 8-15 13c-5 6-8 12-10 18-1 8-3 16-3 24s2 15 3 22c2 7 5 14 10 18 5 7 9 11 15 14s15 5 24 5c9 0 17-1 23-6 7-3 13-8 16-14 5-6 6-13 9-21 2-7 3-15 2-23h-89z m73 12c0 5-1 11-3 16s-5 9-8 12c-3 3-6 6-11 10-4 1-9 3-15 3s-11-2-16-3c-5-2-8-5-11-10-3-3-6-8-8-12s-3-10-3-16h75z" horiz-adv-x="1000" />

<glyph glyph-name="chat" unicode="&#xe828;" d="M911 823h-916v-662c0-52 43-95 96-95h126v-189l189 189h600v662c-1 53-43 95-95 95z m-127-568v-127l-126 127h-380c-34 0-62 28-62 62v442h662c35 0 63-28 63-62v-442h-157z" horiz-adv-x="1000" />

<glyph glyph-name="chevron-down" unicode="&#xe829;" d="M0 659l186 191 602-619 603 619 186-191-789-809-788 809z" horiz-adv-x="1563" />

<glyph glyph-name="chevron-left" unicode="&#xe82a;" d="M513 850l121-118-392-382 392-382-121-118-513 500 513 500z" horiz-adv-x="625" />

<glyph glyph-name="chevron-right" unicode="&#xe82b;" d="M121 850l-121-118 392-382-392-382 121-118 513 500-513 500z" horiz-adv-x="625" />

<glyph glyph-name="chevron-up" unicode="&#xe82c;" d="M1577 41l-186-191-603 619-602-619-186 191 788 809 789-809z" horiz-adv-x="1563" />

<glyph glyph-name="cine-television" unicode="&#xe82d;" d="M175 477l880 236-9 34c-16 60-70 103-134 103-13 0-26-2-38-5l-874-234 36-134h-1v-488c0-77 62-139 139-139 0 0 0 0 0 0h906v627h-905z m743 344l94-83-134-36-95 82z m-269-73l95-82-136-37-94 83z m-270-72l95-83-135-36-94 83z m-269-72l94-83-134-35-27 101z m29-266h-69v104h139z m140 0l70 104h139l-70-104h-139z m373-373l-92 50-91-50 25 100-74 65 100 17 41 86 42-86 99-17-75-67z m44 373h-139l70 104h139z m279 0h-139l70 104h139z" horiz-adv-x="1094" />

<glyph glyph-name="close" unicode="&#xe82e;" d="M974-114c-23-22-54-36-89-36s-65 14-88 36l-292 293-292-293c-23-22-54-36-88-36-69 0-125 56-125 125 0 34 14 65 36 88l293 292-282 282c-23 23-37 54-37 88 0 69 56 125 125 125 34 0 66-14 88-36l0 0 282-283 282 283c23 23 54 38 90 38 69 0 124-56 124-125 0-35-14-67-38-90l0 0-282-282 293-292c22-23 36-54 36-88s-14-66-36-89l0 0z" horiz-adv-x="1000" />

<glyph glyph-name="cloud-download" unicode="&#xe82f;" d="M1121 374c5 25 8 54 8 83v0c0 1 0 1 0 2 0 215-173 389-387 391l0 0c0 0-1 0-2 0-122 0-231-57-302-146l0-1c-10 3-21 4-33 4 0 0-1 0-2 0l0 0c-82 0-150-64-158-144l0-1c-140-20-246-140-246-284 0-116 69-216 169-261l2-1 136-140c16-16 38-26 62-26s46 10 62 26l0 0 114 117h159v-72c0 0 0 0 0 0 0-39 31-71 70-71h106c39 0 71 32 71 71 0 0 0 0 0 0v0 72h36c0 0 1 0 1 0 118 0 213 95 213 213 0 0 0 1 0 2l0 0c0 67-31 127-79 166l0 0z m-720-476c-8-7-19-12-31-12s-22 5-30 12l0 0-163 166h106v179c1 19 16 35 36 36l0 0h106c18-2 33-17 33-36l0 0v-179h106z m517 202v0-179c-1-19-17-35-36-35l0 0h-107c-19 1-33 16-33 35 0 0 0 0 0 0l0 0v179h-108l162 166c8 8 19 12 31 12s22-4 30-12l0 0 166-166z" horiz-adv-x="1188" />

<glyph glyph-name="community-sms" unicode="&#xe830;" d="M932 850h-932v-677c0 0 0 0 0 0 0-54 43-97 96-97h129v-226l225 226h579v677c0 0 0 0 0 0 0 54-43 97-97 97 0 0 0 0 0 0z m-296-147c15 11 34 18 55 18 54 0 97-43 97-97s-43-97-97-97c-21 0-41 8-57 19 15 23 24 50 24 80 0 29-8 55-23 78z m-123 36c0 0 0 0 0 0 63 0 113-50 113-113s-50-113-113-113c-62 0-112 51-112 113 0 0 0 0 0 0 0 62 50 113 112 113z m-176-18c0 0 1 0 1 0 20 0 38-6 54-17-15-22-24-49-24-78 0-30 10-58 25-81-15-11-35-17-56-17-53 0-96 43-96 96s43 97 96 97z m-16-452h-70c-32 0-58 26-58 58 0 0 0 0 0 0v117c0 39 19 73 49 94 24-26 58-43 96-43 6 0 12 1 17 1-21-26-33-60-33-97 0 0 0-1 0-1z m354-64h-257c-36 0-64 29-64 64 0 0 0 1 0 1v129c0 0 0 1 0 1 0 49 27 92 68 114 25-20 57-32 92-32s66 12 91 32c42-22 70-65 70-115z m161 65h-129v129c0 1 0 1 0 1 0 37-12 71-33 98 6-1 11-2 17-2 38 0 73 17 96 43 30-21 49-55 49-94z" horiz-adv-x="1031" />

<glyph glyph-name="comunidad" unicode="&#xe831;" d="M217 403c42 0 80 19 106 49-1 7-1 15-1 21 0 38 11 72 31 102-15 61-70 105-134 105-77 0-139-63-139-139-2-75 59-138 137-138z m286-64c77 0 139 63 139 139s-62 139-139 139c-76 0-139-62-139-139s63-139 139-139z m400 63c-33-29-73-46-120-46-45 0-88 17-119 46-5-11-11-22-17-32 16-9 31-20 44-32 18-19 32-40 42-65 11-25 15-50 15-78v-111h200c24 0 44 19 44 44v0 135c0 60-36 114-89 139z m-284-63c-31-26-72-42-117-42-44 0-86 16-118 42-54-25-92-80-92-142v-134c0-24 19-44 44-44h373v178c2 62-36 117-90 142z m-266 31c-6 10-12 21-17 32-31-29-73-46-119-46s-87 17-120 46c-52-25-88-79-88-141v-134c0-24 19-44 44-44h200v112c0 27 5 53 16 78 9 24 25 46 42 65 12 12 27 23 42 32z m325 83c25-30 63-48 106-48 77 0 139 62 139 139s-62 139-139 139c-65 0-120-45-134-105 19-30 31-64 31-101-1-10-1-18-3-24z" horiz-adv-x="1000" />

<glyph glyph-name="configurar-movil" unicode="&#xe832;" d="M697 850c0 0 0 0 0 0s0 0 0 0c-4 1-8 1-13 1h-368c-47 0-85-35-92-79 0 0 0 0 0 0s0-1 0-1c-1-4-1-8-1-12v-817c0-52 41-93 93-93h368c37 0 68 21 83 51 0 0 0 0 0 0 1 2 2 5 3 7 5 11 7 22 7 35v816c0 47-35 86-80 92z m-448-43c5 6 10 11 16 16-6-5-11-11-16-16z m251-916c-29 0-53 24-53 53s24 52 53 52c28 0 52-23 52-52s-24-53-52-53z m236 130c0-3-3-6-6-6h-460c-3 0-6 3-6 6v725c0 4 3 7 6 7h460c3 0 6-3 6-7v-725z m-89 452c-16 17-43 17-59 0l-130-130-54 42c-13 10-32 9-43-4l-31-34c-6-7-9-15-8-24 0-9 5-17 12-23l93-73c23-18 55-16 75 4l164 164c8 8 13 18 13 30s-5 22-13 30l-18 18z" horiz-adv-x="1000" />

<glyph glyph-name="connected-objects" unicode="&#xe833;" d="M709 15h-665v421h273v45h-273c-24-1-44-21-44-45 0 0 0 0 0 0v-421c0-24 20-44 44-44 0 0 0 0 0 0h67v-67h532v67h66c0 0 0 0 1 0 24 0 44 19 44 44 0 0 0 0 0 0v105c-13-3-28-6-43-7z m-333-77c-12 0-22 10-22 22s10 22 22 22c13 0 22-10 22-22 0 0 0 0 0 0 0-12-9-22-21-22z m154 400h254v254h-254z m113 225c1 7 7 13 14 13s13-6 14-13l0-92 52-52c3-3 5-7 5-12 0-7-6-14-14-14-4 0-8 2-11 6l-56 56v5z m30 233c-181 0-328-145-331-325l0 0v-337h337c178 5 321 151 321 331 0 181-146 329-327 331z m-101-106c0 15 13 28 28 28h113c16 0 28-12 28-28v-56h-169z m169-450c0-16-12-28-28-28h-113c-15 0-28 12-28 28v56h169z m99 246c0-4-3-7-7-7h-21v-141c0-15-13-28-28-28h-254c-16 0-28 13-28 28v254c0 16 12 28 28 28h254c15 0 28-12 28-28v-70h21c4 0 7-3 7-7z" horiz-adv-x="1000" />

<glyph glyph-name="connectivity" unicode="&#xe834;" d="M0 850v-1000h1000v1000h-1000z m900-900l-400 115-400-115v628l400 172 400-172v-628z" horiz-adv-x="1000" />

<glyph glyph-name="connectivitypopout" unicode="&#xe835;" d="M900-50l-400 115-400-115v628l400 172 400-172v-628z" horiz-adv-x="1000" />

<glyph glyph-name="contacta-amena" unicode="&#xe836;" d="M60 669c-15 0-25-1-29-4s-4-5-2-9c3-3 9-8 20-16 5-4 9-7 11-10l440-334 440 332 9 10c11 8 18 13 21 16 3 4 3 7-1 10s-14 5-29 5h-879z m-58-78v-494c0-14 6-29 18-44 11-14 23-22 35-22h890c12 0 24 8 35 22 12 15 18 30 18 44v494l-498-381-498 381z" horiz-adv-x="1000" />

<glyph glyph-name="correos" unicode="&#xe837;" d="M1002 351c0-277-224-501-501-501s-501 224-501 501h313v-85c46 52 112 85 187 85 0 0 1 0 1 0 119 0 218-83 245-193 43 51 68 119 68 193z m-711-383c-25 37-39 81-39 130 0 0 0 1 0 2l0 187h-184c20-138 104-254 221-318z m643 320h-63c-31-178-183-311-367-311-1 0-2 0-3 0 0 0-1 0-1 0-69 0-124 54-126 122 0 70 57 126 126 126s126-56 126-125c-2-16-4-29-7-42 26 14 49 27 69 42-1 0-1 2-1 3 0 102-83 185-185 185 0 0-1 0-1 0-103 0-187-84-187-187s84-188 187-188c219 1 400 162 433 372z m-433-123c0 0 0 0 0 0-34 0-61-27-61-61 0-1 0-3 0-5 0 0 0-1 0-1 0-33 27-60 60-60 0 0 1 0 1 0 34 0 61 27 61 61 0 1 0 2 0 4 0 34-27 61-61 62z m11 630c12-4 20-15 20-28 1-2 1-4 1-7 0-17-14-31-31-31s-31 14-31 31c0 3 0 5 0 7 0 13 8 24 19 28l0 14-20 2v19h20v20h20v-20h22v-19h-21l2-16z m83-85c17 11 37 17 59 17 1 0 2 0 3 0 69 0 126-57 126-126-1-20-6-38-16-53l-78 0c18 11 31 30 31 52 0 1 0 3 0 4 0 34-28 62-62 62 0 0-1 0-1 0-1 0-2 0-3 0-5 0-9-1-13-4 10-18 16-39 16-61 0-2 0-4 0-6 0-17-4-33-11-48l-84 1c19 10 32 30 33 52 0 1 0 2 0 2 0 35-28 63-62 64l-1-118h-62v118c-1 0-1 0-1 0-36 0-65-29-65-64 0-1 0-1 0-2 2-22 15-41 33-52l-78 0c-10 15-15 33-16 52 0 1 0 1 0 2 0 22 7 43 18 60-4 3-10 4-15 4-1 0-2 0-3 0-34-1-61-29-61-63 0-1 0-2 0-3 0 0 0 0 0 0 0-22 12-42 31-52l-81 0c-7 14-11 30-11 47 0 2 0 4 0 6 0 0 0 0 0 1 0 68 55 123 122 125 1 0 1 0 2 0 22 0 43-7 60-18 18 11 41 18 64 18 0 0 1 0 1 0 9 0 20-2 31-2s20 2 31 2c23 0 45-6 64-17z m-282-274h374v-61h-374v61z m376 40c0 18 14 32 31 33 1 18 16 31 33 32 17-1 31-15 32-32-1-17-14-32-32-33-1-17-15-31-33-31-17 1-30 14-31 31z m-33 33c0 0 1 0 1 0 17 0 31-13 31-30 0-1 0-2-1-3 0 0 0 0 0-1 0-17-13-30-29-30-1 0-1 0-2 0-17 0-31 14-31 31-1-17-15-30-31-31-18 0-32 14-32 32s14 32 32 32c0 17 14 31 31 31 17-1 30-15 31-31z m-125 0c0 0 0 0 0 0 17 0 31-14 31-31 0-1 0-1 0-2 0-17-14-31-31-31-17 1-31 14-31 31 0-17-14-31-32-31 0 0-1 0-1 0-17 0-30 13-30 30 0 0 0 1 0 1 0 1 0 2 0 3 0 17 13 30 30 30 1 0 1 0 1 0 0 2 0 5 0 7 0 17 14 31 31 31s31-14 31-31c0-2 0-5-1-7z m-127 0c17 0 32-14 32-31s-15-32-32-32c-17 1-31 14-31 31-5-13-16-22-30-22-14 0-25 9-30 21 0 1 0 1 0 2 0 17 14 31 32 31 0 0 0 0 0 0 0 17 14 31 31 32 17 0 31-14 31-32z m-123 0c0 0 1 0 1 0 17 0 31-14 31-31 0-1 0-1 0-2 0-17-14-31-31-31 0 0-1 0-1 0-18 0-33 14-34 31-18 1-31 16-31 33 0 17 14 31 31 32 0 0 1 0 1 0 18 0 33-14 34-32z" horiz-adv-x="1000" />

<glyph glyph-name="desktop-pc-connected" unicode="&#xe838;" d="M115 388v-38c1 0 1 0 2 0 63 0 115-51 115-115 0-1 0-1 0-2l36 1c0 0 0 0 0 0 0 84-68 153-153 154z m0 76v-37c105-4 190-88 193-193l38 0c0 127-103 230-231 230z m1114 308h-192v-154h192v-38h-192v-39h192v-38h-192v-384c0-64-52-115-116-115 0 0 0 0 0 0h-38v-77c0-43 35-77 77-77h268c43 0 77 34 77 77v768c0 42-34 76-76 77z m-39-846c-21 0-38 17-38 39 0 21 17 38 38 38s39-17 39-38c-1-21-18-38-39-38 0 0 0 0 0 0z m-193 194v653c0 43-35 77-77 77h-843c-43 0-77-34-77-77v-653c0-42 34-77 77-77h843c43 1 77 35 77 77 0 0 0 0 0 0z m-920 652h845v-576h-845z m421-690c-21 0-39 17-39 38s18 39 39 39c21 0 38-17 38-39s-17-38-38-38z m270-155h-154v77h-230v-77h-153c-22 0-39-18-39-39v-38h615v38c0 0 0 0 0 0 0 21-17 39-39 39 0 0 0 0 0 0z m-653 384v-38c0 0 1 0 1 0 21 0 38-17 38-38 0-1 0-1 0-1l38 0c0 42-35 76-77 77z" horiz-adv-x="1313" />

<glyph glyph-name="device-fixed-line" unicode="&#xe839;" d="M822 86h-175v-58c0-49-40-88-88-88h-236c-49 0-88 39-88 88v58h-57c-33 0-59-26-59-58v-176h762v176c0 32-26 58-59 58z m-29-117c-16 0-29 13-29 29s13 30 29 30c16 0 29-13 29-30s-13-29-29-29z m-469 0h235c32 0 58 26 58 59v674c0 32-26 58-58 58h-235v59c0 16-13 29-29 29s-29-13-29-29v-791c0-33 26-59 58-59z m161 59h-88c-8 0-14 6-14 14s6 15 14 15h88c8 0 15-7 15-15s-7-14-15-14z m-44 263c17 0 30-13 30-29 0-16-13-29-30-29s-29 13-29 29c0 16 13 29 29 29z m-29 59c0 16 13 29 29 29s30-13 30-29-13-29-30-29c-16 0-29 13-29 29z m29-146c17 0 30-14 30-30 0-16-13-29-30-29s-29 13-29 29c0 16 13 30 29 30z m88-59c-16 0-29 13-29 29 0 16 13 30 29 30s30-14 30-30c0-16-13-29-30-29z m0 88c-16 0-29 13-29 29s13 29 29 29 30-13 30-29c0-16-13-29-30-29z m0 88c-16 0-29 13-29 29s13 29 29 29 30-13 30-29-13-29-30-29z m-205 381h235v-264h-235v264z m30-323c16 0 29-13 29-29s-13-29-29-29c-17 0-30 13-30 29s13 29 30 29z m0-88c16 0 29-13 29-29 0-16-13-29-29-29s-30 13-30 29c0 16 13 29 30 29z m0-87c16 0 29-14 29-30 0-16-13-29-29-29s-30 13-30 29c0 16 13 30 30 30z" horiz-adv-x="1000" />

<glyph glyph-name="edit-draft" unicode="&#xe83a;" d="M579 614h182l-234 236v-176c0-2 0-3 0-4 0-30 23-54 52-56l0 0z m309-253l-51 51-20 20-21-20-35-35v179h-176c-64 1-116 53-116 117 0 0 0 0 0 0v0 177h-469v-941c0 0 0 0 0 0 0-32 26-59 59-59h702v322l128 128c7 8 11 18 11 30 0 0 0 1 0 1l0 0c0 12-5 22-12 30l0 0z m-630-91c-10 15-27 70-30 70-2 0-3-1-4-2l0 0c0-1-92-151-95-154l-36 41c28 38 92 140 99 147 69 70 91-53 97-65 16 27 95 187 105 187 14 0 76-87 98-114 14-17 34-29 56-33l1 0c50 0 142 117 142 117-19-35-73-155-148-163-3-1-6-1-9-1-22 0-42 9-57 24l0 0c-43 35-67 99-79 99-2 0-3-1-3-2s-53-138-60-148c-15-23-55-39-77-3z m544-15v0l-303-303-128-68 68 127 311 313 51-50c3-2 4-5 5-9l0 0c0-4-2-7-4-9l0 0z m65 66v0l-35-35-61 59 46 46 50-51c3-2 4-6 4-10s-1-7-4-9l0 0z" horiz-adv-x="906" />

<glyph glyph-name="emap" unicode="&#xe83b;" d="M1006 850c-2 0-5 0-7 0-117 0-225-33-318-89l3 2c-90 54-199 87-315 87-2 0-5 0-7 0l0 0h-362v-812c0 0 0 0 0 0 0-40 33-73 73-73h289c2 0 4 0 6 0 63 0 123-12 178-35l-4 1c43-22 80-45 115-70l-3 2c14-10 18-13 30-13s16 3 30 13c32 23 68 46 107 66l4 2c52 22 112 34 174 34 3 0 5 0 7 0l0 0h289c40 0 73 33 73 73 0 0 0 0 0 0v0 812z m-885-161h322c22 0 40-18 40-40s-18-40-40-40h-322c-23 0-41 18-41 40s18 40 41 40v0z m0-161h322c0 0 2 0 3 0 22 0 40-18 40-40s-18-40-40-40c-1 0-3 0-4 0l1 0h-322c-1 0-2 0-3 0-23 0-41 18-41 40s18 40 41 40c1 0 2 0 3 0l0 0z m0-161h161c22 0 40-18 40-40s-18-40-40-40h-161c-23 0-41 18-41 40s18 40 41 40v0z m1166-281c0-22-18-40-40-40v0h-241c-3 0-7 0-11 0-72 0-142-15-205-42l4 1c-35-16-63-32-90-49l4 2c-7-4-15-6-24-6s-17 2-24 6l0 0c-23 15-51 31-80 45l-6 2c-59 26-129 41-201 41-4 0-8 0-11 0l0 0h-241c-22 0-40 18-40 40 0 0 0 0 0 0v0 40h281c2 0 4 0 7 0 116 0 225-32 318-89l-3 2c90 55 199 87 315 87 2 0 5 0 7 0l0 0h281z" horiz-adv-x="1375" />

<glyph glyph-name="error-form-field" unicode="&#xe83c;" d="M1110 38v0l-438 750c-23 37-63 62-109 62s-86-25-107-61l-1-1-437-748v-2c-10-18-17-40-17-63 0-14 2-27 6-39l0 1c18-51 66-87 122-87 1 0 2 0 4 0l-1 0h863c1 0 3 0 4 0 56 0 104 36 122 86l0 1c4 11 6 24 6 38 0 23-7 45-18 64l1-1z m-353 35c-9-9-22-15-36-15s-27 6-36 15l0 0-122 121-120-121c-9-9-22-15-36-15s-27 6-36 15l0 0c-9 10-15 22-15 37s6 27 15 36l120 121-116 116c-9 9-15 22-15 36 0 29 23 52 51 52 15 0 27-6 37-15l0 0 115-117 117 116c9 9 21 14 34 14 29 0 52-23 52-52 0-13-5-25-14-34l0 0-115-117 121-120c9-9 15-22 15-36 0-15-6-27-16-37l0 0z" horiz-adv-x="1125" />

<glyph glyph-name="esencial-tablet" unicode="&#xe83d;" d="M686 850c-174 0-314-141-314-314 0 0 0 0 0 0v-57h-58c-173 0-314-141-314-315s141-314 314-314c174 0 315 141 315 314v57h57c174 0 314 141 314 315s-140 314-314 314z m-143-686c0-126-102-228-229-228s-228 102-228 228c0 127 102 229 228 229h229z m143 143h-57v86h57c79 0 143 64 143 143s-64 143-143 143c-79 0-143-64-143-143v-57h-86v57c0 126 103 228 229 228s228-102 228-228c0-127-102-229-228-229z m-514-143c0-79 64-143 142-143s143 64 143 143c0 79-64 143-143 143s-142-64-142-143z" horiz-adv-x="1000" />

<glyph glyph-name="e-sim" unicode="&#xe83e;" d="M295 365a52 52 0 0 0 43-19 83 83 0 0 0 16-52v-2h-97v-1a41 41 0 0 1 11-30 40 40 0 0 1 29-12 31 31 0 0 1 34 26h21a52 52 0 0 0-19-34 58 58 0 0 0-36-11 56 56 0 0 0-47 20 76 76 0 0 0-16 48 69 69 0 0 0 17 48 56 56 0 0 0 44 19z m36-55a39 39 0 0 1-11 26 38 38 0 0 1-51 0 42 42 0 0 1-12-28z m102 106a73 73 0 0 0 48-15 52 52 0 0 0 18-42h-23a38 38 0 0 1-44 37 47 47 0 0 1-29-8 28 28 0 0 1-11-23 21 21 0 0 1 8-16 139 139 0 0 1 49-15 96 96 0 0 0 43-18 42 42 0 0 0 14-34 44 44 0 0 0-20-39 88 88 0 0 0-50-14 81 81 0 0 0-53 17 58 58 0 0 0-20 46h22a38 38 0 0 1 15-32 60 60 0 0 1 37-11 56 56 0 0 1 35 8 28 28 0 0 1 12 24 24 24 0 0 1-11 21 116 116 0 0 1-39 13 119 119 0 0 0-52 19 39 39 0 0 0-12 30 46 46 0 0 0 18 37 71 71 0 0 0 45 15z m121-5v-178h-24v178z m66 0l56-150 55 150h33v-178h-23v148h0l-55-148h-19l-56 148h0v-148h-22v178z m138-290h-28v14h28z m-55 0h-28v14h28z m-56 0h-28v14h28z m-56 0h-27v14h27z m-55 0h-28v14h28z m-56 0h-27v14h27z m-55 0h-28v14h28z m-56 0h-28v14h28z m-55 0h-28v14h28z m-56 0h-28v14h28z m529 0l-2 13a45 45 0 0 1 21 11l9-10a59 59 0 0 0-28-13z m-587 5a66 66 0 0 0-24 19l12 9a46 46 0 0 1 18-16z m633 35l-12 5a66 66 0 0 1 6 25l14 0a83 83 0 0 0-8-30z m-670 11a87 87 0 0 0-3 24v6h14v-6a71 71 0 0 1 2-20z m677 46h-14v28h14z m-666 11h-14v28h14z m666 44h-14v28h14z m-666 12h-14v28h14z m666 44h-14v28h14z m-666 12h-14v27h14z m666 43h-14v28h14z m-666 12h-14v16l11 13 10-10-7-8z m27 39l-10 10 20 20 10-10z m639 5h-14v28h14z m-601 36l-10 9 19 20 10-9z m601 20h-14v8a76 76 0 0 1-2 18l14 3a89 89 0 0 0 2-21z m-562 21l-10 9 19 20 10-9z m537 27a50 50 0 0 1-18 17l6 12a68 68 0 0 0 23-20z m-499 12l-10 10 12 13h15v-14h-9z m462 9h-28v14h28z m-56 0h-28v14h28z m-55 0h-28v14h28z m-56 0h-28v14h28z m-55 0h-28v14h28z m-56 0h-28v14h28z m-56 0h-27v14h27z m-55 0h-28v14h28z" horiz-adv-x="1000" />

<glyph glyph-name="expand-screen" unicode="&#xe83f;" d="M833 629c-1 30-25 54-54 54h-246l300-300v246z m-666-558c0-29 25-53 54-54h246l-300 300v-246z m0 779c0 0 0 0 0 0-92 0-167-75-167-167 0 0 0 0 0 0v-833h833c0 0 0 0 0 0 92 0 167 75 167 167 0 0 0 0 0 0v833h-833z m733-833c0 0 0 0 0 0 0-37-30-67-67-67 0 0 0 0 0 0h-733v733c0 0 0 0 0 0 0 37 30 67 67 67 0 0 0 0 0 0h733v-733z" horiz-adv-x="1000" />

<glyph glyph-name="experto" unicode="&#xe840;" d="M499 305c65 0 220 79 220 271 0 27-1 52-2 76-4 48-13 91-38 123-31 44-87 71-180 71-96 0-150-27-180-71-25-32-35-75-38-123-3-24-3-49-3-76 0-194 156-271 221-271z m136 451c-11-29-19-46-30-76-78 24-131 24-212 0-11 30-18 47-29 76 98 33 172 33 271 0z m-325-141c3-6 14-27 30-29 19-2 51 67 158 67 107 0 139-70 158-67 17 2 27 23 29 29 0-13 1-27 1-40 0-93-40-151-74-183-43-40-92-54-114-54s-70 15-114 54c-35 32-75 91-75 183 1 15 1 27 1 40z m601-588c-11 70-35 161-81 193-32 22-144 80-190 106h-1c-5 3-13 3-18-1-24-20-51-32-80-39-5-2-10-5-12-10l-29-76-29 77c-2 5-6 9-11 10-29 6-55 20-81 39-5 4-11 5-17 1-47-24-160-85-192-108-52-35-77-166-80-192 0-2 0-5 1-7 1-4 18-49 108-87 5 6 12 11 19 13-10 4-17 10-23 18-7 14-9 30-1 43 22 42 66 68 114 68 44 0 84-22 108-58h169c4 8 9 14 16 20 24 24 56 38 91 38v0 0c47 0 92-26 114-67 8-14 8-30-1-43-5-9-13-16-23-19 7-2 15-7 20-15 89 37 106 84 107 88 2 4 2 7 2 8z m-182-126v0h-70c-1 3-3 11-3 30 0 19 2 27 3 31h70c3 0 4 1 4 2 1 2 1 4 0 4-14 26-41 41-69 41-21 0-40-9-55-24-7-7-13-17-17-25h-184c-11 28-40 49-73 49-29 0-56-16-69-41-1-1-1-3 0-3 1-2 2-3 4-3v0h69c2-4 4-11 4-31 0-18-2-27-4-30h-69c-3 0-4-1-4-3-1-1-1-3 0-3 13-26 40-41 69-41v0c20 0 40 9 55 24 7 7 13 17 17 25h184c11-28 40-49 73-49v0c28 0 55 16 69 41 1 1 1 3 0 3-1 3-1 3-4 3z" horiz-adv-x="1000" />

<glyph glyph-name="facebook-and-twitter" unicode="&#xe841;" d="M521 850h-130c-146 0-240-97-240-246v-113h-130c-12 0-21-9-21-21 0 0 0 0 0 0v-164c0-11 9-21 21-21 0 0 0 0 0 0h130v-414c0-12 9-21 20-21 0 0 0 0 0 0h171c11 0 20 9 20 21 0 0 0 0 0 0v414h153c0 0 0 0 0 0 11 0 20 10 20 21 0 0 0 0 0 0v164c0 12-9 21-20 21 0 0 0 0 0 0h-153v96c0 46 11 70 71 70h88c0 0 0 0 0 0 11 0 20 9 20 20 0 0 0 0 0 0v153c0 11-9 20-20 20 0 0 0 0 0 0z m1396-158c-40-19-87-32-136-38 47 30 85 76 103 131-43-25-94-45-149-56-47 46-110 75-179 75-133 0-241-108-241-241 0-19 2-38 6-56-201 12-377 108-496 252-21-33-34-75-34-120 0-83 42-156 106-200-40 1-77 12-110 31l1-4c0-116 83-213 192-236-17-6-39-9-62-9-16 0-32 2-47 5 33-97 122-165 227-167-81-65-185-104-298-104-1 0-1 0-2 0-20 1-40 2-59 4 106-68 234-109 371-109 1 0 1 0 1 0 444 0 686 367 686 686v30c47 35 87 76 119 124z" horiz-adv-x="1906" />

<glyph glyph-name="facturas" unicode="&#xe842;" d="M805 834h-696v-242h60c9 10 20 16 34 16 25 0 45-21 45-46s-20-46-45-46c-14 0-25 7-34 16h-60v-363h63c8 7 19 11 30 11 25 0 46-20 46-45s-21-45-46-45c-14 0-27 7-35 18h-58v-152c0-50 40-90 90-90h696v877c0 50-40 91-90 91z m-424-223h363c17 0 30-14 30-31s-13-30-30-30h-363c-17 0-30 14-30 30s13 31 30 31z m0-152h363c17 0 30-13 30-30s-13-30-30-30h-363c-17 0-30 13-30 30s13 30 30 30z m194-211h-194c-17 0-30 13-30 30s13 30 30 30h194c16 0 30-12 30-30 0-17-14-30-30-30z m232-244c-14-33-38-47-78-47-25 0-46 6-62 22-15 14-24 33-28 54h-14c-9 0-15 7-15 16 0 9 6 17 15 17h11c0 4 0 8 0 10 0 2 0 3 0 8h-11c-9 0-15 8-15 17s6 18 15 18h15c5 23 14 44 29 58 16 15 36 22 60 22 39 0 64-16 77-48 1-3 1-6 1-9 0-7-4-13-12-16l0-1h0c-2-1-5-1-8-1-7 0-13 5-17 12-8 20-19 28-41 28-26 0-45-14-53-45h83c9 0 15-8 15-17 0-10-6-18-15-18h-88c0-4 0-5 0-8 0-2 0-6 0-10h73c10 0 15-7 15-17 0-9-5-16-15-16h-69c7-29 27-41 54-41 24 0 34 7 41 25v0 0c4 8 10 12 17 12 3 0 5 0 7-1 8-2 14-9 14-17 0-2 0-5-1-7z" horiz-adv-x="1000" />

<glyph glyph-name="family" unicode="&#xe843;" d="M1000-150h-1000v1000h1000v-1000z m-128 597c-15 16-33 26-51 33 9 19 14 39 14 61 0 78-63 140-140 140-22 0-42-4-60-13-6 19-18 38-33 53-55 56-144 56-199 1-16-15-26-33-33-51-19 9-39 14-61 14-78 0-140-63-140-140 0-22 4-42 13-60-19-6-38-18-53-33-56-55-56-144-1-199 15-16 33-26 51-33-9-19-14-39-14-61 0-78 63-140 140-140 22 0 42 4 60 13 6-19 18-38 33-53 55-55 143-55 198 0 15 15 26 32 33 51 18-9 39-14 61-14 77 0 140 63 140 140 0 21-5 41-13 59 19 7 38 18 53 34 57 54 57 143 2 198z" horiz-adv-x="1000" />

<glyph glyph-name="familypopout" unicode="&#xe844;" d="M872 447c-15 16-33 26-51 33 9 19 14 39 14 61 0 78-63 140-140 140-22 0-42-4-60-13-6 19-18 38-33 53-55 56-144 56-199 1-16-15-26-33-33-51-19 9-39 14-61 14-78 0-140-63-140-140 0-22 4-42 13-60-19-6-38-18-53-33-56-55-56-144-1-199 15-16 33-26 51-33-9-19-14-39-14-61 0-78 63-140 140-140 22 0 42 4 60 13 6-19 18-38 33-53 55-55 143-55 198 0 15 15 26 32 33 51 18-9 39-14 61-14 77 0 140 63 140 140 0 21-5 41-13 59 19 7 38 18 53 34 57 54 57 143 2 198z" horiz-adv-x="1000" />

<glyph glyph-name="favourite" unicode="&#xe845;" d="M1050 467l-371 62-154 321-155-321-370-62 278-247-93-370 340 185 339-185-92 370 278 247z" horiz-adv-x="1063" />

<glyph glyph-name="favourite-empty" unicode="&#xe846;" d="M1050 467l-371 62-154 321-155-321-370-62 277-247-92-370 340 185 339-185-92 370z m-524-313l-199-110 54 218-163 145 218 37 90 189 91-189 218-37-163-145 54-218z" horiz-adv-x="1063" />

<glyph glyph-name="fibra" unicode="&#xe847;" d="M500 845c-273 0-495-222-495-495s222-495 495-495 495 222 495 495c0 273-222 495-495 495z m233-495c-4 76-32 145-78 200l-39-217c-2-10-5-19-9-29-18-43-60-70-107-70-16 0-31 3-46 9-59 25-86 94-61 153 4 9 9 18 15 26l148 209c-47 25-101 39-158 39-97 0-185-41-246-107 72 117 201 195 348 195 225 0 408-183 408-408h-175z m-301 55c-5-6-9-13-12-20-19-45 1-96 46-115s96 1 115 46c3 7 5 15 6 23h0l71 384-226-318z" horiz-adv-x="1000" />

<glyph glyph-name="filtro" unicode="&#xe848;" d="M941 791c0 32-26 58-59 59h-823c-33-1-59-27-59-59v-88l382-382v-294l177-177v471l382 382v88z" horiz-adv-x="938" />

<glyph glyph-name="file-pdf" unicode="&#xe849;" d="M582 615h183l-235 235v-176c0-1 0-2 0-3 0-30 23-54 52-56z m-381-282c-4 2-9 4-14 5-6 1-12 2-17 2l-30 0v-71h30c0 0 1 0 2 0 5 0 10 1 15 1 5 1 10 3 14 5 4 3 7 7 10 11 2 5 4 12 4 18s-2 13-4 19c-3 4-6 7-10 10z m233-18c-6 7-13 12-21 15-4 2-9 4-14 4l0 0c-6 1-12 2-18 2 0 0 0 0 0 0h-35v-148h44c8 0 15 1 22 4 7 2 13 7 18 12 6 6 10 13 13 21 4 10 5 21 5 32 0 0 0 1 0 2 0 0 0 0 0 1 0 10-1 21-3 31-2 9-6 17-12 24z m37 359v176h-471v-940c0-33 26-59 59-59h705v705h-176c0 0 0 0 0 0-65 0-117 53-117 118z m-211-398c-3-9-8-17-14-24-7-7-15-13-25-17-4-2-9-3-14-4l-9-1h-58v-85h-52v235h95c1 0 2 0 3 0 13 0 25-2 36-7 9-3 17-9 24-16 6-7 11-15 14-24 3-9 5-18 5-28s-2-20-5-29z m234-60c-5-15-12-27-20-38-9-10-20-19-33-25-14-6-29-9-45-9-1 0-2 0-3 0l-99 0v236h99c1 0 1 0 2 0 14 0 28-3 42-8 12-4 23-12 33-21 9-10 17-23 22-36 5-15 8-32 8-49 0-1 0-2 0-3 0 0 0-1 0-1 0-16-2-32-7-47z m183 120h-96v-54h80v-40h-80v-97h-52v235h147z" horiz-adv-x="750" />

<glyph glyph-name="filtro-activado" unicode="&#xe84a;" d="M494 463v187h-447c-25 3-47-19-47-44v-72l306-306v-234l141-141v375l234 235h-187z m162 387c0 0 0 0 0 0-137 0-250-109-250-247 0-137 110-250 247-250 138 0 250 110 250 247 0 138-109 250-247 250z m128-156l-150-188c-9-9-21-9-31-3l-3 3-75 94c-6 9-6 22 3 31l10 10c9 9 21 9 31 0l47-50 134 134c9 9 25 9 31 0 3-3 7-9 7-16 3-6 0-9-4-15z" horiz-adv-x="903" />

<glyph glyph-name="full-screen" unicode="&#xe84b;" d="M167 850c0 0 0 0 0 0-92 0-167-75-167-167 0 0 0 0 0 0v-833h833c0 0 0 0 0 0 92 0 167 75 167 167 0 0 0 0 0 0v833h-833z m733-833c0 0 0 0 0 0 0-37-30-67-67-67 0 0 0 0 0 0h-733v733c0 0 0 0 0 0 0 37 30 67 67 67 0 0 0 0 0 0h733v-733z m-372 296c11-11 26-18 43-18s32 7 43 18l128 128 91-91v273c-1 33-27 60-60 60h-273l91-91-128-128c-11-11-18-26-18-43s7-32 18-43z" horiz-adv-x="1000" />

<glyph glyph-name="fun" unicode="&#xe84c;" d="M1000-150h-1000v1000h1000v-1000z m-167 500c42 43 68 101 68 165 0 130-106 236-236 236-64 0-122-26-165-68-43 42-101 68-165 68-130 0-236-106-236-236 0-64 26-122 68-165-42-43-68-101-68-165 0-130 106-236 236-236 64 0 122 26 165 68 43-42 101-68 165-68 130 0 236 106 236 236 0 64-26 122-68 165z" horiz-adv-x="1000" />

<glyph glyph-name="funpopout" unicode="&#xe84d;" d="M833 350c42 43 68 101 68 165 0 130-106 236-236 236-64 0-122-26-165-68-43 42-101 68-165 68-130 0-236-106-236-236 0-64 26-122 68-165-42-43-68-101-68-165 0-130 106-236 236-236 64 0 122 26 165 68 43-42 101-68 165-68 130 0 236 106 236 236 0 64-26 122-68 165z" horiz-adv-x="1000" />

<glyph glyph-name="futbol" unicode="&#xe84e;" d="M836 441h0c-1 1-2 1-2 2l-135 135a32 32 0 0 1-23 9h-368a32 32 0 0 1-32-31h0a32 32 0 0 1 32-32h246l-68-68-141-141a32 32 0 0 1 0-45h0a32 32 0 0 1 44 0l112 111 15-15-294-293a32 32 0 0 1 0-45h0a32 32 0 0 1 45 0l293 294 30 30 123 122 56-55-82-82a32 32 0 1 1 45-44l102 102c0 0 1 1 2 1h0a32 32 0 0 1 0 45z m-157 186a63 63 0 1 1-89 0 63 63 0 0 1 89 0z m-236-500a63 63 0 1 1 89 0 63 63 0 0 1-89 0z" horiz-adv-x="1000" />

<glyph glyph-name="gestionar-linea-amena" unicode="&#xe84f;" d="M733 85l-48-31v-113h-590v816h590v-179l91 157v67c0 25-21 46-46 46h-680c-25 0-45-21-45-46v-907c0-25 20-45 45-45h680c25 0 46 20 46 45v250l-22-37c-5-9-13-17-22-23v0z m268 553c-1 4-11 40-69 74-57 33-94 23-98 22-5-2-10-5-13-10l-283-491c-2-3-3-7-3-10l-11-177c0-9 4-17 12-21 7-5 16-5 23 0l149 98c3 2 5 5 7 8l283 491c3 4 4 10 3 16v0z m-384-534c-8 6-16 11-26 17-9 5-18 10-27 13l3 53c12-1 29-6 52-19 22-13 35-26 42-35l-44-29z m-368 500l-42 34c-11 8-26 6-35-3l-24-28c-5-5-7-12-7-19 1-7 4-13 10-18l74-58c18-14 44-13 60 3l130 131c7 6 10 14 10 23s-3 18-10 24l-15 15c-13 13-34 13-47 0l-104-104z m0-215l-42 33c-11 8-26 7-35-3l-24-27c-5-6-7-13-7-20 1-7 4-13 10-17l74-59c18-14 44-13 60 3l130 131c7 6 10 15 10 23s-3 18-10 24l-15 15c-13 13-34 13-47 0l-104-103z m0-216l-42 33c-11 8-26 7-35-3l-24-27c-5-5-7-12-7-19 1-7 4-14 10-18l74-59c18-14 44-13 60 4l130 130c7 6 10 15 10 24s-3 17-10 23l-15 15c-13 13-34 13-47 0l-104-103z" horiz-adv-x="1000" />

<glyph glyph-name="guias" unicode="&#xe850;" d="M735 764c-88 0-168-22-235-62-67 40-147 62-235 62h-265v-580c0-29 24-52 53-52h212c47 0 92-8 132-24 30-12 82-49 82-49 10-7 13-9 22-9s12 2 22 9c0 0 52 37 82 49 40 16 85 24 132 24h212c29 0 53 24 53 52v580h-267z m-88-288v144c0 16 13 29 29 29h118c16 0 29-13 29-29v-144h88l-144-141c-8-8-19-14-32-14s-24 5-32 14l-144 141h88z m-559 173h235c16 0 29-13 29-29s-13-29-29-29h-235c-16 0-29 13-29 29s13 29 29 29z m0-115h235c16 0 29-13 29-29s-13-29-29-29h-235c-16 0-29 13-29 29s13 29 29 29z m0-115h118c16 0 29-13 29-29s-13-29-29-29h-118c-16 0-29 13-29 29s13 29 29 29z m853-201c0-16-13-29-29-29h-176c-59 0-108-9-155-29-22-9-63-34-63-34-5-3-12-5-18-5s-13 1-18 5c0 0-41 25-63 34-47 19-96 29-155 29h-176c-16 0-29 13-29 29v29h206c88 0 169-22 235-62 67 40 147 62 235 62h206v-29z" horiz-adv-x="1000" />

<glyph glyph-name="guias-ayuda" unicode="&#xe851;" d="M588 733c-49 0-88-40-88-88 0 49-40 88-88 88h-412v-706c0-33 26-60 59-60h882c32 0 59 26 59 60v706h-412z m-309-607c-8-7-18-11-28-11-11 0-21 4-29 11s-12 17-12 30c0 11 4 21 12 29s18 12 29 12 21-4 29-12c8-8 12-17 12-29-1-13-5-23-13-30z m102 252c-6-12-14-22-22-30-9-8-24-23-46-43-6-6-11-11-15-15s-6-8-8-12c-2-4-3-7-4-11s-2-10-4-19c-3-19-14-28-32-28-9 0-17 3-24 9-6 6-10 15-10 27 0 15 2 28 7 40 5 11 11 21 19 29s18 18 32 30c12 10 20 18 25 23s10 11 13 17c4 6 5 13 5 21 0 15-5 27-16 37s-25 15-42 15c-20 0-35-5-44-15s-17-25-24-45c-6-21-18-31-35-31-10 0-19 4-26 11s-10 15-10 23c0 17 6 35 17 52 11 18 27 32 48 44s46 17 74 17c26 0 50-5 70-15s36-23 47-40c11-17 16-35 16-54-2-12-5-26-11-37z m384-263h-147c-16 0-29 13-29 29s13 29 29 29h147c16 0 29-13 29-29s-13-29-29-29z m117 118h-265c-16 0-29 13-29 29s13 29 29 29h265c16 0 29-13 29-29 1-16-12-29-29-29z m0 117h-265c-16 0-29 13-29 29s13 29 29 29h265c16 0 29-13 29-29 1-15-12-29-29-29z m0 118h-265c-16 0-29 13-29 29s13 29 29 29h265c16 0 29-13 29-29 1-16-12-29-29-29z" horiz-adv-x="1000" />

<glyph glyph-name="hacerse-amena" unicode="&#xe852;" d="M71 622h789v-310h71v460c0 13-11 24-25 24h-881c-14 0-25-11-25-24v-773c0-13 11-24 25-24h630v71h-584v576z m265 133c24 0 43-19 43-43s-19-44-43-44c-24 0-44 20-44 44s20 43 44 43z m-111 0c24 0 44-19 44-43s-20-44-44-44c-24 0-43 20-43 44s19 43 43 43z m-110 0c24 0 43-19 43-43s-19-44-43-44c-24 0-44 20-44 44s20 43 44 43z m887-669l-286 211c-5 3-11 3-16 0-5-3-7-9-6-15l85-349c1-6 6-10 12-10l4 0c4 1 8 4 10 8l40 95 70-109c9-14 28-18 42-9s18 28 9 42l-69 107 98 4c6 0 11 4 12 10 2 5 0 11-5 15z" horiz-adv-x="1000" />

<glyph glyph-name="hamburgesa-menu" unicode="&#xe853;" d="M0 68h998v-116h-998v116z m0 679h998v-115h-998v115z m3-248h87l65-192h1l62 192h87v-279h-58v198h-1l-69-199h-47l-69 196h-1v-196h-57v280z m396-192c1-18 5-31 14-39s20-11 36-11c11 0 20 3 29 8s13 12 15 18h48c-7-24-19-41-36-52-16-11-36-16-59-16-16 0-30 2-43 7s-24 13-32 22c-9 9-16 20-21 33-5 13-7 28-7 43s2 29 7 42c6 13 12 25 22 34s20 17 32 23c13 5 27 8 42 8 17 0 32-3 45-9s24-16 31-27c9-11 14-24 18-39 4-14 6-29 5-45h-146z m90 35c-2 14-8 25-14 33s-17 10-30 10c-10 0-16-1-23-4-5-3-11-6-14-11s-6-9-7-14c-1-5-2-9-2-12h90z m89 80h53v-28h1c7 12 16 20 28 26 10 5 22 7 34 7 15 0 27-2 36-6s18-10 23-17 10-16 12-26c2-11 3-22 3-34v-125h-56v115c0 17-2 29-7 37s-14 12-28 12c-15 0-26-4-34-14-6-8-9-23-9-44v-106h-56v203z m422-202h-53v28h-1c-7-12-16-20-28-26-10-5-22-7-34-7-15 0-27 2-36 6s-18 10-23 17-10 16-12 26c-2 11-3 22-3 34v124h56v-115c0-17 2-29 7-38s14-11 28-11c15 0 26 4 34 14 6 8 9 23 9 44v106h56v-202z m-79 230h-39l37 56h62l-60-56z" horiz-adv-x="1000" />

<glyph glyph-name="hand-scroll" unicode="&#xe854;" d="M839 98c75 16 78 19 80 96 0 15-2 31-3 47-10 107-78 256-97 317-16 51-81 22-66-22 10-25 17-48 24-64s-14-24-21-8c-6 19-23 64-39 108-17 47-87 22-70-25 12-36 9-25 20-58 5-14-14-22-20-8-3 10-25 69-34 96s-32 40-65 29c-32-11-37-36-28-62 8-22 21-55 28-77 7-15-15-22-21-6-29 73-60 164-86 237-5 15-11 30-16 44-19 53-116 17-95-36 0 0 12-34 18-51 50-138 135-375 144-397 10-25-79 51-114 84-20 19-42 24-64 2-20-21-9-41 8-66 16-25 122-172 251-251 29-18 49-22 77-4 58 41 122 61 189 75z m78-15c-104-8-211-52-287-105 17-45 31-86 47-130 95 35 289 105 289 105l-49 130z m-598 534c4 6 4 17-3 22-16 13-28 30-35 49-8 25-6 53 7 76s32 41 59 50c25 8 53 6 76-6s41-33 50-60c7-18 7-39 0-59-3-8 2-17 11-19 8-3 18 2 19 11 5 17 6 36 5 55 1 0 3 0 5 2 12 0 23 1 34 3s22 3 33 4c11 2 22 3 33 3s21 2 32 2 43 2 61 2c19 0 38-2 55-4 8 0 17-1 25-1 8-2 16-2 22-3 14 0 26-2 36-3 20-3 31-7 31-7s-11 4-30 10c-9 3-22 6-34 9-6 2-14 3-22 6-8 2-16 4-25 5-17 5-36 6-55 9-20 4-40 5-62 7-11 0-22 1-33 1s-23 0-34 0c-11 0-24 0-35 0s-23 0-34-1c-5 0-9 0-14-2-13 24-31 42-55 55-31 15-67 19-100 9-34-11-61-33-78-64-6-12-11-26-12-39-16-3-30-8-43-11-17-3-28-8-37-9-11-3-19-6-24-8l-34 89-80-183 180-86-34 94c4 2 12 6 22 9 9 5 20 10 32 14 8 4 18 7 27 11 9-17 20-32 36-43 3-2 6-3 9-3 7-2 11 0 13 4z" horiz-adv-x="1000" />

<glyph glyph-name="home" unicode="&#xe855;" d="M900 542v-592h-800v592l400 208 400-208z m100 308h-1000v-1000h1000v1000z" horiz-adv-x="1000" />

<glyph glyph-name="homepopout" unicode="&#xe856;" d="M900 542v-592h-800v592l400 208 400-208z" horiz-adv-x="1000" />

<glyph glyph-name="ico_4g_plus" unicode="&#xe857;" d="M327 506v-222h45v-45h-45v-83h-54v83h-150v55l150 211z m-55-68l-105-154h106v154z m282 84a165 165 0 0 0 104-33 130 130 0 0 0 49-90h-61a74 74 0 0 1-31 52 101 101 0 0 1-61 19 96 96 0 0 1-79-37 157 157 0 0 1-31-98 155 155 0 0 1 30-99 98 98 0 0 1 82-37 96 96 0 0 1 72 26 104 104 0 0 1 26 72h-95v47h152v-188h-40l-10 42a153 153 0 0 0-47-39 135 135 0 0 0-60-12 159 159 0 0 0-123 53 191 191 0 0 0-48 134 192 192 0 0 0 48 134 158 158 0 0 0 123 54z m286-13v-66h67v-37h-67v-67h-34v67h-68v37h68v66z" horiz-adv-x="1000" />

<glyph glyph-name="ico_almacenamiento_memoria" unicode="&#xe858;" d="M265 821h353a19 19 0 0 0 14-6l196-196a21 21 0 0 0 5-14v-628a98 98 0 0 0-98-98h-470a98 98 0 0 0-98 98v746a98 98 0 0 0 98 98z m92-367a140 140 0 0 0 88-27 110 110 0 0 0 42-76h-52a63 63 0 0 1-26 44 83 83 0 0 1-52 16 81 81 0 0 1-67-32 131 131 0 0 1-25-83 131 131 0 0 1 25-83 83 83 0 0 1 69-31 80 80 0 0 1 61 22 87 87 0 0 1 22 60h-81v40h129v-159h-34l-8 35a130 130 0 0 0-40-32 117 117 0 0 0-51-10 135 135 0 0 0-104 44 163 163 0 0 0-41 114 164 164 0 0 0 41 113 135 135 0 0 0 104 45z m339-7a95 95 0 0 0 65-20 69 69 0 0 0 23-55 66 66 0 0 0-43-64v0a67 67 0 0 0 42-26 86 86 0 0 0 14-52 74 74 0 0 0-28-62 127 127 0 0 0-81-23h-140v302z m-8-127a45 45 0 0 1 30 11 39 39 0 0 1 13 32c0 27-14 41-43 41h-88v-83z m7-132a50 50 0 0 1 36 12 46 46 0 0 1 14 36 43 43 0 0 1-14 35 54 54 0 0 1-36 11h-95v-94z" horiz-adv-x="1000" />

<glyph glyph-name="ico_camara" unicode="&#xe859;" d="M952 642h-702v35c0 27-21 48-48 48h-71c-27 0-48-21-48-48v-35h-35c-27 0-48-21-48-48v-592c0-27 21-48 48-48h904c27 0 48 21 48 48v592c0 27-21 48-48 48z m-702-161c0-27-21-48-48-48h-71c-27 0-48 21-48 48v29c0 28 21 48 48 48h71c27 0 48-20 48-48v-29z m281-423c-127 0-229 102-229 230s102 229 229 229 229-102 229-229-102-230-229-230z" horiz-adv-x="1000" />

<glyph glyph-name="ico_duracion_bateria" unicode="&#xe85a;" d="M708 725h-62c0 46-38 83-83 83h-125c-46 0-84-37-84-83h-62c-46 0-84-37-84-83v-688c0-46 38-83 84-83h416c46 0 84 37 84 83v688c0 46-38 83-84 83z m-208-646c-127 0-229 102-229 229s102 230 229 230 229-103 229-230-102-229-229-229l0 0z m0 417c-104 0-187-83-187-188s83-187 187-187 188 83 188 187-84 188-188 188z m29-208h-154v41h138l77 77 29-29-90-89z" horiz-adv-x="1000" />

<glyph glyph-name="ico_tamano_pantalla" unicode="&#xe85b;" d="M917 819c29 0 52-23 52-52v-834c0-29-23-52-52-52h-834c-29 0-52 23-52 52v834c0 29 23 52 52 52h834m0 31h-834c-45 0-83-37-83-83v-834c0-46 38-83 83-83h834c46 0 83 37 83 83v834c0 46-37 83-83 83z" horiz-adv-x="1000" />

<glyph glyph-name="ico_telefonofijo" unicode="&#xe85c;" d="M1192 850h-1192v-885a115 115 0 0 1 115-115h1193v885a115 115 0 0 1-116 115z m-884-654h68a37 37 0 0 0 36-33l11-128a31 31 0 0 0-31-31h-84c-85 0-154 163-154 365s69 366 154 366h84a31 31 0 0 0 31-31l-11-128a37 37 0 0 0-36-34h-68c-22 0-39-77-39-173s17-173 39-173z m846-154a39 39 0 0 0-39-38h-461a39 39 0 0 0-39 38h0a39 39 0 0 0 39 39h461a39 39 0 0 0 39-39z m0 193a39 39 0 0 0-39-39h-461a39 39 0 0 0-39 39h0a39 39 0 0 0 39 38h461a39 39 0 0 0 39-38z m0 192a39 39 0 0 0-39-38h-461a39 39 0 0 0-39 38v269a39 39 0 0 0 39 39h461a39 39 0 0 0 39-39z" horiz-adv-x="1308" />

<glyph glyph-name="ico_terminal_3banda" unicode="&#xe85d;" d="M764 406a264 264 0 0 0-121-223l20-20a291 291 0 0 1 16 473l-20-20a263 263 0 0 0 105-210z m-426-242l20 20a263 263 0 0 0-17 432l-20 20a291 291 0 0 1 17-473z m287 242a125 125 0 0 0-86-119l22-21a153 153 0 0 1 18 270l-21-19a125 125 0 0 0 67-111z m-186-139l22 21a124 124 0 0 0-19 229l-21 20a153 153 0 0 1 18-270z m59-28a89 89 0 0 0 61-20 71 71 0 0 0 23-54 56 56 0 0 0-10-31 69 69 0 0 0-28-24v0a59 59 0 0 0 37-23 72 72 0 0 0 13-44 76 76 0 0 0-26-60 99 99 0 0 0-69-24 93 93 0 0 0-67 24 87 87 0 0 0-25 65v-1h34a65 65 0 0 1 17-45 56 56 0 0 1 41-16 63 63 0 0 1 32 8 51 51 0 0 1 28 46 48 48 0 0 1-16 38 66 66 0 0 1-44 15l-19 0v27h13a59 59 0 0 1 39 13 42 42 0 0 1 15 32 41 41 0 0 1-13 32 52 52 0 0 1-36 13 47 47 0 0 1-38-16 68 68 0 0 1-16-45h-31a99 99 0 0 0 24 66 83 83 0 0 0 61 24z" horiz-adv-x="1000" />

<glyph glyph-name="ico_terminal_4g" unicode="&#xe85e;" d="M383 506v-222h45v-45h-45v-83h-54v83h-150v55l150 211z m-56-68l-105-154h106v154z m282 84a165 165 0 0 0 105-33 130 130 0 0 0 49-90h-62a74 74 0 0 1-30 52 101 101 0 0 1-62 19 96 96 0 0 1-79-37 157 157 0 0 1-30-98 155 155 0 0 1 29-99 98 98 0 0 1 82-37 96 96 0 0 1 72 26 104 104 0 0 1 26 72h-95v47h152v-188h-40l-9 42a153 153 0 0 0-48-39 135 135 0 0 0-60-12 159 159 0 0 0-123 53 191 191 0 0 0-48 134 192 192 0 0 0 48 134 158 158 0 0 0 123 54z" horiz-adv-x="1000" />

<glyph glyph-name="ico_terminal_android" unicode="&#xe85f;" d="M364 733l36-64c-67-30-108-94-111-166h422c-3 72-44 136-111 166l36 64c3 3 0 6 0 6 0 0 0 0 0 0-3 0-3 0-5 0l-37-67c-58 25-127 25-186 0l-36 64c-3 0-3 0-5 0-3 0-3-3-3-3 0-2 0-2 0 0l0 0z m36-122c11 0 19-8 19-19 0 0 0 0 0 0 0-11-8-20-19-20s-19 9-19 20 8 19 19 19c0 0 0 0 0 0z m200 0c11 0 19-8 19-19s-8-20-19-20c-11 0-19 9-19 20s8 19 19 19l0 0z m-311-133v-320c3-19 17-33 36-36h50v-108c-3-28 19-50 44-50 28 0 48 25 45 50v108h72v-108c-3-25 17-47 42-50 25-3 47 17 50 42 0 2 0 5 0 11v108h50c19 3 33 19 36 36v317h-425z m-72 5l0 0c27 0 47-25 44-50 0 0 0 0 0 0v-189c0-25-19-50-44-50 0 0 0 0 0 0l0 0c-25 0-48 25-45 50v189c-3 28 20 50 45 50z m566 0l0 0c28-2 48-25 45-50v-189c0-25-20-50-45-50l0 0c-25 0-47 23-44 50 0 0 0 0 0 0v189c-3 28 17 50 44 50 0 0 0 0 0 0z" horiz-adv-x="1000" />

<glyph glyph-name="ico_terminal_bluetooth" unicode="&#xe860;" d="M649 469l-159 159h-27v-211l-128 127-39-38 155-156-155-156 39-38 128 127v-211h27l159 159-120 119z m-131 53l53-53-53-52z m53-291l-53-53v105z m0 0" horiz-adv-x="1000" />

<glyph glyph-name="ico_terminal_bberryos" unicode="&#xe861;" d="M250 446h82c85 0 92 53 92 70a52 52 0 0 1-16 37 81 81 0 0 1-58 19h-79a10 10 0 0 1-9-8l-22-105a11 11 0 0 1 2-8 10 10 0 0 1 7-4m236-193h-78a9 9 0 0 1-10-8l-22-106a9 9 0 0 1 2-8 9 9 0 0 1 7-3h84c85 0 91 53 91 69s-5 55-73 55m-92 109c0 13-5 55-72 55h-79a9 9 0 0 1-9-7l-23-106a11 11 0 0 1 2-8 10 10 0 0 1 8-4h83c85 0 92 53 92 70m291-51h-78a9 9 0 0 1-10-7l-22-96a9 9 0 0 1 2-8 10 10 0 0 1 7-4h82c80 0 92 40 92 65 0 19-9 50-73 50m29 164h-77a9 9 0 0 1-9-7l-23-97a9 9 0 0 1 2-8 9 9 0 0 1 8-3h81c80 0 92 40 92 64 0 19-9 51-72 51m-202-58h-79a10 10 0 0 1-9-7l-23-106a10 10 0 0 1 10-12h81c85 0 92 53 92 70s-5 55-72 55m-72 29h82c85 0 92 53 92 70s-5 55-73 55h-80a10 10 0 0 1-9-8l-22-105a10 10 0 0 1 9-12" horiz-adv-x="1000" />

<glyph glyph-name="ico_terminal_gps" unicode="&#xe862;" d="M500 725a167 167 0 0 1-167-167c0-47 46-130 46-130l115-195 120 192s53 81 53 134a167 167 0 0 1-167 166z m0-271a109 109 0 1 0 109 110 109 109 0 0 0-109-110z m-180-249a95 95 0 0 0 58-17 72 72 0 0 0 28-49h-27a50 50 0 0 1-19 33 65 65 0 0 1-40 11 61 61 0 0 1-49-23 95 95 0 0 1-19-61 86 86 0 0 1 19-56 61 61 0 0 1 49-23 64 64 0 0 1 46 17 58 58 0 0 1 18 45v3h-64v22h87v-104h-16l-7 25a67 67 0 0 0-28-22 83 83 0 0 0-36-8 88 88 0 0 0-67 28 101 101 0 0 0-28 71 117 117 0 0 0 25 78 83 83 0 0 0 70 30z m214-5a61 61 0 0 0 44-14 56 56 0 0 0 16-44 53 53 0 0 0-58-59h-64v-81h-28v198z m-6-95a45 45 0 0 1 28 9 34 34 0 0 1 11 28c0 24-14 36-43 36h-52v-72z m165 100a80 80 0 0 0 53-17 56 56 0 0 0 20-46h-25a43 43 0 0 1-49 41 54 54 0 0 1-33-8 29 29 0 0 1-11-26 24 24 0 0 1 8-18 164 164 0 0 1 55-17 105 105 0 0 0 48-20 47 47 0 0 0 16-37 51 51 0 0 0-23-43 98 98 0 0 0-56-16 89 89 0 0 0-59 19 63 63 0 0 0-22 51h24a43 43 0 0 1 16-35 65 65 0 0 1 42-13 63 63 0 0 1 37 9 31 31 0 0 1 13 28 28 28 0 0 1-13 23 126 126 0 0 1-43 14 131 131 0 0 0-57 22 43 43 0 0 0-14 33 51 51 0 0 0 20 42 83 83 0 0 0 53 14z" horiz-adv-x="1000" />

<glyph glyph-name="ico_terminal_ios" unicode="&#xe863;" d="M423 522a144 144 0 0 0 114-49 179 179 0 0 0 43-123 177 177 0 0 0-44-124 146 146 0 0 0-113-48 146 146 0 0 0-115 48 179 179 0 0 0-43 124 181 181 0 0 0 43 123 143 143 0 0 0 115 49z m-114-172a148 148 0 0 1 31-98 101 101 0 0 1 83-37 103 103 0 0 1 84 37 148 148 0 0 1 29 98 152 152 0 0 1-30 97 102 102 0 0 1-83 38 100 100 0 0 1-84-38 150 150 0 0 1-30-97z m407 172a133 133 0 0 0 88-28 95 95 0 0 0 33-76h-42c-5 45-32 67-81 67a89 89 0 0 1-56-14 49 49 0 0 1-19-42 39 39 0 0 1 14-30 260 260 0 0 1 91-28 171 171 0 0 0 79-33 77 77 0 0 0 26-62 83 83 0 0 0-37-71 159 159 0 0 0-91-26 147 147 0 0 0-99 31 104 104 0 0 0-36 84h42a70 70 0 0 1 28-58 109 109 0 0 1 68-21 105 105 0 0 1 62 16 51 51 0 0 1 22 44 44 44 0 0 1-21 38 204 204 0 0 1-72 24 217 217 0 0 0-95 35 71 71 0 0 0-23 55 86 86 0 0 0 33 70 134 134 0 0 0 86 25z" horiz-adv-x="1000" />

<glyph glyph-name="ico_terminal_mp3" unicode="&#xe864;" d="M368 508v-222a77 77 0 1 1 37-66v207l252 28v-132a77 77 0 1 1 37-72h0v305z m0 0" horiz-adv-x="1000" />

<glyph glyph-name="ico_terminal_pantallatactil" unicode="&#xe865;" d="M375 255a63 63 0 0 0 79-9l11-11v167a32 32 0 0 0 64 0v-86a31 31 0 0 0 24 12c7 0 87-18 87-18a31 31 0 0 0 16-28v-79a103 103 0 0 0-174-75h0l-109 108a12 12 0 0 0 0 17z m361 317h-472a56 56 0 0 1-56-55v-306a56 56 0 0 1 56-55h125v27h-125a28 28 0 0 0-28 28v306a28 28 0 0 0 28 27h472a28 28 0 0 0 28-27v-306a28 28 0 0 0-28-28h-42v-27h42a56 56 0 0 1 56 55v306a56 56 0 0 1-56 55z" horiz-adv-x="1000" />

<glyph glyph-name="ico_terminal_radiofm" unicode="&#xe866;" d="M708 453h-335l264 147a15 15 0 0 1-10 28l-341-176s-24-14-24-28v-265a30 30 0 0 1 30-31h416a30 30 0 0 1 30 30v265a30 30 0 0 1-30 30z m-236-270h-153v139h153z m139 0a69 69 0 1 0 70 70 69 69 0 0 0-70-70z m70 167h-362v56h362z" horiz-adv-x="1000" />

<glyph glyph-name="ico_terminal_ranuratarjeta" unicode="&#xe867;" d="M682 531h-321v-28h310l93-94v-163a49 49 0 0 0-49-49h-354v-28h354a76 76 0 0 1 77 77v175z" horiz-adv-x="1000" />

<glyph glyph-name="ico_terminal_resisteagua" unicode="&#xe868;" d="M793 332a96 96 0 0 1-55 15 71 71 0 0 1-69-33h-2a71 71 0 0 1-69 33 94 94 0 0 1-56-15v-160a72 72 0 0 0-144 0 16 16 0 1 0 32 0 40 40 0 1 1 80 0v159a94 94 0 0 1-55 16 71 71 0 0 1-66-33h-3a71 71 0 0 1-69 33 96 96 0 0 1-56-15c11 113 117 203 250 210v12a16 16 0 0 0 32 0v-12c133-7 240-97 250-210z m-492 237a279 279 0 0 1-23-58 23 23 0 1 1 46 0 278 278 0 0 1-23 58z m65 31a208 208 0 0 1-17-44 18 18 0 0 1 34 0 206 206 0 0 1-17 44z m0 0" horiz-adv-x="1000" />

<glyph glyph-name="ico_terminal_videollamada" unicode="&#xe869;" d="M500 494a82 82 0 0 1-31-6 41 41 0 0 0-33-64 42 42 0 0 0-17 4 94 94 0 0 1-2-18 83 83 0 1 1 83 84z m0 0m208-83a208 208 0 1 1-208-208 208 208 0 0 1 208 208z m-357 0a149 149 0 1 0 149-149 149 149 0 0 0-149 149z m262-202a207 207 0 0 0-226 0l-73-90a34 34 0 0 1 26-55h320a34 34 0 0 1 26 55z" horiz-adv-x="1000" />

<glyph glyph-name="ico_terminal_wifi" unicode="&#xe86a;" d="M500 273a78 78 0 1 1 78-78 78 78 0 0 1-78 78z m0 310a386 386 0 0 1-296-139 39 39 0 0 1 29-64 39 39 0 0 1 30 14 309 309 0 0 0 474 0 39 39 0 0 1 30-14 37 37 0 0 1 25 9 38 38 0 0 1 4 56 386 386 0 0 1-296 138z m0-155a233 233 0 0 1-178-84 39 39 0 0 1 5-55 36 36 0 0 1 25-10 39 39 0 0 1 29 15 154 154 0 0 0 238 0 39 39 0 0 1 29-13 37 37 0 0 1 25 9 38 38 0 0 1 5 56 232 232 0 0 1-178 83z m0 0" horiz-adv-x="1000" />

<glyph glyph-name="ico_terminal_windowsphone" unicode="&#xe86b;" d="M264 151l194-28v186h-194z m0 0m0 182h194v187l-194-28z m0 0m215-211l257-36v222h-257z m0 0m0 401v-190h257v225z m0 0" horiz-adv-x="1000" />

<glyph glyph-name="icono_error" unicode="&#xe86c;" d="M1110 38h0l-438 750h0a125 125 0 0 1-217 0h0l-437-748 0 0-1-2h0a125 125 0 0 1 108-188h877a125 125 0 0 1 108 188z m-353 92l-120 121 116 116a51 51 0 0 1-73 73l-116-116-116 116a51 51 0 1 1-73-73l116-116-120-121a51 51 0 0 1 73-72l120 120 120-120a51 51 0 0 1 73 72z" horiz-adv-x="1127" />

<glyph glyph-name="icono_flexibilidad" unicode="&#xe86d;" d="M735 850h-470a59 59 0 0 1-59-59v-882a59 59 0 0 1 59-59h470a59 59 0 0 1 59 59v882a59 59 0 0 1-59 59z m-279-29h88a15 15 0 1 0 0-30h-88a15 15 0 0 0 0 30z m44-942a29 29 0 1 0 29 30 29 29 0 0 0-29-30z m235 89h-470v794h470z m-735 470a59 59 0 0 0 0-117v-206h177v529h-177z m1000 0v206h-176v-529h176v206a59 59 0 0 0 0 117z m-629-135h23v165h-23z m200 165h-24v-165h24z m-36 0h-12v-165h12z m-35 0h-23v-165h23z m129 0h-47v-165h47z m-176 0h-47v-165h47z m-71-200h-47v47h-23v-71h70z m283 0h-47v-24h70v71h-23z m0 188h23v71h-70v-24h47z m-330 47h47v24h-70v-71h23z" horiz-adv-x="1000" />

<glyph glyph-name="icono_info" unicode="&#xe86e;" d="M500 556a88 88 0 1 1-88 88 88 88 0 0 1 88-88z m141-499c-20 1-32 6-38 13-5 5-15 20-15 58v369h-206v-30l6-1c20-1 33-5 39-13 5-5 10-20 10-58v-267c0-40-5-52-8-56-8-9-22-14-40-15l-7 0v-30h265v30z" horiz-adv-x="1000" />

<glyph glyph-name="icono_maletin" unicode="&#xe86f;" d="M1104 678h-1035a69 69 0 0 1-69-69v-690a69 69 0 0 1 69-69h1035a69 69 0 0 1 68 69v690a69 69 0 0 1-68 69z m-552-483a35 35 0 0 0 34 34h0a35 35 0 0 0 35-34v-69a35 35 0 0 0-35-35h0a35 35 0 0 0-34 35z m552-242a35 35 0 0 0-35-34h-965a35 35 0 0 0-35 34v302l448-112v-17a69 69 0 0 1 69-69h0a69 69 0 0 1 69 69v17l449 112z m-690 794a35 35 0 0 0 34 34h276a35 35 0 0 0 35-34v-35h69v35a104 104 0 0 1-104 103h-276a104 104 0 0 1-103-103v-35h69z" horiz-adv-x="1172" />

<glyph glyph-name="icono_map" unicode="&#xe870;" d="M647 527a324 324 0 1 1-604-161h0l281-516 280 516h0a322 322 0 0 1 43 161z m-176 14v-176a44 44 0 0 0-44-44h-206a44 44 0 0 0-44 44v176h-89l89 90v72h70l45 45h0a44 44 0 0 0 63 0h0l204-207z m-250 0v-117a30 30 0 0 1 29-30h118v118a30 30 0 0 1-30 29z" horiz-adv-x="647" />

<glyph glyph-name="icono_menos" unicode="&#xe871;" d="" horiz-adv-x="3000" />

<glyph glyph-name="icono_menu" unicode="&#xe872;" d="M0 850v-120h1036v120z m0-418h1036v119h-1036z m0-299h1036v119h-1036z m0-283h518v119h-518z" horiz-adv-x="1036" />

<glyph glyph-name="icono_multidispositivo" unicode="&#xe873;" d="M1153 536h-323a40 40 0 0 1-40-40v-606a40 40 0 0 1 40-40h323a40 40 0 0 1 40 40v606a40 40 0 0 1-40 40z m-192-20h61a10 10 0 1 0 0-20h-61a10 10 0 0 0 0 20z m31-646a20 20 0 1 0 20 20 20 20 0 0 0-20-20z m161 61h-323v545h323z m128-56a25 25 0 0 1 25-25h101a25 25 0 0 1 26 25v51h-152z m152 405a25 25 0 0 1-26 25h-101a25 25 0 0 1-25-25v-51h152z m82-152h-19v64a25 25 0 0 1-25 25h-228a25 25 0 0 1-25-25v-228a25 25 0 0 1 25-26h228a25 25 0 0 1 25 26v126h19a6 6 0 0 1 6 7v25a6 6 0 0 1-6 6z m-44-164h-228v228h228z m-188 129l74-31h0a20 20 0 0 1 17 1l55 29a20 20 0 1 1-18 35l-47-24-65 27a20 20 0 1 1-16-37z m-584 757h-641a58 58 0 0 1-58-58v-874a58 58 0 0 1 58-58h641a58 58 0 0 1 58 58v874a58 58 0 0 1-58 58z m-320-961a29 29 0 1 0 29 29 29 29 0 0 0-29-29z m320 87h-641v816h641z" horiz-adv-x="1521" />

<glyph glyph-name="icono_resumen_pedido" unicode="&#xe874;" d="M409 525v84a105 105 0 0 0 211 0v-84h42v84a148 148 0 1 1-295 0v-84z m-169 84v-506a63 63 0 0 1 64-63h421a63 63 0 0 1 63 63v506z m106-84a42 42 0 1 0 42-42 42 42 0 0 0-42 42z m295-337a42 42 0 0 0-42-42h-169a42 42 0 0 0-42 42v168a42 42 0 0 0 42 42h169a42 42 0 0 0 42-42z m0 295a42 42 0 1 0 42 42 42 42 0 0 0-42-42z m-146-222l79 79a15 15 0 0 0 21-1c11-10 2-20 2-20l-90-113s-10-14-25 1c-13 14-49 57-49 57s-8 10 4 22c10 10 18 6 21 3 4-4 30-30 30-30s3-3 7 2z" horiz-adv-x="1000" />

<glyph glyph-name="icono_success" unicode="&#xe875;" d="M772 568a47 47 0 0 1-79 34h0l-277-270-91 102h0a47 47 0 0 1-64-2l-19-19a47 47 0 0 1-3-63h0l150-188h0a47 47 0 0 1 73 0h0l299 376h0a47 47 0 0 1 11 30z" horiz-adv-x="1000" />

<glyph glyph-name="icono_sva_envio" unicode="&#xe876;" d="M803 381h-64l-129 215a46 46 0 0 1-40 23h-328a43 43 0 0 1-43-44v-401h0a97 97 0 0 1 194 0h173a97 97 0 0 1 194 0h87v164a43 43 0 0 1-44 43z m-298 2l-80-131h0l-80 131c-10 18-17 32-17 52a97 97 0 0 0 195 0c0-20-8-34-18-52z m-80 85a37 37 0 1 1 37-37 37 37 0 0 1-36 36z" horiz-adv-x="1000" />

<glyph glyph-name="icono_sva_multisim" unicode="&#xe877;" d="M567 607l-83 82h-217a31 31 0 0 1-32-31v-539a31 31 0 0 1 32-31h93v41h-62a21 21 0 0 0-21 21v62h83v21h-83v83h83v21h-83v62h0a21 21 0 0 0 21 21h62v135a52 52 0 0 0 52 52z m63-21h-218a31 31 0 0 1-31-31v-540a31 31 0 0 1 31-31h311a31 31 0 0 1 31 31v446z m-208-291h0a21 21 0 0 0 21 21h62v-83h-83z m83-269h-62a21 21 0 0 0-21 20v63h83z m104 0h-83v83h83z m0 103h-187v83h104v104h83z m104-83a21 21 0 0 0-21-20h-62v83h83z m0 83h-83v83h83z m0 166v-62h-83v83h62a21 21 0 0 0 21-21z" horiz-adv-x="1000" />

<glyph glyph-name="icono_sva_seguro" unicode="&#xe878;" d="M779 608c-105 0-203 32-281 86-78-54-175-86-280-86h-21v-237c0-159 92-346 301-410 209 64 302 251 302 410v237z m-161-470a27 27 0 0 0-27-26h-186a27 27 0 0 0-27 26v400a27 27 0 0 0 27 27h186a27 27 0 0 0 27-27z m-34 395h-172a22 22 0 0 1-22-22v-335a22 22 0 0 1 22-21h172a22 22 0 0 1 22 21v335a22 22 0 0 1-22 22z m-79-393h-14a7 7 0 0 1-6-7h0a7 7 0 0 1 6-7h14a7 7 0 0 1 6 7h0a7 7 0 0 1-6 7z" horiz-adv-x="1000" />

<glyph glyph-name="icono_sva_tranquilidad" unicode="&#xe879;" d="M842 249h-101a254 254 0 0 1 13 53c0 1 0 1 0 1q1 10 2 20c0 1 0 2 0 2 0 3 0 7 0 10a257 257 0 0 1-514 0c0-3 0-7 1-10 0 0 0-1 0-2 0-7 1-13 1-20 0 0 0 0 0-1a256 256 0 0 1 13-53h-100a21 21 0 1 1 0-42h685a21 21 0 1 1 0 42z m-129-85h-428a21 21 0 0 1 0-43h428a21 21 0 0 1 0 43z m-107-86h-214a21 21 0 1 1 0-42h214a21 21 0 1 1 0 42z m-276 591l16-39h0a21 21 0 0 1 40 16h0l-17 39h0a21 21 0 1 1-39-16z m-181-204h0l39-16h0a21 21 0 0 1 17 39h0l-40 17h0a21 21 0 1 1-16-40z m661-16h0l40 16a21 21 0 0 1-17 40h0l-39-17h0a21 21 0 0 1 16-39z m-185 169a21 21 0 0 1 28 12h0l16 39a21 21 0 1 1-40 17h0l-16-40h0a21 21 0 0 1 12-28z" horiz-adv-x="1000" />

<glyph glyph-name="icono_track" unicode="&#xe87a;" d="M953 636c-5-29-18-52-32-78l-1-2 0-1-1-1-116-191a72 72 0 1 0-127 0l-117 191-1 1 0 1c-16 28-30 56-35 91h-523v-398l51-51-51-51v-188a109 109 0 0 1 109-109h906v688a109 109 0 0 1-62 98z m-850-388l-51 51 51 51 51-51z m48 151l51 51 52-51-52-51z m103-102l51 51 51-51-51-52z m102-103l51 51 52-51-52-51z m150-148l-52 51 52 51 51-51z m102 102l-51 51 51 52 51-52z m131 180h0l149 245c18 34 32 59 32 96 0 100-82 181-181 181a181 181 0 0 1-181-181c0-37 13-62 31-96z m0 406a65 65 0 1 0-65-65 65 65 0 0 0 65 65z" horiz-adv-x="1014" />

<glyph glyph-name="icono_verde_promo" unicode="&#xe87b;" d="M832 320l-322 322h-279a40 40 0 0 1-39-40v-278l321-322a80 80 0 0 1 113 0l206 206a80 80 0 0 1 0 112z m-543 186a39 39 0 1 0 39 39 39 39 0 0 0-39-39z" horiz-adv-x="1000" />

<glyph glyph-name="icono_verde_tv" unicode="&#xe87c;" d="M815 590h-612a41 41 0 0 1-41-41v-387a41 41 0 0 1 41-41h61v-61h489v61h62a41 41 0 0 1 40 41v387a41 41 0 0 1-40 41z m-306-499a20 20 0 1 0 20 20 20 20 0 0 0-20-20z m306 71h-612v388h612z" horiz-adv-x="1000" />

<glyph glyph-name="icono_warning" unicode="&#xe87d;" d="M1110 38h0l-438 750h0a125 125 0 0 1-217 0h0l-437-748v0l-1-2h0a125 125 0 0 1 108-188h877a125 125 0 0 1 108 188z m-609 511l21-345c0-23 19-32 43-32s42 9 42 32h0l21 345h0c0 1 0 3 0 4a63 63 0 0 1-127 0c0-1 0-2 0-4z m64-439a63 63 0 1 1 63-63 63 63 0 0 1-63 63z" horiz-adv-x="1127" />

<glyph glyph-name="iconos_2moviles" unicode="&#xe87e;" d="M434 850h-386a48 48 0 0 1-48-48v-724a48 48 0 0 1 48-48h303v96h-303v652h386v-162h49v186a48 48 0 0 1-49 48z m-193-748a24 24 0 1 0-24-24 24 24 0 0 0 24 24z m37 700h-73a12 12 0 1 0 0 24h73a12 12 0 0 0 0-24z m475-132h-386a48 48 0 0 1-48-48v-724a48 48 0 0 1 48-48h386a48 48 0 0 1 48 48v724a48 48 0 0 1-48 48z m-229-24h72a12 12 0 0 0 0-24h-72a12 12 0 0 0 0 24z m36-772a24 24 0 1 0 24 24 24 24 0 0 0-24-24z m193 72h-386v652h386z" horiz-adv-x="801" />

<glyph glyph-name="iconos_3moviles" unicode="&#xe87f;" d="M434 849h-386a48 48 0 0 1-48-48v-723a48 48 0 0 1 48-48h280c-1 32-2 64-3 96h-277v651h386v-161h48v185a48 48 0 0 1-48 48z m-193-747a24 24 0 1 0-24-24 24 24 0 0 0 24 24z m36 699h-72a12 12 0 1 0 0 24h72a12 12 0 0 0 0-24z m454-131h-386a48 48 0 0 1-48-48v-724a48 48 0 0 1 48-48h386a48 48 0 0 1 48 48v724a48 48 0 0 1-48 48z m-229-24h72a12 12 0 0 0 0-24h-72a12 12 0 0 0 0 24z m36-772a24 24 0 1 0 24 24 24 24 0 0 0-24-24z m193 72h-386v652h386z m-136 856v-185h48v161h386v-651h-277c0-33-2-65-3-97h280a48 48 0 0 1 48 48v724a48 48 0 0 1-48 48h-386a48 48 0 0 1-48-48z m265-723a24 24 0 1 0-24 24 24 24 0 0 0 24-25z m-72 735a12 12 0 0 0 12 12h72a12 12 0 0 0 0-24h-72a12 12 0 0 0-12 12z" horiz-adv-x="1077" />

<glyph glyph-name="info" unicode="&#xe880;" d="M531 850c-293 0-531-238-531-531s238-532 531-532 532 238 532 532-238 531-532 531z m0-125a94 94 0 1 0-93-94 94 94 0 0 0 93 94z m157-750h-282v32l7 0c19 1 34 7 43 17 3 3 9 16 9 59v284c0 40-6 56-11 61-6 8-20 13-41 14l-7 1v32h219v-392c0-41 11-56 15-62 7-8 20-12 41-14l7 0v-32z" horiz-adv-x="1000" />

<glyph glyph-name="internet-4g-en-casa" unicode="&#xe881;" d="M619 820v0c-19 19-44 30-72 30 0 0-1 0-1 0 0 0 0 0 0 0-29 0-55-11-74-30l0 0-472-470h206v-400c0-55 45-100 101-100 0 0 1 0 1 0l478 0c1 0 1 0 2 0 55 0 100 45 101 100l0 400h206z m-110-797h-34v-59h-49v59h-106v46l110 148h46v-152h34v-42z m-182 327c27 25 59 45 93 59 39 16 82 25 126 25s87-9 126-25c35-14 67-34 94-59l-42-40c-47 42-110 67-178 67s-130-25-177-67z m442-386h-37l-5 29c-9-11-21-21-34-27-12-5-24-8-38-8 0 0-1 0-2 0-19 0-36 4-52 11-15 6-28 16-39 28-11 12-19 26-25 42-5 15-8 32-8 50 0 1 0 2 0 3 0 0 0 1 0 1 0 18 3 36 9 53 5 15 14 30 25 42 10 12 24 22 39 28 15 7 33 11 51 11 1 0 2 0 3 0 0 0 0 0 0 0 14 0 27-2 39-6 12-4 24-10 34-17 9-8 17-17 23-28 6-11 11-25 12-39l-54 0c-2 13-9 24-19 32-9 7-21 11-33 11-1 0-1 0-1 0-1 0-2 0-2 0-12 0-22-3-31-7-9-5-16-12-22-20-5-8-9-18-12-28-2-10-4-21-4-33 0 0 0 0 0 0 0 0 0 0 0-1 0-11 2-21 4-32 3-9 7-18 13-27 5-8 12-14 21-19 9-5 19-7 31-7 0 0 1 0 2 0 1-1 3-1 5-1 31 0 56 25 56 56 0 0 0 0 0 0l-58 0v42h109v-139z m39 426c-69 63-161 101-261 101s-193-38-262-101l-42 40c38 35 82 64 131 83 53 22 112 34 173 34s119-12 173-34c48-19 92-48 130-83z m-447-325h66v88h-1l-65-88z" horiz-adv-x="1094" />

<glyph glyph-name="internet-movil-4g" unicode="&#xe882;" d="M329 850h-278v-237h278v237z m-177-184h-51v53h51v-53z m126 0h-50v53h50v-53z m76-79h-329c-14 0-25-12-25-26 0 0 0 0 0 0v-514c0-1 0-2 0-3 0-106 85-192 190-194 105 3 189 88 189 194 0 1 0 2 0 4l0 513c0 0 0 0 0 0 0 14-11 26-25 26z m-164-632c-48 3-87 43-87 92s39 90 87 92c49-2 87-43 87-92s-38-89-87-92z m491 206h-55l-132-177v-56h128v-70h59v70h40v51h-40v182z m-59-183h-80l79 106h1v-106z m280 47v-51h69c0 0 0-1 0-1 0-37-30-66-67-66-2 0-5 0-7 0-1 0-2 0-3 0-13 0-26 3-37 9-10 6-19 14-25 23-7 10-12 21-15 33-3 12-4 25-4 38 0 0 0 0 0 0 0 0 0 1 0 1 0 14 1 27 4 40 3 12 8 23 15 33 6 10 15 18 25 24 11 5 24 9 37 9 1 0 2 0 3 0 0 0 1 0 2 0 15 0 29-5 40-14 12-9 20-23 23-38l66-1c-2 18-7 34-15 48-8 13-18 24-29 34-12 9-25 16-40 21-14 4-30 7-47 7 0 0 0 0 0 0-1 0-2 0-3 0-22 0-43-5-62-13-18-8-34-20-47-34-13-15-23-32-30-51-7-20-10-42-10-64 0-1 0-1 0-2 0 0 0 0 0-1 0-22 3-43 10-63 7-18 17-36 30-50 13-14 29-26 47-34 19-8 40-13 62-13 1 0 2 0 3 0 16 0 32 4 46 11 16 7 29 18 39 32l8-35h43v168h-131z" horiz-adv-x="1031" />

<glyph glyph-name="interrogacion" unicode="&#xe883;" d="M500 850c-276 0-500-224-500-500s224-500 500-500 500 224 500 500-224 500-500 500z m36-801a64 64 0 0 0-43-16 66 66 0 0 0-45 16q-19 17-19 46a60 60 0 0 0 19 45 62 62 0 0 0 45 18 62 62 0 0 0 62-63q0-29-19-46z m157 389a191 191 0 0 0-34-47q-20-19-72-65a293 293 0 0 1-23-23 93 93 0 0 1-13-18 89 89 0 0 1-6-16q-2-9-7-29-8-44-50-44a51 51 0 0 0-37 14q-14 15-14 43 0 35 10 61a155 155 0 0 0 29 45 669 669 0 0 0 49 46q27 24 39 36a121 121 0 0 1 20 26 65 65 0 0 1 8 32 74 74 0 0 1-25 57q-25 23-64 23-47 0-68-23t-37-69q-15-47-54-47a53 53 0 0 0-40 16q-16 17-16 36 0 40 25 81t75 68q49 26 115 26 61 0 107-22t72-61a150 150 0 0 0 25-84q0-36-14-62z" horiz-adv-x="1000" />

<glyph glyph-name="landline-device" unicode="&#xe884;" d="M928 783h-512v-866h512c54 1 97 45 97 98 0 1 0 1 0 2l0 0v666c0 1 0 1 0 2 0 54-43 97-96 98l-1 0z m-928-100v-666c0-1 0-1 0-2 0-54 43-97 96-98l0 0v866c-53-1-96-44-96-98 0-1 0-1 0-2l0 0z m248 167h17c66 0 120-54 120-120 0-1 0-1 0-1l0 0v-758c0 0 0-1 0-1 0-66-53-120-120-120h-17c-66 0-120 54-120 120 0 0 0 1 0 1l0 0v758c0 1 0 1 0 2 0 66 54 119 120 120h0z m341-166h263c42-1 76-35 76-77 0-1 0-1 0-1v0-12c0 0 0 0 0-1 0-42-34-76-76-77h-263c-42 0-77 35-77 77 0 1 0 1 0 1v0 12c0 0 0 0 0 1 0 42 35 77 77 77h0z m289-267h6c0 0 0 0 0 0 24 0 44-20 44-45 0 0 0 0 0 0v0-10c0 0 0-1 0-1 0-24-19-44-44-44h-6c-25 0-45 20-45 45v0 10c0 0 0 0 0 0 0 25 20 45 45 45h0z m0-134h6c0 0 0 0 0 0 24 0 44-20 44-45 0 0 0 0 0 0v0-9c0 0 0 0 0-1 0-24-19-44-44-45h-6c-25 1-45 21-45 46 0 0 0 0 0 0v0 8c0 1 0 1 0 1 0 25 20 45 45 45h0z m0-132h6c0 0 0 0 0 0 24 0 44-20 44-45 0 0 0 0 0 0v0-11c0 0 0 0 0 0 0-25-19-45-44-45h-6c-25 0-45 20-45 45 0 0 0 0 0 0v0 10c0 0 0 0 0 0 0 25 20 45 45 46h0z m-161 266h7c24 0 44-20 44-45 0 0 0 0 0 0v0-10c0 0 0 0 0 0 0-25-20-45-44-45 0 0 0 0 0 0h-7c-25 0-45 20-45 45v0 10c0 0 0 0 0 0 0 25 20 45 45 45h0z m0-134h7c24 0 44-20 44-45 0 0 0 0 0 0v0-9c0 0 0 0 0 0 0-25-20-45-44-46h-7c-24 1-45 21-45 46 0 0 0 0 0 0v0 8c0 1 0 1 0 1 0 25 21 45 45 45h0z m0-132h7c24-1 44-21 44-46 0 0 0 0 0 0v0-10c0 0 0 0 0 0 0-25-20-45-44-45h-7c-24 0-45 20-45 45 0 0 0 0 0 0v0 10c0 0 0 0 0 0 0 25 21 45 45 45h0z m-160 266h7c25 0 45-20 45-45 0 0 0 0 0 0v0-10c0-25-20-45-45-45h-6c0 0 0 0-1 0-24 0-45 20-45 45 0 0 0 0 0 0v0 10c0 0 0 0 0 0 0 25 20 45 45 45h0z m0-134h7c25 0 45-20 45-45 0 0 0 0 0 0v0-9c0-25-20-45-45-45h-6c0 0 0 0 0 0-25 0-45 20-46 45v8c0 1 0 1 0 1 0 25 20 45 45 45h0z m0-132h7c25-1 45-21 45-46 0 0 0 0 0 0v0-10c0 0 0 0 0 0 0-25-20-45-45-45h-6c0 0 0 0 0 0-25 0-46 20-46 45 0 0 0 0 0 0v0 10c0 0 0 0 0 0 0 25 20 45 45 45h0z" horiz-adv-x="1031" />

<glyph glyph-name="laptop" unicode="&#xe885;" d="M1280 130h0c0 1 0 1 0 2v638a80 80 0 0 1-80 80h-1040a80 80 0 0 1-80-80v-638c0-1 0-1 0-2h0v-120h1200z m-80-40h-1040v680h1040z m-400-120a40 40 0 0 0-40-40h-160a40 40 0 0 0-40 40h-560v-80a40 40 0 0 1 40-40h1280a40 40 0 0 1 40 40v80z" horiz-adv-x="1360" />

<glyph glyph-name="llamadas-ilimitadas" unicode="&#xe886;" d="M773 350c0 213-173 386-387 386s-386-173-386-386c0-213 173-386 386-386s387 173 387 386z m-297-125c60 60 55 64 131 3 71-58 65-53-16-133-39-39-180-3-321 138-141 141-179 278-139 321 76 78 74 91 134 16s57-71-3-131c-24-23 26-84 78-136 52-52 112-102 136-78z" horiz-adv-x="781" />

<glyph glyph-name="llamadas-ilimitadas-24h" unicode="&#xe887;" d="M547 324v311c0 23-18 42-41 42s-41-19-41-42v-270h-226c-23 0-41-18-41-41s18-41 41-41h266c0 0 1 0 1 0 23 0 41 18 41 41z m-47 526c-276-1-499-225-499-501 0-264 205-481 466-499l1 107c-204 16-363 186-363 393 0 217 177 394 395 394s394-177 394-394c0-24-2-47-6-70l108 2c3 21 4 44 4 68 0 276-224 500-500 500 0 0 0 0 0 0z m121-869q15 12 30 22l30 19c10 7 18 14 26 23 8 8 14 17 18 27 5 11 8 24 8 37 0 0 0 1 0 2 0 0 0 1 0 1 0 14-3 26-9 38-5 11-12 20-21 28s-20 14-31 18c-12 4-25 6-39 6 0 0 0 0 0 0-1 0-1 0-2 0-16 0-31-3-45-9-13-6-24-14-33-25-9-10-16-23-20-37-4-12-6-26-6-41 0-2 0-4 0-6l57 0c0 0 0 0 0 0 0 9 1 17 2 24 2 8 5 15 8 21 4 6 9 11 14 15 6 5 13 7 21 7 1 0 1 0 2 0 0 0 1 0 1 0 12 0 22-5 30-12 8-8 12-19 12-31 0 0 0-1 0-2 0 0 0-1 0-1 0-8-2-16-6-23-4-7-9-13-15-19-6-5-13-11-20-15l-21-14-35-25c-11-8-21-17-30-27-8-9-15-21-20-33-5-13-7-27-7-42 0-1 0-2 0-3l215 0v51h-139c8 10 16 19 25 26z m309 215h-53l-126-170v-54h122v-68h57v68h38v49h-38v175z m-57-175h-76l75 101h1v-101z" horiz-adv-x="1000" />

<glyph glyph-name="localitation-pin" unicode="&#xe888;" d="M647 527c0 178-145 323-323 323-179 0-324-145-324-324 0-59 16-114 43-162l0 2 281-516 280 516c27 46 43 101 43 160 0 0 0 0 0 1v0z m-323-236c-130 0-236 106-236 236s106 235 236 235c130 0 235-106 235-235v0c0-130-105-236-235-236v0z m-195 220l342 152-201-325-18 139-123 35z" horiz-adv-x="656" />

<glyph glyph-name="localizador-tiendas" unicode="&#xe889;" d="M703 643c0 113-92 205-204 205s-205-92-205-205h-175v-703c0-49 39-88 88-88h586c49 0 88 40 88 88v703h-178z m-307 102c28 28 65 43 103 43 39 0 76-15 103-43 28-28 42-65 42-103h-292c1 40 16 76 44 103z m-131-221c0 23 12 41 29 51v-51c0-15 14-29 30-29s29 14 29 29v51c17-10 30-30 30-51 0-31-26-58-59-58-33 1-59 28-59 58z m354-341l-120-214-121 214c-15 27-26 48-26 78 0 81 65 146 146 146 79 0 145-66 145-146 1-30-10-49-24-78z m55 284c-32 0-59 26-59 59 0 22 12 40 29 50v-50c0-16 14-30 30-30 16 0 29 14 29 30v50c17-10 30-29 30-50 0-32-26-59-59-59z m-196-230l7-63 91 146-154-68 56-15z" horiz-adv-x="1000" />

<glyph glyph-name="lock" unicode="&#xe88a;" d="M618 468h-30v147c0 130-105 235-235 235s-235-105-235-235v-147h-118v-530c0-49 40-88 88-88 0 0 0 0 0 0h618v529c0 49-40 89-88 89 0 0 0 0 0 0z m-222-313l16-158h-118l16 158c-27 16-45 44-45 77 0 49 39 89 88 89s88-40 88-89c0-33-18-61-45-76z m104 313h-294v147c0 81 66 147 147 147s147-66 147-147z" horiz-adv-x="719" />

<glyph glyph-name="login-password" unicode="&#xe88b;" d="M789 430c-18 0-32-14-32-32v-31h64v31c0 18-15 32-32 32v0z m88 151h-754c-68 0-123-55-123-123v-216c0-68 55-123 123-123h754c68 0 123 55 123 123v216c0 68-55 123-123 123v0z m-610-264l30-33-51-38-21 38c-3 6-8 17-15 33-7-18-12-29-15-33l-21-38-52 38 31 33c9 8 18 16 26 22-8 1-20 3-34 5l-44 7 20 60 40-18c4-2 14-7 31-17-4 16-6 27-7 35l-6 43h63l-5-43c-1-10-4-22-7-35 7 3 12 6 14 7 8 4 14 7 18 9l40 19 19-60-43-9c-8-1-20-2-36-3 11-8 19-16 25-23v0z m289 0l30-33-51-38-21 38c-3 6-8 17-15 33-7-18-12-29-15-33l-21-38-52 38 31 33c9 8 18 16 26 22-8 1-20 3-34 5l-44 7 20 60 40-18c4-2 14-7 31-17-4 16-6 27-7 35l-6 43h63l-5-43c-1-10-4-22-7-35 7 3 12 6 14 7 8 4 14 7 18 9l40 19 19-60-44-9c-8-1-19-2-35-3 10-8 19-16 25-23v0z m324-55c0-13-11-24-24-24h-134c-13 0-24 11-24 24v81c0 13 11 24 24 24h3v31c0 35 29 64 64 64s64-29 64-64v-31h3c13 0 24-11 24-24v-81z" horiz-adv-x="1000" />

<glyph glyph-name="logistics" unicode="&#xe88c;" d="M914 115c0-46-37-84-83-84s-83 38-83 84c0 45 37 83 83 83s83-38 83-83z m83 27v222c0 61-49 111-110 111h-167v-277h-342c23-21 38-50 38-83v-1l304 1c0 61 50 110 111 110s111-49 111-110v-1h28c0 0 0 0 0 0 15 0 27 13 27 28 0 0 0 0 0 0z m-55 222v-56h-166v111h111c30 0 55-24 55-55v0z m-249 250h0c-1 30-26 55-56 55h-582c-30 0-54-25-55-55h0v-389h693v389z m-305-499c0-46-37-84-83-84s-83 38-83 84c0 45 37 83 83 83s83-38 83-83z m-194 0c0-46-37-84-83-84s-83 38-83 84c0 45 37 83 83 83s83-38 83-83z" horiz-adv-x="1000" />

<glyph glyph-name="logo_gb" unicode="&#xe88d;" d="M882 850h-382a500 500 0 1 1 500-500v382a118 118 0 0 1-118 118z m-439-636q-21-27-47-39a130 130 0 0 0-52-11 182 182 0 0 0-75 15 163 163 0 0 0-56 40 175 175 0 0 0-34 60 219 219 0 0 0-13 73 226 226 0 0 0 13 75 180 180 0 0 0 34 60 160 160 0 0 0 56 41 182 182 0 0 0 75 14 175 175 0 0 0 53-8 150 150 0 0 0 47-24 140 140 0 0 0 35-40 133 133 0 0 0 17-55h-76q-7 30-27 46a79 79 0 0 1-49 15 93 93 0 0 1-46-11 86 86 0 0 1-30-27 122 122 0 0 1-17-40 198 198 0 0 1-5-46 184 184 0 0 1 5-44 119 119 0 0 1 17-39 86 86 0 0 1 30-28 93 93 0 0 1 46-10q39 0 61 20t25 58h-80v59h151v-195h-50z m123 320h169a225 225 0 0 0 48-5 102 102 0 0 0 36-15 70 70 0 0 0 23-27 97 97 0 0 0 9-43q0-27-13-45a90 90 0 0 0-36-30q33-9 50-34t16-57a99 99 0 0 0-11-48 92 92 0 0 0-28-32 126 126 0 0 0-41-19 185 185 0 0 0-48-6h-174z m79-146h80q22 0 35 10t14 33a42 42 0 0 1-5 20 34 34 0 0 1-12 13 52 52 0 0 1-17 6 117 117 0 0 1-21 2h-74z m0-153h85a106 106 0 0 1 22 2 55 55 0 0 1 19 7 39 39 0 0 1 13 15 50 50 0 0 1 4 23q0 28-15 40t-42 11h-86z" horiz-adv-x="1000" />

<glyph glyph-name="logo_go" unicode="&#xe88e;" d="M1546 44h-346v346h346z m-526-180h706v706h-706z m-551 986q163 0 277-95a340 340 0 0 0 126-242h-201q-19 80-72 120t-130 41q-123 0-191-89t-68-239q0-147 69-233t190-86q206 0 227 206h-211v156h401v-516h-133l-21 108q-101-131-263-131-211 0-340 139t-129 357q0 222 129 363t340 141" horiz-adv-x="1726" />

<glyph glyph-name="logo_home" unicode="&#xe88f;" d="M216 850v-376h397v376h215v-981h-215v423h-397v-423h-216v981z m1938-251q155 0 207-118 81 118 216 118 133 0 196-68t62-185v-477h-195v411q0 93-28 129t-91 35q-131 0-131-178v-397h-195v419q0 91-29 124t-89 33a118 118 0 0 1-94-45q-38-44-38-117v-414h-195v710h184v-96h3q81 116 217 116z m1122 0a342 342 0 0 0 178-47 321 321 0 0 0 123-135q45-89 45-204c0-7 0-20-1-36h-513q3-85 45-133t128-47a187 187 0 0 1 99 27q44 27 57 65h171q-75-239-332-239a416 416 0 0 0-181 42 308 308 0 0 0-132 129q-50 87-50 202a397 397 0 0 0 50 198 328 328 0 0 0 134 133 377 377 0 0 0 179 45z m150-298q-14 79-51 115t-106 36q-72 0-113-41t-48-110z m-3210 549v-376h397v376h215v-981h-215v423h-397v-423h-216v981z m1938-251q155 0 207-118 81 118 216 118 133 0 196-68t62-185v-477h-195v411q0 93-28 129t-91 35q-131 0-131-178v-397h-195v419q0 91-29 124t-89 33a118 118 0 0 1-94-45q-38-44-38-117v-414h-195v710h184v-96h3q81 116 217 116z m1122 0a342 342 0 0 0 178-47 321 321 0 0 0 123-135q45-89 45-204c0-7 0-20-1-36h-513q3-85 45-133t128-47a187 187 0 0 1 99 27q44 27 57 65h171q-75-239-332-239a416 416 0 0 0-181 42 308 308 0 0 0-132 129q-50 87-50 202a397 397 0 0 0 50 198 328 328 0 0 0 134 133 377 377 0 0 0 179 45z m150-298q-14 79-51 115t-106 36q-72 0-113-41t-48-110z m-2492 279v-711h711v711z m529-529h-348v347h348z" horiz-adv-x="3622" />

<glyph glyph-name="logo_love" unicode="&#xe890;" d="M2640 599a342 342 0 0 0 179-47 322 322 0 0 0 123-135q44-89 44-204c0-7 0-20-1-36h-512q2-85 44-133t129-47a187 187 0 0 1 98 27c30 18 49 39 57 65h172q-76-239-333-239a414 414 0 0 0-180 42 308 308 0 0 0-133 129q-49 87-49 202a396 396 0 0 0 50 198 327 327 0 0 0 133 133 378 378 0 0 0 179 45z m150-298q-14 79-51 115t-106 35q-71 0-112-40t-48-110z m-988 278l150-459h2l150 459h194l-240-672h-218l-243 672z m-1003 1v-711h710v711z m530-529h-349v348h348z m-1113 799v-800h478v-181h-694v981z" horiz-adv-x="2986" />

<glyph glyph-name="logo_tv" unicode="&#xe891;" d="M1231 850h-1154a78 78 0 0 1-77-78v-730a77 77 0 0 1 77-77h115v-115h923v115h116a77 77 0 0 1 77 77v730a78 78 0 0 1-77 78z m-577-942a39 39 0 1 0 38 38 39 39 0 0 0-38-38z m577 134h-1154v731h1154z" horiz-adv-x="1308" />

<glyph glyph-name="logo-orange" unicode="&#xe892;" d="M824 52c-17 0-27-10-29-29h57c0 1 0 2 0 3 0 15-12 26-26 26-1 0-2 0-2 0l0 0z m-483-76c0 0 0-1 0-1 0-9 7-17 17-17h0c13 0 25 6 34 15l0 0v33c-35-4-51-13-51-30z m330 75c-13 0-28-10-28-42 0-17 2-46 28-46s31 30 31 49c0 21-11 39-31 39z m-548-4c-27 0-32-25-32-42s5-42 32-42 32 24 32 42-5 42-32 42z m-123 803v-1000h1000v1000z m123-920c-1 0-2 0-3 0-36 0-66 30-66 66 0 3 0 5 0 8l0-1c0 3 0 5 0 7 0 37 30 67 66 67 1 0 2 0 3 0l0 0c1 0 2 0 3 0 37 0 66-30 66-67 0-2 0-4 0-7l0 0c0-2 0-4 0-7 0-36-29-66-66-66-1 0-2 0-3 0l0 0z m172 111h-2c-16 0-33-2-39-14v-93h-37v140h35v-17c9 12 23 19 38 20l0 0h5z m133-107h-33l-3 12c-13-9-29-14-46-14 0 0 0 0 0 0h0c-1 0-2 0-4 0-21 0-38 17-38 39 0 0 0 1 0 2l0 0c0 31 28 47 87 54v8c0 10-7 16-21 16 0 0 0 0-1 0-13 0-25-6-33-16l0 0-24 14c12 17 32 28 55 28 1 0 3 0 5 0l-1 0c37 0 57-16 57-42 0 0 0-100 0-101z m154 0h-37v91c0 17-4 25-17 25-14-1-26-6-35-15l0 0v-100h-35v135l30 4 4-16c12 11 28 18 46 19l0 0c2 0 3 0 5 0 22 0 39-18 39-39 0-3 0-5 0-7l0 0z m155 8c0-24-2-62-68-62-28 0-53 10-58 34l36 7c2-7 6-14 26-14s28 9 28 31v16c-5-12-18-21-33-21-1 0-2 0-3 0l1 0c-33 0-58 23-58 70s25 74 55 74 37-12 40-19l3 16h31z m150 56h-93c0-26 11-40 33-40 0 0 0 0 1 0 13 0 24 7 30 18l0 0 27-15c-12-18-32-30-56-30-2 0-3 0-5 0l0 0c-42 0-66 27-66 73s26 73 66 73 63-26 63-71c1-2 1-5 1-7z m15 122h-14v-40h-8v40h-14v6h36z m60-39h-7v38l-15-38h-5l-15 38v-38h-7v46h11l14-35 13 35h11z" horiz-adv-x="1000" />

<glyph glyph-name="mail" unicode="&#xe893;" d="M876 698h-856v-647c0-60 48-105 107-105v0h857c0 0 0 648 0 648-4 59-49 104-108 104z m14-226l-286-275c-28-28-66-42-108-42s-80 14-108 42v0l-281 275v104c111-111 320-309 320-309v0c17-21 41-28 69-28s56 10 73 31v0l317 310 4-108z" horiz-adv-x="1000" />

<glyph glyph-name="mail-forward" unicode="&#xe894;" d="M1132 750h-962v-334h172v30l-70 64v110c127-119 358-332 358-332v0c20-18 46-29 75-29 2 0 4 0 6 0l-1 0c1 0 1 0 2 0 32 0 61 13 82 35l0 0 356 328v-112l-319-292c-30-27-71-44-116-44-1 0-2 0-3 0l0 0c-1 0-3 0-4 0-44 0-85 17-116 44l0 0-3-3-190-175c-6-6-15-10-24-10-4 0-9 1-13 3l0 0c-12 5-20 16-20 30v64h-172v-63c2-63 54-113 117-113 1 0 2 0 2 0l0 0h962v688c-2 62-52 111-114 111-2 0-4 0-6 0l1 0z m-757-688l188 175c1 1 2 2 3 3l0 0c7 8 12 18 12 29v0s0 0 0 0v0c-1 13-6 25-15 33l0 0-188 175v-95h-220c0 0 0 0-1 0-26 0-48-22-49-48l0 0v-127c0-14 6-26 15-35l0 0c9-8 21-14 35-14h220z" horiz-adv-x="1344" />

<glyph glyph-name="map-pin" unicode="&#xe895;" d="M647 526c0 179-145 324-323 324-179 0-324-145-324-324 0-59 16-114 44-162l-1 2 281-516 280 516c27 46 43 101 43 160 0 0 0 0 0 1z m-323-235c-130 0-236 106-236 236s106 235 236 235c130 0 235-105 235-235s-105-236-235-236z" horiz-adv-x="656" />

<glyph glyph-name="mas" unicode="&#xe896;" d="M938 475h-313v313a63 63 0 0 1-62 62h-125a63 63 0 0 1-63-62v-313h-312a63 63 0 0 1-63-62v-125a63 63 0 0 1 63-63h312v-313a63 63 0 0 1 63-62h125a63 63 0 0 1 62 62v313h313a63 63 0 0 1 62 63v125a63 63 0 0 1-62 62z" horiz-adv-x="1000" />

<glyph glyph-name="mas-info-v2" unicode="&#xe897;" d="M434 847c-112-16-209-64-288-143-75-75-121-164-140-272-4-22-5-32-5-82 0-50 1-60 5-82 19-108 65-197 140-272 75-75 164-121 272-140 22-4 32-5 82-5 50 0 60 1 82 5 108 19 197 65 272 140 75 75 121 164 140 272 4 22 5 32 5 82 0 50-1 60-5 82-19 108-65 197-140 272-74 75-163 120-270 140-31 6-118 7-150 3z m134-88c134-23 248-110 306-231 32-68 46-145 39-216-18-171-135-313-301-361-37-11-67-15-112-15-45 0-75 4-112 15-116 34-211 114-262 222-77 161-41 352 88 476 67 64 154 104 246 114 27 3 79 1 108-4z m-118-206l0-48 48 0 48 0 0 48 0 48-48 0-48 0 0-48z m0-303l0-150 48 0 48 0 0 150 0 150-48 0-48 0 0-150z" horiz-adv-x="1000" />

<glyph glyph-name="menu" unicode="&#xe898;" d="M0 850h939v-108h-939v108z m0-271h939v-108h-939v108z m0-271h939v-108h-939v108z" horiz-adv-x="1444" />

<glyph glyph-name="menu-hamburguer" unicode="&#xe899;" d="M64 720h1308c36 0 65 29 65 65s-29 65-65 65h-1308c-36 0-66-29-66-65s30-65 66-65z m1308-305h-1308c-36 0-66-29-66-65s30-65 66-65h1308c36 0 65 29 65 65s-29 65-65 65z m0-435h-1308c-36 0-66-29-66-65s30-65 66-65h1308c36 0 65 29 65 65s-29 65-65 65z" horiz-adv-x="1438" />

<glyph glyph-name="miorange" unicode="&#xe89a;" d="M749 350c-25 50-66 90-116 114-43-37-99-59-160-59s-118 22-161 59c-84-40-142-125-142-224v-220c0-60 49-110 110-110 0 0 0 0 0 0h237v385c0 30 24 55 54 55h178z m-84 302c0-106-86-192-192-192s-193 86-193 192c0 107 86 193 193 193s192-86 192-193z m137-329h-231c-15 0-27-13-27-28v-412c0-15 12-28 27-28h231c16 0 28 13 28 28v412c0 15-12 28-28 28z m-115-446c-12 0-22 10-22 22 0 12 10 22 22 22 12 0 22-10 22-22 0-12-10-22-22-22z m99 66h-198v330h198v-330z" horiz-adv-x="1000" />

<glyph glyph-name="mobile-broadband" unicode="&#xe89b;" d="M1349 448v-506h326l93 92v320l-93 92z m186-414h-93v93h93z m0 231h-93v91h93z m-280 276h-1119c-74-2-135-62-136-137l0 0v-414c1-77 63-138 139-138 0 0 0 0 1 0h1115c0 0 0 0 0 0 26 0 46 20 47 45v597c0 26-21 46-47 46v0z m-953-507v0c-87 2-157 73-157 160 0 88 72 160 160 160s160-71 160-160v0c0 0 0 0 0 0 0-88-72-160-160-160-1 0-2 0-3 0l0 0z m1726 382l84-83c101 100 239 162 393 162s292-62 392-162l0 0 84 83c-122 122-290 197-476 197s-355-75-477-197l0 0z m477-279v0c-79 0-143-64-143-143 0-79 64-142 143-142s143 63 143 142c0 1 0 1 0 1v0c0 79-64 142-143 142 0 0 0 0 0 0h0z m-645 447l84-83c144 143 342 232 561 232s417-89 561-232l0 0 84 83c-165 165-393 266-645 266s-480-101-645-266l0 0z m336-335v0l84-84c58 57 137 92 225 92s166-35 224-92l0 0 84 84c-79 78-188 127-308 127s-230-49-309-127l0 0z" horiz-adv-x="3156" />

</font>
</defs>
</svg>
