<svg id="Capa_1" data-name="Capa 1" xmlns="http://www.w3.org/2000/svg" viewBox="0 0 89.12 68.27"><defs><style>.cls-1{fill:#dddada;}.cls-2{fill:#2e4347;}</style></defs><title>ico_card</title><rect class="cls-1" x="24.98" y="23.3" width="60.17" height="40.11"/><g id="Finance"><path class="cls-2" d="M27.36,20.06h43.1l-7-15.48A5.23,5.23,0,0,0,56.58,2L4.11,25.55a5.23,5.23,0,0,0-2.63,6.91l15,33.38a5.21,5.21,0,0,0,4.34,3,7.79,7.79,0,0,1-1.31-4.34V27.91A7.85,7.85,0,0,1,27.36,20.06ZM48.29,59.3h5.23a2.62,2.62,0,1,0,0-5.23H48.29a2.62,2.62,0,0,0,0,5.23ZM84.91,22.68H27.36a5.23,5.23,0,0,0-5.23,5.23V64.54a5.23,5.23,0,0,0,5.23,5.23H84.91a5.24,5.24,0,0,0,5.24-5.23V27.91A5.24,5.24,0,0,0,84.91,22.68Zm0,39.24a2.62,2.62,0,0,1-2.61,2.62H30a2.63,2.63,0,0,1-2.62-2.62V43.61H84.91Zm0-26.16H27.36V30.53A2.62,2.62,0,0,1,30,27.91H82.3a2.61,2.61,0,0,1,2.61,2.62ZM35.21,59.3h5.23a2.62,2.62,0,1,0,0-5.23H35.21a2.62,2.62,0,0,0,0,5.23Zm26.16,0H66.6a2.62,2.62,0,1,0,0-5.23H61.37a2.62,2.62,0,0,0,0,5.23Z" transform="translate(-1.02 -1.5)"/></g></svg>