<svg id="Capa_1" data-name="Capa 1" xmlns="http://www.w3.org/2000/svg" viewBox="0 0 93.06 93.06"><defs><style>.cls-1{fill:#cdd4de;}.cls-2{fill:#f2cf64;}.cls-3{fill:#e6b455;}.cls-4{fill:#2e4347;}.cls-5{fill:#d04944;}</style></defs><title>ico_prize</title><polygon class="cls-1" points="58.94 73.48 34.51 73.48 37.22 68.82 44.01 57.58 49.24 57.58 56.03 68.82 58.94 73.48"/><path class="cls-2" d="M77.51,5.75V39.48a29.28,29.28,0,0,1-58.55,0V5.75Z" transform="translate(-1.71 -1.48)"/><path class="cls-3" d="M20.7,48.59l-3.49-1.35L6.75,43.36a7.75,7.75,0,0,1-5-7.37V16.22A7.77,7.77,0,0,1,9.46,8.46h9.69v7.76H9.46v20h0l6.79,2.52,2.9,1.16A26,26,0,0,0,20.7,48.59Z" transform="translate(-1.71 -1.48)"/><path class="cls-3" d="M94.76,16.22v20a8,8,0,0,1-5,7.36L79.64,47.43l-3.49,1.36a26.53,26.53,0,0,0,1.36-8.73l2.91-1.16,6.39-2.52h0V16.22h-9.5V8.46h9.5A7.82,7.82,0,0,1,94.76,16.22Z" transform="translate(-1.71 -1.48)"/><path class="cls-3" d="M77.51,1.48H19.15a2.14,2.14,0,0,0,0,4.27H77.51a2.14,2.14,0,0,0,0-4.27Z" transform="translate(-1.71 -1.48)"/><path class="cls-4" d="M71.89,75H24.78a3.89,3.89,0,0,0-3.88,3.88v15.7H75.76V78.84A3.89,3.89,0,0,0,71.89,75Z" transform="translate(-1.71 -1.48)"/><polygon class="cls-5" points="40.91 36.64 33.15 31.02 25.4 36.64 25.4 4.26 40.91 4.26 40.91 36.64"/></svg>