<svg id="Capa_1" data-name="Capa 1" xmlns="http://www.w3.org/2000/svg" viewBox="0 0 95.54 79.8"><defs><style>.cls-1{fill:#609399;}.cls-2{fill:#1b4145;}.cls-3{fill:#6fc5d6;}</style></defs><title>ico_tv</title><g id="tv"><rect class="cls-1" x="42.34" y="56.45" width="10.86" height="21.71"/><path class="cls-2" d="M96.79,61.84A2.18,2.18,0,0,1,94.62,64H3.42a2.18,2.18,0,0,1-2.17-2.17V3.22A2.18,2.18,0,0,1,3.42,1h91.2a2.18,2.18,0,0,1,2.17,2.18Z" transform="translate(-1.25 -1.04)"/><rect class="cls-3" x="6.51" y="6.51" width="82.51" height="49.94"/><path class="cls-2" d="M75.07,80.84H23a1.63,1.63,0,1,1,0-3.26H75.07a1.63,1.63,0,1,1,0,3.26Z" transform="translate(-1.25 -1.04)"/></g></svg>