<svg id="Capa_1" data-name="Capa 1" xmlns="http://www.w3.org/2000/svg" viewBox="0 0 79 97.09"><defs><style>.cls-1{fill-rule:evenodd;}</style></defs><title>ico_notificacion</title><g id="Shape_1_copy" data-name="Shape 1 copy"><path class="cls-1" d="M41,99A11.09,11.09,0,0,0,52.1,88H29.9A11.09,11.09,0,0,0,41,99ZM80.1,81,74.29,71.3V43.79a33.64,33.64,0,0,0-25-32.44V10.28a8.32,8.32,0,1,0-16.64,0v1.05a33.28,33.28,0,0,0-25,32.24V71.3L1.9,81a2.77,2.77,0,0,0,2.38,4.2H77.72A2.77,2.77,0,0,0,80.1,81Z" transform="translate(-1.5 -1.96)"/></g></svg>