<?xml version="1.0" encoding="UTF-8" standalone="no"?>
<svg
   xmlns:dc="http://purl.org/dc/elements/1.1/"
   xmlns:cc="http://creativecommons.org/ns#"
   xmlns:rdf="http://www.w3.org/1999/02/22-rdf-syntax-ns#"
   xmlns:svg="http://www.w3.org/2000/svg"
   xmlns="http://www.w3.org/2000/svg"
   xmlns:sodipodi="http://sodipodi.sourceforge.net/DTD/sodipodi-0.dtd"
   xmlns:inkscape="http://www.inkscape.org/namespaces/inkscape"
   id="Capa_1"
   data-name="Capa 1"
   viewBox="0 0 98.000002 97.999998"
   version="1.1"
   sodipodi:docname="ico_factura.svg"
   width="98"
   height="98"
   inkscape:version="0.92.2 (5c3e80d, 2017-08-06)">
  <metadata
     id="metadata208">
    <rdf:RDF>
      <cc:Work
         rdf:about="">
        <dc:format>image/svg+xml</dc:format>
        <dc:type
           rdf:resource="http://purl.org/dc/dcmitype/StillImage" />
        <dc:title>icos_factura</dc:title>
      </cc:Work>
    </rdf:RDF>
  </metadata>
  <sodipodi:namedview
     pagecolor="#ffffff"
     bordercolor="#666666"
     borderopacity="1"
     objecttolerance="10"
     gridtolerance="10"
     guidetolerance="10"
     inkscape:pageopacity="0"
     inkscape:pageshadow="2"
     inkscape:window-width="1920"
     inkscape:window-height="996"
     id="namedview206"
     showgrid="false"
     inkscape:zoom="2.4202645"
     inkscape:cx="48.244999"
     inkscape:cy="48.755001"
     inkscape:window-x="-8"
     inkscape:window-y="-8"
     inkscape:window-maximized="1"
     inkscape:current-layer="Capa_1" />
  <defs
     id="defs177">
    <style
       id="style175">.cls-1{fill:#e0dcdc;}.cls-2{fill:#c2b8b9;}.cls-3{fill:#609399;}.cls-4{fill:#fff;}</style>
  </defs>
  <title
     id="title179">icos_factura</title>
  <g
     id="g222"
     transform="translate(0.735,0.24008142)">
    <path
       id="path181"
       transform="translate(-1.47,-1.24)"
       d="m 12.55,1.24 a 11.06,11.06 0 0 0 -11.08,11 v 86.52 l 5.39,-5.39 5.29,5.3 5.3,-5.3 5.3,5.3 5.25,-5.3 5.3,5.3 5.3,-5.3 5.3,5.3 5.29,-5.3 5.3,5.3 5.3,-5.3 5.29,5.3 5.3,-5.3 5.38,5.39 v -63 L 86.88,1.24 Z"
       class="cls-1"
       inkscape:connector-curvature="0"
       style="fill:#e0dcdc" />
    <path
       id="path183"
       transform="translate(-1.47,-1.24)"
       d="m 86.88,1.24 v 0 a 11.06,11.06 0 0 0 -11.08,11 v 23.5 H 98 V 12.28 A 11.06,11.06 0 0 0 86.88,1.24 Z"
       class="cls-2"
       inkscape:connector-curvature="0"
       style="fill:#c2b8b9" />
    <path
       id="path185"
       transform="translate(-1.47,-1.24)"
       d="M 7.9,15.12 A 2.08,2.08 0 0 0 10,17.2 h 17.54 a 2.08,2.08 0 1 0 0,-4.16 H 10 a 2.08,2.08 0 0 0 -2.1,2.08 z"
       class="cls-3"
       inkscape:connector-curvature="0"
       style="fill:#609399" />
    <path
       id="path187"
       transform="translate(-1.47,-1.24)"
       d="m 7.9,27.6 a 2.08,2.08 0 0 0 2.1,2.08 h 26.86 a 2.08,2.08 0 0 0 0,-4.16 H 10 A 2.08,2.08 0 0 0 7.9,27.6 Z"
       class="cls-4"
       inkscape:connector-curvature="0"
       style="fill:#ffffff" />
    <path
       id="path189"
       transform="translate(-1.47,-1.24)"
       d="m 7.9,40.07 a 2.09,2.09 0 0 0 2.1,2.09 h 26.86 a 2.09,2.09 0 0 0 0,-4.17 H 10 a 2.08,2.08 0 0 0 -2.1,2.08 z"
       class="cls-4"
       inkscape:connector-curvature="0"
       style="fill:#ffffff" />
    <path
       id="path191"
       transform="translate(-1.47,-1.24)"
       d="m 7.9,52.56 a 2.08,2.08 0 0 0 2.1,2.08 h 35.49 a 2.08,2.08 0 0 0 0,-4.16 H 10 a 2.08,2.08 0 0 0 -2.1,2.08 z"
       class="cls-4"
       inkscape:connector-curvature="0"
       style="fill:#ffffff" />
    <path
       id="path193"
       transform="translate(-1.47,-1.24)"
       d="m 7.9,65 a 2.08,2.08 0 0 0 2.1,2.12 h 20.51 a 2.08,2.08 0 0 0 0,-4.16 H 10 A 2.08,2.08 0 0 0 7.9,65 Z"
       class="cls-4"
       inkscape:connector-curvature="0"
       style="fill:#ffffff" />
    <path
       id="path195"
       transform="translate(-1.47,-1.24)"
       d="M 7.9,77.51 A 2.09,2.09 0 0 0 10,79.6 h 26.86 a 2.09,2.09 0 0 0 0,-4.17 H 10 a 2.08,2.08 0 0 0 -2.1,2.08 z"
       class="cls-4"
       inkscape:connector-curvature="0"
       style="fill:#ffffff" />
    <path
       id="path197"
       transform="translate(-1.47,-1.24)"
       d="M 59.94,40.07 A 2.09,2.09 0 0 0 62,42.16 h 5 A 2.09,2.09 0 0 0 67,38 h -5 a 2.08,2.08 0 0 0 -2.08,2.08 z"
       class="cls-4"
       inkscape:connector-curvature="0"
       style="fill:#ffffff" />
    <path
       id="path199"
       transform="translate(-1.47,-1.24)"
       d="M 59.94,52.56 A 2.08,2.08 0 0 0 62,54.64 h 5 a 2.08,2.08 0 0 0 0,-4.16 h -5 a 2.08,2.08 0 0 0 -2.08,2.08 z"
       class="cls-4"
       inkscape:connector-curvature="0"
       style="fill:#ffffff" />
    <path
       id="path201"
       transform="translate(-1.47,-1.24)"
       d="M 59.94,65 A 2.08,2.08 0 0 0 62,67.12 h 5 A 2.08,2.08 0 0 0 67,63 h -5 a 2.08,2.08 0 0 0 -2.06,2 z"
       class="cls-4"
       inkscape:connector-curvature="0"
       style="fill:#ffffff" />
    <path
       id="path203"
       transform="translate(-1.47,-1.24)"
       d="M 59.94,77.51 A 2.09,2.09 0 0 0 62,79.6 h 5 a 2.09,2.09 0 0 0 0,-4.17 h -5 a 2.08,2.08 0 0 0 -2.08,2.08 z"
       class="cls-4"
       inkscape:connector-curvature="0"
       style="fill:#ffffff" />
  </g>
</svg>
