<?xml version="1.0" encoding="UTF-8" standalone="no"?>
<svg
   xmlns:dc="http://purl.org/dc/elements/1.1/"
   xmlns:cc="http://creativecommons.org/ns#"
   xmlns:rdf="http://www.w3.org/1999/02/22-rdf-syntax-ns#"
   xmlns:svg="http://www.w3.org/2000/svg"
   xmlns="http://www.w3.org/2000/svg"
   xmlns:sodipodi="http://sodipodi.sourceforge.net/DTD/sodipodi-0.dtd"
   xmlns:inkscape="http://www.inkscape.org/namespaces/inkscape"
   id="Capa_1"
   data-name="Capa 1"
   viewBox="0 0 97.999998 98.000002"
   version="1.1"
   sodipodi:docname="ico_sim.svg"
   width="98"
   height="98"
   inkscape:version="0.92.2 (5c3e80d, 2017-08-06)">
  <metadata
     id="metadata719">
    <rdf:RDF>
      <cc:Work
         rdf:about="">
        <dc:format>image/svg+xml</dc:format>
        <dc:type
           rdf:resource="http://purl.org/dc/dcmitype/StillImage" />
        <dc:title>icos_sim</dc:title>
      </cc:Work>
    </rdf:RDF>
  </metadata>
  <sodipodi:namedview
     pagecolor="#ffffff"
     bordercolor="#666666"
     borderopacity="1"
     objecttolerance="10"
     gridtolerance="10"
     guidetolerance="10"
     inkscape:pageopacity="0"
     inkscape:pageshadow="2"
     inkscape:window-width="1920"
     inkscape:window-height="996"
     id="namedview717"
     showgrid="false"
     inkscape:zoom="2.4242425"
     inkscape:cx="30.065001"
     inkscape:cy="48.674999"
     inkscape:window-x="-8"
     inkscape:window-y="-8"
     inkscape:window-maximized="1"
     inkscape:current-layer="Capa_1" />
  <defs
     id="defs707">
    <style
       id="style705">.cls-1{fill:#bdb6b6;}.cls-2{fill:#2e4347;fill-rule:evenodd;}</style>
  </defs>
  <title
     id="title709">icos_sim</title>
  <g
     id="g724"
     transform="translate(18.955,-0.32496219)">
    <rect
       style="fill:#bdb6b6"
       x="0"
       id="rect711"
       height="55.869999"
       width="54.400002"
       y="36.540001"
       class="cls-1" />
    <g
       transform="translate(0,0.65000153)"
       data-name="Rectangle 57"
       id="Rectangle_57">
      <path
         style="fill:#2e4347;fill-rule:evenodd"
         inkscape:connector-curvature="0"
         id="path713"
         transform="translate(-1.03,-1.48)"
         d="M 41.11,1.48 H 6.75 A 5.72,5.72 0 0 0 1,7.2 v 85.9 a 5.73,5.73 0 0 0 5.72,5.73 H 55.43 A 5.73,5.73 0 0 0 61.15,93.1 V 21.52 Z M 6.75,47.29 A 2.88,2.88 0 0 1 9.62,44.42 H 21.07 V 58.74 H 6.75 Z M 21.07,93.1 H 9.62 A 2.87,2.87 0 0 1 6.75,90.24 V 78.78 h 14.32 z m 17.18,0 H 23.93 V 78.78 h 14.32 z m 0,-17.18 H 6.75 V 61.6 H 23.93 V 44.42 H 38.25 Z M 55.43,90.24 A 2.86,2.86 0 0 1 52.56,93.1 H 41.11 V 78.78 h 14.32 z m 0,-14.32 H 41.11 V 61.6 h 14.32 z m 0,-17.18 H 41.11 V 44.42 h 11.45 a 2.87,2.87 0 0 1 2.87,2.87 z"
         class="cls-2" />
    </g>
  </g>
</svg>
