<?xml version="1.0" encoding="UTF-8" standalone="no"?>
<svg
   xmlns:dc="http://purl.org/dc/elements/1.1/"
   xmlns:cc="http://creativecommons.org/ns#"
   xmlns:rdf="http://www.w3.org/1999/02/22-rdf-syntax-ns#"
   xmlns:svg="http://www.w3.org/2000/svg"
   xmlns="http://www.w3.org/2000/svg"
   xmlns:sodipodi="http://sodipodi.sourceforge.net/DTD/sodipodi-0.dtd"
   xmlns:inkscape="http://www.inkscape.org/namespaces/inkscape"
   id="Capa_1"
   data-name="Capa 1"
   viewBox="0 0 96.999997 97"
   version="1.1"
   sodipodi:docname="ico_casa.svg"
   width="97"
   height="97"
   inkscape:version="0.92.2 (5c3e80d, 2017-08-06)">
  <metadata
     id="metadata240">
    <rdf:RDF>
      <cc:Work
         rdf:about="">
        <dc:format>image/svg+xml</dc:format>
        <dc:type
           rdf:resource="http://purl.org/dc/dcmitype/StillImage" />
        <dc:title>ico_casa</dc:title>
      </cc:Work>
    </rdf:RDF>
  </metadata>
  <sodipodi:namedview
     pagecolor="#ffffff"
     bordercolor="#666666"
     borderopacity="1"
     objecttolerance="10"
     gridtolerance="10"
     guidetolerance="10"
     inkscape:pageopacity="0"
     inkscape:pageshadow="2"
     inkscape:window-width="1920"
     inkscape:window-height="996"
     id="namedview238"
     showgrid="false"
     inkscape:zoom="2.4712042"
     inkscape:cx="48.310001"
     inkscape:cy="47.75"
     inkscape:window-x="-8"
     inkscape:window-y="-8"
     inkscape:window-maximized="1"
     inkscape:current-layer="Capa_1" />
  <defs
     id="defs220">
    <style
       id="style218">.cls-1{fill:#c2b8b9;}.cls-2{fill:#f26f5a;}.cls-3{fill:#f05640;}.cls-4{fill:#e8eae8;}.cls-5{fill:#1b4145;}</style>
  </defs>
  <title
     id="title222">ico_casa</title>
  <g
     id="casa"
     transform="translate(0.19,0.75)">
    <path
       class="cls-1"
       d="m 89.55,92.69 h -79 a 2.045,2.045 0 0 0 0,4.09 h 79 a 2.045,2.045 0 0 0 0,-4.09 z"
       transform="translate(-1.29,-1.28)"
       id="path224"
       inkscape:connector-curvature="0"
       style="fill:#c2b8b9" />
    <path
       class="cls-2"
       d="M 91,45.31 50.16,15.58 8.16,46.24 1.29,37 50.16,1.28 97.91,36 Z"
       transform="translate(-1.29,-1.28)"
       id="path226"
       inkscape:connector-curvature="0"
       style="fill:#f26f5a" />
    <path
       class="cls-3"
       d="m 82.86,25.06 v -21 h -9.29 v 14.12 z"
       transform="translate(-1.29,-1.28)"
       id="path228"
       inkscape:connector-curvature="0"
       style="fill:#f05640" />
    <path
       class="cls-4"
       d="M 50.16,15.58 13.55,42.34 V 96.78 H 86.76 V 42 Z"
       transform="translate(-1.29,-1.28)"
       id="path230"
       inkscape:connector-curvature="0"
       style="fill:#e8eae8" />
    <path
       class="cls-5"
       d="M 23.22,67.61 H 45 V 96.78 H 23.22 Z"
       transform="translate(-1.29,-1.28)"
       id="path232"
       inkscape:connector-curvature="0"
       style="fill:#1b4145" />
    <path
       class="cls-1"
       d="m 51.09,50 h -1.86 a 8.26,8.26 0 0 1 -8.18,-8.18 v -1.9 a 8.25,8.25 0 0 1 8.18,-8.17 h 1.86 a 8.24,8.24 0 0 1 8.17,8.17 v 1.86 A 8.25,8.25 0 0 1 51.09,50 Z M 77.28,65.6 H 55 a 2.07,2.07 0 0 0 -2.05,2 V 89.9 A 2.07,2.07 0 0 0 55,92 h 22.28 a 2.07,2.07 0 0 0 2,-2 V 67.61 a 2.07,2.07 0 0 0 -2,-2 z m -2,11.15 h -7.1 v -7.1 h 7.06 z M 64.09,69.84 V 76.9 H 57 V 69.84 Z M 57,81 h 7.06 v 7.07 H 57 Z m 11.15,6.88 V 80.8 h 7.06 v 7.06 z"
       transform="translate(-1.29,-1.28)"
       id="path234"
       inkscape:connector-curvature="0"
       style="fill:#c2b8b9" />
  </g>
</svg>
