<svg id="Capa_1" data-name="Capa 1" xmlns="http://www.w3.org/2000/svg" viewBox="0 0 73.05 84"><defs><style>.cls-1{fill:#ba1e80;}</style></defs><title>ico_perfil</title><path id="perfil" class="cls-1" d="M74,78.07c-1.35-12.48-6.26-16.32-22.73-23.31-5-2.14-6.69-4.31-6.44-8.53,4.87-3.84,11-10.67,11-23C55.78,10.62,51.27,1,37.52,1s-18.26,9.63-18.26,22.2c0,12.37,6.09,19.2,11,23,.24,4.22-1.42,6.39-6.44,8.53C7.31,61.75,2.39,65.59,1,78.07.65,81.75,2.89,85,7.28,85H67.77C72.15,85,74.39,81.75,74,78.07Z" transform="translate(-1 -0.99)"/></svg>