<?xml version="1.0" encoding="UTF-8" standalone="no"?>
<svg
   xmlns:dc="http://purl.org/dc/elements/1.1/"
   xmlns:cc="http://creativecommons.org/ns#"
   xmlns:rdf="http://www.w3.org/1999/02/22-rdf-syntax-ns#"
   xmlns:svg="http://www.w3.org/2000/svg"
   xmlns="http://www.w3.org/2000/svg"
   xmlns:sodipodi="http://sodipodi.sourceforge.net/DTD/sodipodi-0.dtd"
   xmlns:inkscape="http://www.inkscape.org/namespaces/inkscape"
   id="Capa_1"
   data-name="Capa 1"
   viewBox="0 0 88.000002 88.000002"
   version="1.1"
   sodipodi:docname="ico_home.svg"
   width="88"
   height="88"
   inkscape:version="0.92.2 (5c3e80d, 2017-08-06)">
  <metadata
     id="metadata46">
    <rdf:RDF>
      <cc:Work
         rdf:about="">
        <dc:format>image/svg+xml</dc:format>
        <dc:type
           rdf:resource="http://purl.org/dc/dcmitype/StillImage" />
        <dc:title>ico_home</dc:title>
      </cc:Work>
    </rdf:RDF>
  </metadata>
  <defs
     id="defs44" />
  <sodipodi:namedview
     pagecolor="#ffffff"
     bordercolor="#666666"
     borderopacity="1"
     objecttolerance="10"
     gridtolerance="10"
     guidetolerance="10"
     inkscape:pageopacity="0"
     inkscape:pageshadow="2"
     inkscape:window-width="1920"
     inkscape:window-height="996"
     id="namedview42"
     showgrid="false"
     inkscape:zoom="2.8229666"
     inkscape:cx="43.549999"
     inkscape:cy="41.799999"
     inkscape:window-x="-8"
     inkscape:window-y="-8"
     inkscape:window-maximized="1"
     inkscape:current-layer="Capa_1" />
  <title
     id="title37">ico_home</title>
  <path
     d="m 85.374378,38.934287 -36.57,-34.8200009 a 7,7 0 0 0 -9.65,0 l -14.32,13.6600009 V 9.1142866 a 3.48,3.48 0 0 0 -3.48,-3.4500005 h -3.48 a 3.48,3.48 0 0 0 -3.49,3.4500005 V 27.724287 l -11.7699996,11.21 a 7,7 0 0 0 4.81,12 h 6.9999996 v 27.88 a 7,7 0 0 0 7,7 h 45.21 a 7,7 0 0 0 7,-7 v -27.87 h 7 a 7,7 0 0 0 4.74,-12.01 z m -32.67,25.95 a 3.48,3.48 0 0 1 -3.48,3.48 h -10.45 a 3.48,3.48 0 0 1 -3.49,-3.48 v -10.45 a 3.49,3.49 0 0 1 3.49,-3.49 h 10.45 a 3.48,3.48 0 0 1 3.48,3.49 z"
     id="path39"
     inkscape:connector-curvature="0" />
</svg>
