<?xml version="1.0" encoding="UTF-8" standalone="no"?>
<svg
   xmlns:dc="http://purl.org/dc/elements/1.1/"
   xmlns:cc="http://creativecommons.org/ns#"
   xmlns:rdf="http://www.w3.org/1999/02/22-rdf-syntax-ns#"
   xmlns:svg="http://www.w3.org/2000/svg"
   xmlns="http://www.w3.org/2000/svg"
   xmlns:sodipodi="http://sodipodi.sourceforge.net/DTD/sodipodi-0.dtd"
   xmlns:inkscape="http://www.inkscape.org/namespaces/inkscape"
   id="Capa_1"
   data-name="Capa 1"
   viewBox="0 0 98.999997 98.999998"
   version="1.1"
   sodipodi:docname="ico_descargarFactura.svg"
   width="99"
   height="99"
   inkscape:version="0.92.2 (5c3e80d, 2017-08-06)">
  <metadata
     id="metadata231">
    <rdf:RDF>
      <cc:Work
         rdf:about="">
        <dc:format>image/svg+xml</dc:format>
        <dc:type
           rdf:resource="http://purl.org/dc/dcmitype/StillImage" />
        <dc:title>ico_descargarFactura</dc:title>
      </cc:Work>
    </rdf:RDF>
  </metadata>
  <sodipodi:namedview
     pagecolor="#ffffff"
     bordercolor="#666666"
     borderopacity="1"
     objecttolerance="10"
     gridtolerance="10"
     guidetolerance="10"
     inkscape:pageopacity="0"
     inkscape:pageshadow="2"
     inkscape:window-width="1920"
     inkscape:window-height="996"
     id="namedview229"
     showgrid="false"
     inkscape:zoom="2.4202645"
     inkscape:cx="49.025002"
     inkscape:cy="48.755001"
     inkscape:window-x="-8"
     inkscape:window-y="-8"
     inkscape:window-maximized="1"
     inkscape:current-layer="Capa_1" />
  <defs
     id="defs198">
    <style
       id="style196">.cls-1{fill:#e0dcdc;}.cls-2{fill:#c2b8b9;}.cls-3{fill:#609399;}.cls-4{fill:#fff;}.cls-5{fill:#1b4145;fill-rule:evenodd;}</style>
  </defs>
  <title
     id="title200">ico_descargarFactura</title>
  <g
     id="g246"
     transform="translate(0.47,-0.74991653)">
    <path
       style="fill:#e0dcdc"
       inkscape:connector-curvature="0"
       id="path202"
       d="M 11.08,1.4899979 A 11.06,11.06 0 0 0 0,12.489998 v 86.52 l 5.39,-5.39 5.29,5.3 5.3,-5.3 5.3,5.3 5.25,-5.3 5.3,5.3 5.3,-5.3 5.3,5.3 5.29,-5.3 5.3,5.3 5.3,-5.3 5.29,5.3 5.3,-5.3 5.38,5.39 v -63 L 85.41,1.4899979 Z"
       class="cls-1" />
    <path
       style="fill:#c2b8b9"
       inkscape:connector-curvature="0"
       id="path204"
       d="m 85.41,1.4899979 v 0 A 11.06,11.06 0 0 0 74.33,12.489998 v 23.5 h 22.2 v -23.46 A 11.06,11.06 0 0 0 85.41,1.4899979 Z"
       class="cls-2" />
    <path
       style="fill:#609399"
       inkscape:connector-curvature="0"
       id="path206"
       d="m 6.43,15.369998 a 2.08,2.08 0 0 0 2.1,2.08 h 17.54 a 2.08,2.08 0 1 0 0,-4.16 H 8.53 a 2.08,2.08 0 0 0 -2.1,2.08 z"
       class="cls-3" />
    <path
       style="fill:#ffffff"
       inkscape:connector-curvature="0"
       id="path208"
       d="m 6.43,27.849998 a 2.08,2.08 0 0 0 2.1,2.08 h 26.86 a 2.08,2.08 0 0 0 0,-4.16 H 8.53 a 2.08,2.08 0 0 0 -2.1,2.08 z"
       class="cls-4" />
    <path
       style="fill:#ffffff"
       inkscape:connector-curvature="0"
       id="path210"
       d="m 6.43,40.319998 a 2.09,2.09 0 0 0 2.1,2.09 h 26.86 a 2.09,2.09 0 0 0 0,-4.17 H 8.53 a 2.08,2.08 0 0 0 -2.1,2.08 z"
       class="cls-4" />
    <path
       style="fill:#ffffff"
       inkscape:connector-curvature="0"
       id="path212"
       d="m 6.43,52.809998 a 2.08,2.08 0 0 0 2.1,2.08 h 35.49 a 2.08,2.08 0 0 0 0,-4.16 H 8.53 a 2.08,2.08 0 0 0 -2.1,2.08 z"
       class="cls-4" />
    <path
       style="fill:#ffffff"
       inkscape:connector-curvature="0"
       id="path214"
       d="m 6.43,65.249998 a 2.08,2.08 0 0 0 2.1,2.12 h 20.51 a 2.08,2.08 0 0 0 0,-4.16 H 8.53 a 2.08,2.08 0 0 0 -2.1,2.04 z"
       class="cls-4" />
    <path
       style="fill:#ffffff"
       inkscape:connector-curvature="0"
       id="path216"
       d="m 6.43,77.759998 a 2.09,2.09 0 0 0 2.1,2.09 h 26.86 a 2.09,2.09 0 0 0 0,-4.17 H 8.53 a 2.08,2.08 0 0 0 -2.1,2.08 z"
       class="cls-4" />
    <path
       style="fill:#ffffff"
       inkscape:connector-curvature="0"
       id="path218"
       d="m 58.47,40.319998 a 2.09,2.09 0 0 0 2.06,2.09 h 5 a 2.09,2.09 0 0 0 0,-4.16 h -5 a 2.08,2.08 0 0 0 -2.08,2.08 z"
       class="cls-4" />
    <path
       style="fill:#ffffff"
       inkscape:connector-curvature="0"
       id="path220"
       d="m 58.47,52.809998 a 2.08,2.08 0 0 0 2.06,2.08 h 5 a 2.08,2.08 0 0 0 0,-4.16 h -5 a 2.08,2.08 0 0 0 -2.08,2.08 z"
       class="cls-4" />
    <path
       style="fill:#ffffff"
       inkscape:connector-curvature="0"
       id="path222"
       d="m 58.47,65.249998 a 2.08,2.08 0 0 0 2.06,2.12 h 5 a 2.08,2.08 0 0 0 0,-4.12 h -5 a 2.08,2.08 0 0 0 -2.06,2 z"
       class="cls-4" />
    <path
       style="fill:#ffffff"
       inkscape:connector-curvature="0"
       id="path224"
       d="m 58.47,77.759998 a 2.09,2.09 0 0 0 2.06,2.09 h 5 a 2.09,2.09 0 0 0 0,-4.17 h -5 a 2.08,2.08 0 0 0 -2.08,2.08 z"
       class="cls-4" />
    <path
       style="fill:#1b4145;fill-rule:evenodd"
       inkscape:connector-curvature="0"
       id="path226"
       d="m 65.98,32.299998 h 16.85 a 1.06,1.06 0 0 0 0.2,0.12 3.85,3.85 0 0 1 3.21,4.06 c 0,6.2 0,12.39 0,18.59 v 1 h 11.82 c -0.27,0.29 -0.42,0.48 -0.59,0.65 -6.22,6.26 -12.42,12.53 -18.67,18.68 -2.8,2.78 -6.13,2.76 -8.94,0 q -9.33,-9.26 -18.55,-18.55 c -0.2,-0.2 -0.37,-0.42 -0.7,-0.79 h 11.83 v -2.2 c 0,-5.66 0,-11.32 0,-17 0,-2.38 1,-4.05 3.4,-4.5 a 0.5,0.5 0 0 0 0.14,-0.06 z"
       class="cls-5" />
  </g>
</svg>
