<?xml version="1.0" encoding="utf-8"?>
<!-- Generator: Adobe Illustrator 22.1.0, SVG Export Plug-In . SVG Version: 6.00 Build 0)  -->
<svg version="1.1" id="Capa_1" xmlns="http://www.w3.org/2000/svg" xmlns:xlink="http://www.w3.org/1999/xlink" x="0px" y="0px"
	 viewBox="0 0 100 100" style="enable-background:new 0 0 100 100;" xml:space="preserve">
<style type="text/css">
	.st0{fill:#BDB6B6;}
	.st1{fill:#FFFFFF;}
	.st2{fill:#5D5454;}
	.st3{fill:#2E4347;}
	.st4{fill:#F0CA30;}
</style>
<g id="Bonos_x5F_generico">
	<g>
		<path class="st0" d="M20.6,89.4c0,4.7,3.8,8.5,8.5,8.5h39.7c4.7,0,8.5-3.8,8.5-8.5V78.3L49,74.1l-28.4,4.3V89.4z"/>
		<path class="st0" d="M77.4,10.5c0-4.7-3.8-8.5-8.5-8.5H29.2c-4.7,0-8.5,3.8-8.5,8.5v11.1L49,25.9l28.4-4.3V10.5z"/>
	</g>
	<circle class="st1" cx="49" cy="88.2" r="3.2"/>
	<path class="st2" d="M55.7,13.4H42.3c-0.9,0-1.6-0.7-1.6-1.6s0.7-1.6,1.6-1.6h13.4c0.9,0,1.6,0.7,1.6,1.6S56.6,13.4,55.7,13.4z"/>
	<rect x="20.6" y="21.6" class="st3" width="56.7" height="56.7"/>
	<polygon class="st4" points="46.7,40.3 50,50.7 60.9,50.7 52.1,57.1 55.5,67.4 46.7,61 37.9,67.4 41.2,57.1 32.4,50.7 43.3,50.7 	
		"/>
	<polygon class="st4" points="58.2,27.6 60.5,34.7 67.8,34.7 61.9,39 64.2,46 58.2,41.7 52.2,46 54.5,39 48.5,34.7 55.9,34.7 	"/>
</g>
</svg>
