<?xml version="1.0" encoding="UTF-8" standalone="no"?>
<svg
   xmlns:dc="http://purl.org/dc/elements/1.1/"
   xmlns:cc="http://creativecommons.org/ns#"
   xmlns:rdf="http://www.w3.org/1999/02/22-rdf-syntax-ns#"
   xmlns:svg="http://www.w3.org/2000/svg"
   xmlns="http://www.w3.org/2000/svg"
   xmlns:sodipodi="http://sodipodi.sourceforge.net/DTD/sodipodi-0.dtd"
   xmlns:inkscape="http://www.inkscape.org/namespaces/inkscape"
   id="Capa_1"
   data-name="Capa 1"
   viewBox="0 0 97.000002 97.000002"
   version="1.1"
   sodipodi:docname="ico_renove.svg"
   width="97"
   height="97"
   inkscape:version="0.92.2 (5c3e80d, 2017-08-06)">
  <metadata
     id="metadata551">
    <rdf:RDF>
      <cc:Work
         rdf:about="">
        <dc:format>image/svg+xml</dc:format>
        <dc:type
           rdf:resource="http://purl.org/dc/dcmitype/StillImage" />
        <dc:title>ico_renove</dc:title>
      </cc:Work>
    </rdf:RDF>
  </metadata>
  <sodipodi:namedview
     pagecolor="#ffffff"
     bordercolor="#666666"
     borderopacity="1"
     objecttolerance="10"
     gridtolerance="10"
     guidetolerance="10"
     inkscape:pageopacity="0"
     inkscape:pageshadow="2"
     inkscape:window-width="1920"
     inkscape:window-height="996"
     id="namedview549"
     showgrid="false"
     inkscape:zoom="2.4332406"
     inkscape:cx="28.355"
     inkscape:cy="48.494999"
     inkscape:window-x="-8"
     inkscape:window-y="-8"
     inkscape:window-maximized="1"
     inkscape:current-layer="Capa_1" />
  <defs
     id="defs532">
    <style
       id="style530">.cls-1{fill:#bdb6b6;}.cls-2{fill:#fff;}.cls-3{fill:#5d5454;}.cls-4{fill:#2e4347;}.cls-5{fill:#d04944;}</style>
  </defs>
  <title
     id="title534">ico_renove</title>
  <g
     id="g559"
     transform="translate(20.140003,-0.02500207)">
    <path
       style="fill:#bdb6b6"
       inkscape:connector-curvature="0"
       id="path536"
       d="m 0,88.470002 a 8.56,8.56 0 0 0 8.53,8.57 h 39.65 a 8.56,8.56 0 0 0 8.53,-8.53 v -11.13 l -28.35,-4.26 -28.36,4.26 z"
       class="cls-1" />
    <path
       style="fill:#bdb6b6"
       inkscape:connector-curvature="0"
       id="path538"
       d="m 56.71,9.5800021 a 8.55,8.55 0 0 0 -8.53,-8.54 H 8.53 a 8.55,8.55 0 0 0 -8.53,8.52 V 20.670002 l 28.36,4.26 28.36,-4.26 z"
       class="cls-1" />
    <circle
       style="fill:#ffffff"
       id="circle540"
       r="3.2"
       cy="87.190002"
       cx="28.360001"
       class="cls-2" />
    <path
       style="fill:#5d5454"
       inkscape:connector-curvature="0"
       id="path542"
       d="M 35.07,12.470002 H 21.64 a 1.6,1.6 0 0 1 0,-3.1999999 h 13.43 a 1.6,1.6 0 1 1 0,3.1999999 z"
       class="cls-3" />
    <rect
       style="fill:#2e4347"
       x="0"
       id="rect544"
       height="56.709999"
       width="56.709999"
       y="20.670002"
       class="cls-4" />
    <polygon
       transform="translate(0,0.01000214)"
       style="fill:#d04944"
       id="polygon546"
       points="13.89,27.58 5.89,33.38 5.89,0 21.88,0 21.88,33.38 "
       class="cls-5" />
  </g>
</svg>
