<svg id="Capa_1" data-name="Capa 1" xmlns="http://www.w3.org/2000/svg" viewBox="0 0 140.81 145.09"><defs><style>.cls-1{fill:none;stroke:#000;stroke-miterlimit:10;stroke-width:3.08px;}.cls-2{fill:#da1884;}</style></defs><title>logo_deposito</title><rect class="cls-1" x="62.97" y="1.54" width="76.3" height="142.01" rx="16.63" ry="16.63"/><line class="cls-1" x1="63.29" y1="21.84" x2="138.94" y2="21.84"/><line class="cls-1" x1="63.29" y1="122.03" x2="138.94" y2="122.03"/><circle cx="101.11" cy="131.86" r="2.91"/><rect x="91.87" y="10.48" width="18.5" height="3.08" rx="1.54" ry="1.54"/><polyline class="cls-1" points="19.24 44.59 44.75 70.1 19.24 95.61"/><line class="cls-1" x1="44.75" y1="70.1" y2="70.1"/><path class="cls-2" d="M74.46,58.08H80L89,72l9-13.94h5.52V87.57H98.31V66.42L89,80.32h-.17L79.6,66.5V87.57H74.46Z" transform="translate(-2.73 -2.42)"/><path class="cls-2" d="M108.93,58.08h13.2q5.09,0,7.7,2.61a6.67,6.67,0,0,1,2,4.89v.08a7.5,7.5,0,0,1-.35,2.38,7.15,7.15,0,0,1-.92,1.81,6.45,6.45,0,0,1-1.34,1.37,10.41,10.41,0,0,1-1.57,1A14.39,14.39,0,0,1,130,73.31a7.61,7.61,0,0,1,1.84,1.45,5.84,5.84,0,0,1,1.2,2,7.66,7.66,0,0,1,.42,2.66v.08a7.55,7.55,0,0,1-.78,3.5,7.05,7.05,0,0,1-2.21,2.53A10.5,10.5,0,0,1,127,87a17.71,17.71,0,0,1-4.46.53H108.93Zm12.19,12.43a7.26,7.26,0,0,0,4-1,3.36,3.36,0,0,0,1.51-3v-.08a3.25,3.25,0,0,0-1.32-2.76,6.33,6.33,0,0,0-3.84-1h-7.43v7.84ZM122.64,83a7.4,7.4,0,0,0,4.15-1,3.42,3.42,0,0,0,1.52-3v-.08a3.34,3.34,0,0,0-1.5-2.93,8,8,0,0,0-4.55-1h-8.19V83Z" transform="translate(-2.73 -2.42)"/></svg>