<?xml version="1.0" encoding="UTF-8" standalone="no"?>
<svg
   xmlns:dc="http://purl.org/dc/elements/1.1/"
   xmlns:cc="http://creativecommons.org/ns#"
   xmlns:rdf="http://www.w3.org/1999/02/22-rdf-syntax-ns#"
   xmlns:svg="http://www.w3.org/2000/svg"
   xmlns="http://www.w3.org/2000/svg"
   xmlns:sodipodi="http://sodipodi.sourceforge.net/DTD/sodipodi-0.dtd"
   xmlns:inkscape="http://www.inkscape.org/namespaces/inkscape"
   id="Capa_1"
   data-name="Capa 1"
   viewBox="0 0 91.000001 91"
   version="1.1"
   sodipodi:docname="ico_desconectar.svg"
   width="91"
   height="91"
   inkscape:version="0.92.2 (5c3e80d, 2017-08-06)">
  <metadata
     id="metadata16">
    <rdf:RDF>
      <cc:Work
         rdf:about="">
        <dc:format>image/svg+xml</dc:format>
        <dc:type
           rdf:resource="http://purl.org/dc/dcmitype/StillImage" />
        <dc:title>ico_desconectar</dc:title>
      </cc:Work>
    </rdf:RDF>
  </metadata>
  <sodipodi:namedview
     pagecolor="#ffffff"
     bordercolor="#666666"
     borderopacity="1"
     objecttolerance="10"
     gridtolerance="10"
     guidetolerance="10"
     inkscape:pageopacity="0"
     inkscape:pageshadow="2"
     inkscape:window-width="1920"
     inkscape:window-height="996"
     id="namedview14"
     showgrid="false"
     inkscape:zoom="2.5985466"
     inkscape:cx="43.695"
     inkscape:cy="45.41"
     inkscape:window-x="-8"
     inkscape:window-y="-8"
     inkscape:window-maximized="1"
     inkscape:current-layer="Capa_1" />
  <defs
     id="defs4">
    <style
       id="style2">.cls-1{fill:#ba1e80;}</style>
  </defs>
  <title
     id="title6">ico_desconectar</title>
  <g
     id="desconectar"
     transform="translate(1.815,0.16273217)">
    <path
       class="cls-1"
       d="m 45.49,44.54 a 7.87,7.87 0 0 0 7.89,-7.8 V 9.44 a 7.89,7.89 0 0 0 -15.78,0 v 27.3 a 7.88,7.88 0 0 0 7.89,7.8 z m 0,0"
       transform="translate(-1.81,-1.64)"
       id="path8"
       inkscape:connector-curvature="0"
       style="fill:#ba1e80" />
    <path
       class="cls-1"
       d="M 62.36,8.39 A 3.16,3.16 0 0 0 58,11.31 V 21.67 A 3.18,3.18 0 0 0 59.59,24.41 28.11,28.11 0 1 1 17.4,48.73 28.22,28.22 0 0 1 31.4,24.42 3.18,3.18 0 0 0 33,21.68 V 11.31 a 3.14,3.14 0 0 0 -4.37,-2.92 43.7,43.7 0 1 0 33.73,0 z m 0,0"
       transform="translate(-1.81,-1.64)"
       id="path10"
       inkscape:connector-curvature="0"
       style="fill:#ba1e80" />
  </g>
</svg>
