<?xml version="1.0" encoding="UTF-8" standalone="no"?>
<svg
   xmlns:dc="http://purl.org/dc/elements/1.1/"
   xmlns:cc="http://creativecommons.org/ns#"
   xmlns:rdf="http://www.w3.org/1999/02/22-rdf-syntax-ns#"
   xmlns:svg="http://www.w3.org/2000/svg"
   xmlns="http://www.w3.org/2000/svg"
   xmlns:sodipodi="http://sodipodi.sourceforge.net/DTD/sodipodi-0.dtd"
   xmlns:inkscape="http://www.inkscape.org/namespaces/inkscape"
   id="Capa_1"
   data-name="Capa 1"
   viewBox="0 0 96 96"
   version="1.1"
   sodipodi:docname="ico_mail.svg"
   width="96"
   height="96"
   inkscape:version="0.92.2 (5c3e80d, 2017-08-06)">
  <metadata
     id="metadata179">
    <rdf:RDF>
      <cc:Work
         rdf:about="">
        <dc:format>image/svg+xml</dc:format>
        <dc:type
           rdf:resource="http://purl.org/dc/dcmitype/StillImage" />
        <dc:title>ico_mail</dc:title>
      </cc:Work>
    </rdf:RDF>
  </metadata>
  <sodipodi:namedview
     pagecolor="#ffffff"
     bordercolor="#666666"
     borderopacity="1"
     objecttolerance="10"
     gridtolerance="10"
     guidetolerance="10"
     inkscape:pageopacity="0"
     inkscape:pageshadow="2"
     inkscape:window-width="1920"
     inkscape:window-height="996"
     id="namedview177"
     showgrid="false"
     inkscape:zoom="3.3594306"
     inkscape:cx="47.66"
     inkscape:cy="35.125"
     inkscape:window-x="-8"
     inkscape:window-y="-8"
     inkscape:window-maximized="1"
     inkscape:current-layer="Capa_1" />
  <defs
     id="defs167">
    <style
       id="style165">.cls-1{fill:#bdb6b6;}.cls-2{fill:#2e4347;}</style>
  </defs>
  <title
     id="title169">ico_mail</title>
  <g
     id="g184"
     transform="translate(0.3402175,-12.87407)">
    <g
       transform="translate(0,25.75)"
       data-name="forward email"
       id="forward_email">
      <path
         style="fill:#bdb6b6"
         inkscape:connector-curvature="0"
         id="path171"
         transform="translate(-1.48,-1.75)"
         d="m 86.91,1.75 h -80 V 31.2 h 14.24 v -2.75 l -5.84,-5.59 v -9.73 c 10.56,10.44 29.84,29.14 29.84,29.14 v 0 a 8.88,8.88 0 0 0 6.65,2.56 9.27,9.27 0 0 0 6.94,-3 v 0 L 88.37,13 v 9.84 l -26.5,25.61 v 0 a 13.91,13.91 0 0 1 -10,3.9 14,14 0 0 1 -9.95,-3.87 c -0.08,0.1 -0.17,0.19 -0.26,0.29 H 41.6 L 25.92,64.19 a 2.8,2.8 0 0 1 -2,0.8 2.88,2.88 0 0 1 -1.08,-0.21 2.82,2.82 0 0 1 -1.72,-2.6 V 56.49 H 6.88 v 5.62 a 10,10 0 0 0 10,9.89 H 96.8 V 11.45 a 9.7,9.7 0 0 0 -9.89,-9.7 z"
         class="cls-1" />
    </g>
    <path
       style="fill:#2e4347"
       inkscape:connector-curvature="0"
       id="path174"
       d="m 22.52,77.79 v 8.39 L 38.11,70.81 v 0 a 1.16,1.16 0 0 0 0.24,-0.26 v 0 a 4,4 0 0 0 1,-2.59 v 0 -0.12 0 A 4.31,4.31 0 0 0 38.11,65 v 0 L 22.52,49.65 V 58 H 4.16 A 4.24,4.24 0 0 0 0,62.3 v 11.24 a 4.2,4.2 0 0 0 1.27,3 4.13,4.13 0 0 0 2.89,1.24 h 18.36 z"
       class="cls-2" />
  </g>
</svg>
