<svg xmlns="http://www.w3.org/2000/svg" width="40" height="40" viewBox="0 0 40 40">
    <g fill="#2da530" fill-rule="evenodd">
        <path d="M27.83 12.805h-4.055v-.661A2.146 2.146 0 0 0 21.631 10h-3.855a2.146 2.146 0 0 0-2.144 2.144v.661h-4.055c-.3 0-.54.24-.54.541 0 .3.24.541.54.541h.978v12.71a2.897 2.897 0 0 0 2.893 2.894h8.511a2.897 2.897 0 0 0 2.894-2.893V13.887h.977c.3 0 .541-.24.541-.541 0-.3-.24-.541-.54-.541zm-11.116-.661c0-.585.477-1.062 1.062-1.062h3.855c.585 0 1.062.477 1.062 1.062v.661h-5.979v-.661zm9.057 14.454c0 .998-.814 1.811-1.812 1.811h-8.511a1.815 1.815 0 0 1-1.811-1.811V13.887h12.138v12.71h-.004z"/>
        <path d="M19.704 26.47c.3 0 .54-.24.54-.541v-9.562c0-.3-.24-.54-.54-.54-.3 0-.541.24-.541.54v9.558c0 .3.24.545.54.545zM16.173 25.873c.3 0 .541-.24.541-.541V16.96c0-.301-.24-.541-.54-.541-.301 0-.542.24-.542.54v8.372c0 .3.245.54.541.54zM23.234 25.873c.3 0 .541-.24.541-.541V16.96c0-.301-.24-.541-.541-.541-.3 0-.541.24-.541.54v8.372c0 .3.24.54.541.54z"/>
    </g>
</svg>
