<svg xmlns="http://www.w3.org/2000/svg" width="40" height="40" viewBox="0 0 40 40">
    <g fill="#ffffff" fill-rule="evenodd">
        <path d="M19.918 13.493c.708 0 1.293.575 1.293 1.302 0 .726-.572 1.3-1.293 1.3a1.296 1.296 0 0 1-1.292-1.3c0-.727.571-1.302 1.292-1.302"/>
        <path stroke="#2DA530" stroke-width=".3" d="M19.891 29.918c-5.456 0-9.891-4.466-9.891-9.96C10 14.467 14.435 10 19.891 10s9.891 4.466 9.891 9.959c0 5.493-4.435 9.959-9.89 9.959zm0-19.137c-5.034 0-9.115 4.123-9.115 9.178 0 5.068 4.095 9.178 9.115 9.178 5.034 0 9.116-4.123 9.116-9.178 0-5.069-4.095-9.178-9.116-9.178z"/>
        <path d="M19.075 18.205c0-.465.38-.643.843-.643.463 0 .844.178.844.643l.422 6.905v.082c0 .698-.558 1.274-1.266 1.274a1.259 1.259 0 0 1-1.265-1.274v-.096"/>
    </g>
</svg>
